<svg width="1440" height="560" viewBox="0 0 1440 560" fill="none" xmlns="http://www.w3.org/2000/svg">
<g clip-path="url(#clip0_9786_23084)">
<mask id="mask0_9786_23084" style="mask-type:luminance" maskUnits="userSpaceOnUse" x="0" y="0" width="1440" height="560">
<path d="M1440 0H0V560H1440V0Z" fill="white"/>
</mask>
<g mask="url(#mask0_9786_23084)">
<path d="M207 90.9395V360.939" stroke="#FC5C50" stroke-opacity="0.6" stroke-width="13.5" stroke-linecap="round"/>
<path d="M207 381.189V421.689" stroke="#FC5C50" stroke-opacity="0.6" stroke-width="13.5" stroke-linecap="round"/>
<path d="M207 441.939V469.059" stroke="#00B2FF" stroke-opacity="0.6" stroke-width="13.5" stroke-linecap="round"/>
<path d="M225 252.399V265.899" stroke="#FC5C50" stroke-opacity="0.6" stroke-width="13.5" stroke-linecap="round"/>
<path d="M225 286.149V307.599" stroke="#00B2FF" stroke-opacity="0.6" stroke-width="13.5" stroke-linecap="round"/>
<path d="M243 137.78V232.28" stroke="#FC5C50" stroke-opacity="0.6" stroke-width="13.5" stroke-linecap="round"/>
<path d="M243 252.53V422.22" stroke="#00B2FF" stroke-opacity="0.6" stroke-width="13.5" stroke-linecap="round"/>
<path d="M261 116.93V251.93" stroke="#00B2FF" stroke-opacity="0.6" stroke-width="13.5" stroke-linecap="round"/>
<path d="M261 272.18V339.68" stroke="#FC5C50" stroke-opacity="0.6" stroke-width="13.5" stroke-linecap="round"/>
<path d="M261 359.93V443.07" stroke="#00B2FF" stroke-opacity="0.6" stroke-width="13.5" stroke-linecap="round"/>
<path d="M279 186.5V213.5" stroke="#00B2FF" stroke-opacity="0.6" stroke-width="13.5" stroke-linecap="round"/>
<path d="M279 233.75V373.5" stroke="#00B2FF" stroke-opacity="0.6" stroke-width="13.5" stroke-linecap="round"/>
<path d="M297 86.6299V473.38" stroke="#00B2FF" stroke-opacity="0.6" stroke-width="13.5" stroke-linecap="round"/>
<path d="M315 105.88V240.88" stroke="#00B2FF" stroke-opacity="0.6" stroke-width="13.5" stroke-linecap="round"/>
<path d="M315 261.13V454.12" stroke="#00B2FF" stroke-opacity="0.6" stroke-width="13.5" stroke-linecap="round"/>
<path d="M333 204.71V272.21" stroke="#00B2FF" stroke-opacity="0.6" stroke-width="13.5" stroke-linecap="round"/>
<path d="M333 292.46V355.29" stroke="#00B2FF" stroke-opacity="0.6" stroke-width="13.5" stroke-linecap="round"/>
<path d="M351 205.68V259.68" stroke="#00B2FF" stroke-opacity="0.6" stroke-width="13.5" stroke-linecap="round"/>
<path d="M351 279.93V306.93" stroke="#FC5C50" stroke-opacity="0.6" stroke-width="13.5" stroke-linecap="round"/>
<path d="M351 327.18V354.32" stroke="#00B2FF" stroke-opacity="0.6" stroke-width="13.5" stroke-linecap="round"/>
<path d="M369 241.87V318.13" stroke="#00B2FF" stroke-opacity="0.6" stroke-width="13.5" stroke-linecap="round"/>
<path d="M387 154.22V405.78" stroke="#FC5C50" stroke-opacity="0.6" stroke-width="13.5" stroke-linecap="round"/>
<path d="M405 217.05V257.55" stroke="#FC5C50" stroke-opacity="0.6" stroke-width="13.5" stroke-linecap="round"/>
<path d="M405 277.8V291.3" stroke="#FC5C50" stroke-opacity="0.6" stroke-width="13.5" stroke-linecap="round"/>
<path d="M405 311.55V342.95" stroke="#00B2FF" stroke-opacity="0.6" stroke-width="13.5" stroke-linecap="round"/>
<path d="M423 102.52V170.02" stroke="#FC5C50" stroke-opacity="0.6" stroke-width="13.5" stroke-linecap="round"/>
<path d="M423 190.27V457.48" stroke="#00B2FF" stroke-opacity="0.6" stroke-width="13.5" stroke-linecap="round"/>
<path d="M441 204.37V244.87" stroke="#00B2FF" stroke-opacity="0.6" stroke-width="13.5" stroke-linecap="round"/>
<path d="M441 265.12V292.12" stroke="#00B2FF" stroke-opacity="0.6" stroke-width="13.5" stroke-linecap="round"/>
<path d="M441 312.37V355.63" stroke="#00B2FF" stroke-opacity="0.6" stroke-width="13.5" stroke-linecap="round"/>
<path d="M459 193.43V366.57" stroke="#00B2FF" stroke-opacity="0.6" stroke-width="13.5" stroke-linecap="round"/>
<path d="M477 173.55V187.05" stroke="#00B2FF" stroke-opacity="0.6" stroke-width="13.5" stroke-linecap="round"/>
<path d="M477 207.3V301.8" stroke="#00B2FF" stroke-opacity="0.6" stroke-width="13.5" stroke-linecap="round"/>
<path d="M477 322.05V386.45" stroke="#00B2FF" stroke-opacity="0.6" stroke-width="13.5" stroke-linecap="round"/>
<path d="M495 170.49V264.99" stroke="#00B2FF" stroke-opacity="0.6" stroke-width="13.5" stroke-linecap="round"/>
<path d="M495 285.24V298.74" stroke="#00B2FF" stroke-opacity="0.6" stroke-width="13.5" stroke-linecap="round"/>
<path d="M495 318.99V389.51" stroke="#00B2FF" stroke-opacity="0.6" stroke-width="13.5" stroke-linecap="round"/>
<path d="M513 209.93V250.43" stroke="#00B2FF" stroke-opacity="0.6" stroke-width="13.5" stroke-linecap="round"/>
<path d="M513 270.68V297.68" stroke="#00B2FF" stroke-opacity="0.6" stroke-width="13.5" stroke-linecap="round"/>
<path d="M513 317.93V350.07" stroke="#FC5C50" stroke-opacity="0.6" stroke-width="13.5" stroke-linecap="round"/>
<path d="M531 246.34V313.67" stroke="#00B2FF" stroke-opacity="0.6" stroke-width="13.5" stroke-linecap="round"/>
<path d="M549 204.09V231.09" stroke="#00B2FF" stroke-opacity="0.6" stroke-width="13.5" stroke-linecap="round"/>
<path d="M549 251.34V355.9" stroke="#00B2FF" stroke-opacity="0.6" stroke-width="13.5" stroke-linecap="round"/>
<path d="M567 111.28V448.72" stroke="#00B2FF" stroke-opacity="0.6" stroke-width="13.5" stroke-linecap="round"/>
<path d="M585 169.22V263.72" stroke="#00B2FF" stroke-opacity="0.6" stroke-width="13.5" stroke-linecap="round"/>
<path d="M585 283.97V324.47" stroke="#00B2FF" stroke-opacity="0.6" stroke-width="13.5" stroke-linecap="round"/>
<path d="M585 344.72V390.78" stroke="#FC5C50" stroke-opacity="0.6" stroke-width="13.5" stroke-linecap="round"/>
<path d="M603 212.35V347.65" stroke="#00B2FF" stroke-opacity="0.6" stroke-width="13.5" stroke-linecap="round"/>
<path d="M621 111.13V273.13" stroke="#00B2FF" stroke-opacity="0.6" stroke-width="13.5" stroke-linecap="round"/>
<path d="M621 293.38V448.87" stroke="#FC5C50" stroke-opacity="0.6" stroke-width="13.5" stroke-linecap="round"/>
<path d="M639 186.33V226.83" stroke="#00B2FF" stroke-opacity="0.6" stroke-width="13.5" stroke-linecap="round"/>
<path d="M639 247.08V373.67" stroke="#00B2FF" stroke-opacity="0.6" stroke-width="13.5" stroke-linecap="round"/>
<path d="M657 129.979V332.48" stroke="#FC5C50" stroke-opacity="0.6" stroke-width="13.5" stroke-linecap="round"/>
<path d="M657 352.729V430.019" stroke="#00B2FF" stroke-opacity="0.6" stroke-width="13.5" stroke-linecap="round"/>
<path d="M675 156.53V264.53" stroke="#FC5C50" stroke-opacity="0.6" stroke-width="13.5" stroke-linecap="round"/>
<path d="M675 284.78V311.78" stroke="#FC5C50" stroke-opacity="0.6" stroke-width="13.5" stroke-linecap="round"/>
<path d="M675 332.03V403.48" stroke="#00B2FF" stroke-opacity="0.6" stroke-width="13.5" stroke-linecap="round"/>
<path d="M693 181.3V248.8" stroke="#00B2FF" stroke-opacity="0.6" stroke-width="13.5" stroke-linecap="round"/>
<path d="M693 269.05V323.05" stroke="#00B2FF" stroke-opacity="0.6" stroke-width="13.5" stroke-linecap="round"/>
<path d="M693 343.3V378.7" stroke="#FC5C50" stroke-opacity="0.6" stroke-width="13.5" stroke-linecap="round"/>
<path d="M711 178.95V381.05" stroke="#00B2FF" stroke-opacity="0.6" stroke-width="13.5" stroke-linecap="round"/>
<path d="M729 139.8V193.8" stroke="#00B2FF" stroke-opacity="0.6" stroke-width="13.5" stroke-linecap="round"/>
<path d="M729 214.05V420.2" stroke="#00B2FF" stroke-opacity="0.6" stroke-width="13.5" stroke-linecap="round"/>
<path d="M747 174.71V296.21" stroke="#00B2FF" stroke-opacity="0.6" stroke-width="13.5" stroke-linecap="round"/>
<path d="M747 316.46V329.96" stroke="#00B2FF" stroke-opacity="0.6" stroke-width="13.5" stroke-linecap="round"/>
<path d="M747 350.21V385.29" stroke="#FC5C50" stroke-opacity="0.6" stroke-width="13.5" stroke-linecap="round"/>
<path d="M765 239.53V320.48" stroke="#00B2FF" stroke-opacity="0.6" stroke-width="13.5" stroke-linecap="round"/>
<path d="M783 97.5098V165.01" stroke="#00B2FF" stroke-opacity="0.6" stroke-width="13.5" stroke-linecap="round"/>
<path d="M783 185.26V462.49" stroke="#00B2FF" stroke-opacity="0.6" stroke-width="13.5" stroke-linecap="round"/>
<path d="M801 223.02V250.02" stroke="#00B2FF" stroke-opacity="0.6" stroke-width="13.5" stroke-linecap="round"/>
<path d="M801 270.27V336.98" stroke="#FC5C50" stroke-opacity="0.6" stroke-width="13.5" stroke-linecap="round"/>
<path d="M819 106.3V453.7" stroke="#00B2FF" stroke-opacity="0.6" stroke-width="13.5" stroke-linecap="round"/>
<path d="M837 142.649V345.149" stroke="#00B2FF" stroke-opacity="0.6" stroke-width="13.5" stroke-linecap="round"/>
<path d="M837 365.399V378.899" stroke="#00B2FF" stroke-opacity="0.6" stroke-width="13.5" stroke-linecap="round"/>
<path d="M837 399.149V417.359" stroke="#FC5C50" stroke-opacity="0.6" stroke-width="13.5" stroke-linecap="round"/>
<path d="M855 104.03V185.03" stroke="#00B2FF" stroke-opacity="0.6" stroke-width="13.5" stroke-linecap="round"/>
<path d="M855 205.28V455.97" stroke="#FC5C50" stroke-opacity="0.6" stroke-width="13.5" stroke-linecap="round"/>
<path d="M873 123.72V285.72" stroke="#00B2FF" stroke-opacity="0.6" stroke-width="13.5" stroke-linecap="round"/>
<path d="M873 305.97V373.47" stroke="#00B2FF" stroke-opacity="0.6" stroke-width="13.5" stroke-linecap="round"/>
<path d="M873 393.72V436.28" stroke="#00B2FF" stroke-opacity="0.6" stroke-width="13.5" stroke-linecap="round"/>
<path d="M891 126.66V153.66" stroke="#FC5C50" stroke-opacity="0.6" stroke-width="13.5" stroke-linecap="round"/>
<path d="M891 173.91V241.41" stroke="#FC5C50" stroke-opacity="0.6" stroke-width="13.5" stroke-linecap="round"/>
<path d="M891 261.66V433.34" stroke="#FC5C50" stroke-opacity="0.6" stroke-width="13.5" stroke-linecap="round"/>
<path d="M909 192.08V327.08" stroke="#00B2FF" stroke-opacity="0.6" stroke-width="13.5" stroke-linecap="round"/>
<path d="M909 347.33V367.92" stroke="#FC5C50" stroke-opacity="0.6" stroke-width="13.5" stroke-linecap="round"/>
<path d="M927 174.67V269.17" stroke="#00B2FF" stroke-opacity="0.6" stroke-width="13.5" stroke-linecap="round"/>
<path d="M927 289.42V385.33" stroke="#00B2FF" stroke-opacity="0.6" stroke-width="13.5" stroke-linecap="round"/>
<path d="M945 213.92V254.42" stroke="#FC5C50" stroke-opacity="0.6" stroke-width="13.5" stroke-linecap="round"/>
<path d="M945 274.67V301.67" stroke="#00B2FF" stroke-opacity="0.6" stroke-width="13.5" stroke-linecap="round"/>
<path d="M945 321.92V346.08" stroke="#00B2FF" stroke-opacity="0.6" stroke-width="13.5" stroke-linecap="round"/>
<path d="M963 142.76V237.26" stroke="#FC5C50" stroke-opacity="0.6" stroke-width="13.5" stroke-linecap="round"/>
<path d="M963 257.51V379.01" stroke="#00B2FF" stroke-opacity="0.6" stroke-width="13.5" stroke-linecap="round"/>
<path d="M963 399.26V417.24" stroke="#FC5C50" stroke-opacity="0.6" stroke-width="13.5" stroke-linecap="round"/>
<path d="M981 224.26V264.76" stroke="#00B2FF" stroke-opacity="0.6" stroke-width="13.5" stroke-linecap="round"/>
<path d="M981 285.01V298.51" stroke="#00B2FF" stroke-opacity="0.6" stroke-width="13.5" stroke-linecap="round"/>
<path d="M981 318.76V335.74" stroke="#00B2FF" stroke-opacity="0.6" stroke-width="13.5" stroke-linecap="round"/>
<path d="M999 136.21V230.71" stroke="#00B2FF" stroke-opacity="0.6" stroke-width="13.5" stroke-linecap="round"/>
<path d="M999 250.96V423.79" stroke="#00B2FF" stroke-opacity="0.6" stroke-width="13.5" stroke-linecap="round"/>
<path d="M1017 137.84V340.34" stroke="#FC5C50" stroke-opacity="0.6" stroke-width="13.5" stroke-linecap="round"/>
<path d="M1017 360.59V387.59" stroke="#00B2FF" stroke-opacity="0.6" stroke-width="13.5" stroke-linecap="round"/>
<path d="M1017 407.84V422.15" stroke="#FC5C50" stroke-opacity="0.6" stroke-width="13.5" stroke-linecap="round"/>
<path d="M1035 248.47V261.97" stroke="#00B2FF" stroke-opacity="0.6" stroke-width="13.5" stroke-linecap="round"/>
<path d="M1035 282.22V311.53" stroke="#00B2FF" stroke-opacity="0.6" stroke-width="13.5" stroke-linecap="round"/>
<path d="M1053 94.5V243" stroke="#FC5C50" stroke-opacity="0.6" stroke-width="13.5" stroke-linecap="round"/>
<path d="M1053 263.25V465.5" stroke="#00B2FF" stroke-opacity="0.6" stroke-width="13.5" stroke-linecap="round"/>
<path d="M1071 114.57V317.07" stroke="#00B2FF" stroke-opacity="0.6" stroke-width="13.5" stroke-linecap="round"/>
<path d="M1071 337.32V445.43" stroke="#00B2FF" stroke-opacity="0.6" stroke-width="13.5" stroke-linecap="round"/>
<path d="M1089 139.41V287.91" stroke="#00B2FF" stroke-opacity="0.6" stroke-width="13.5" stroke-linecap="round"/>
<path d="M1089 308.16V420.59" stroke="#FC5C50" stroke-opacity="0.6" stroke-width="13.5" stroke-linecap="round"/>
<path d="M1107 124.6V286.6" stroke="#00B2FF" stroke-opacity="0.6" stroke-width="13.5" stroke-linecap="round"/>
<path d="M1107 306.85V374.35" stroke="#00B2FF" stroke-opacity="0.6" stroke-width="13.5" stroke-linecap="round"/>
<path d="M1107 394.6V435.39" stroke="#00B2FF" stroke-opacity="0.6" stroke-width="13.5" stroke-linecap="round"/>
<path d="M1125 96.1299V231.13" stroke="#00B2FF" stroke-opacity="0.6" stroke-width="13.5" stroke-linecap="round"/>
<path d="M1125 251.38V359.38" stroke="#00B2FF" stroke-opacity="0.6" stroke-width="13.5" stroke-linecap="round"/>
<path d="M1125 379.63V463.88" stroke="#FC5C50" stroke-opacity="0.6" stroke-width="13.5" stroke-linecap="round"/>
<path d="M1143 133.54V336.04" stroke="#00B2FF" stroke-opacity="0.6" stroke-width="13.5" stroke-linecap="round"/>
<path d="M1143 356.29V426.46" stroke="#00B2FF" stroke-opacity="0.6" stroke-width="13.5" stroke-linecap="round"/>
<path d="M1161 227.91V241.41" stroke="#00B2FF" stroke-opacity="0.6" stroke-width="13.5" stroke-linecap="round"/>
<path d="M1161 261.66V288.66" stroke="#00B2FF" stroke-opacity="0.6" stroke-width="13.5" stroke-linecap="round"/>
<path d="M1161 308.91V332.1" stroke="#00B2FF" stroke-opacity="0.6" stroke-width="13.5" stroke-linecap="round"/>
<path d="M1179 171.85V252.85" stroke="#FC5C50" stroke-opacity="0.6" stroke-width="13.5" stroke-linecap="round"/>
<path d="M1179 273.1V300.1" stroke="#00B2FF" stroke-opacity="0.6" stroke-width="13.5" stroke-linecap="round"/>
<path d="M1179 320.35V388.15" stroke="#FC5C50" stroke-opacity="0.6" stroke-width="13.5" stroke-linecap="round"/>
<path d="M1197 108.899V216.899" stroke="#00B2FF" stroke-opacity="0.6" stroke-width="13.5" stroke-linecap="round"/>
<path d="M1197 237.149V372.149" stroke="#00B2FF" stroke-opacity="0.6" stroke-width="13.5" stroke-linecap="round"/>
<path d="M1197 392.399V451.099" stroke="#FC5C50" stroke-opacity="0.6" stroke-width="13.5" stroke-linecap="round"/>
<path d="M1215 190.89V369.11" stroke="#00B2FF" stroke-opacity="0.6" stroke-width="13.5" stroke-linecap="round"/>
<path d="M1233 151.24V408.76" stroke="#00B2FF" stroke-opacity="0.6" stroke-width="13.5" stroke-linecap="round"/>
</g>
</g>
<defs>
<clipPath id="clip0_9786_23084">
<rect width="1440" height="560" fill="white"/>
</clipPath>
</defs>
</svg>
