<svg width="6899" height="520" viewBox="0 0 6899 520" fill="none" xmlns="http://www.w3.org/2000/svg">
<g clip-path="url(#clip0_10119_45312)">
<g opacity="0.4">
<g clip-path="url(#clip1_10119_45312)">
<path d="M739.626 3.00098C762.241 -1.06045 781.923 6.12648 806.751 14.7383C831.561 23.3437 861.401 33.3223 904.188 34.6611L904.2 34.6621L904.213 34.6611C929.776 34.2154 955.337 34.0437 975.715 34.1982C996.092 34.3528 1011.27 35.1074 1031.42 35.6719C1051.55 36.2361 1076.63 36.6106 1101.03 33.457C1107.13 32.6689 1113.19 31.6603 1119.14 30.7236C1125.09 29.7862 1130.92 28.9204 1136.61 28.4131C1147.98 27.3981 1158.69 27.8229 1168.33 31.9473C1178.01 36.0829 1186.67 43.9426 1195.43 51.2188C1204.16 58.4584 1213.01 65.1248 1222.99 66.6133C1232.96 68.1017 1243.97 64.4005 1255.16 59.3564C1260.76 56.831 1266.45 53.9521 1272.08 51.1982C1277.73 48.441 1283.34 45.805 1288.83 43.7451C1310.75 35.5131 1330.82 36.4479 1350.21 39.3506C1369.57 42.2487 1388.35 47.1356 1408.77 46.7246C1418.98 46.5191 1432.27 45.0974 1444.4 43.748C1456.55 42.3955 1467.51 41.1196 1473.11 41.1875C1478.73 41.2556 1493.59 42.9798 1510.53 44.7451C1527.45 46.5074 1546.42 48.3057 1560.2 48.5098C1587.76 48.9176 1613.09 44.069 1639.3 41.1846C1665.54 38.2974 1692.73 37.3645 1722.43 45.5635C1737.31 49.6729 1752.77 56.052 1767.95 61.0811C1783.08 66.0944 1797.88 69.7459 1811.26 68.2773C1824.66 66.808 1836.57 60.2202 1848.38 53.0176C1860.21 45.7968 1871.94 37.9655 1885.06 33.8428H1885.06C1911.41 25.5601 1943.26 18.6688 1976.09 21.7881C2009.05 24.9195 2042.94 24.548 2070.14 23.9873C2097.35 23.4265 2117.88 22.676 2145.42 22.5225C2159.21 22.4456 2176.12 20.5831 2193.12 19.7666C2210.17 18.948 2227.38 19.1738 2241.95 23.2363C2256.62 27.329 2290.48 34.4483 2327.56 40.416C2364.64 46.3831 2405 51.2078 2432.66 50.6953C2460.3 50.183 2479.27 47.065 2497.4 43.9736C2515.52 40.8834 2532.79 37.8219 2557.08 37.3994C2581.58 36.9734 2594.45 26.5032 2607.3 18.8262C2613.72 14.988 2620.12 11.8481 2628 10.9258C2635.87 10.0037 2645.26 11.2929 2657.65 16.4092C2682.62 26.7206 2711.21 30.0374 2742.21 32.7402C2773.23 35.4449 2806.67 37.5358 2841.45 45.3643L2841.47 45.3691L2841.49 45.3721L2842.1 45.4561C2871.66 49.5517 2901.7 53.7143 2929.06 54.0098C2956.61 54.3071 2981.93 50.7727 3008.15 48.668C3034.39 46.5618 3061.6 45.8791 3091.32 51.8633C3106.21 54.8608 3121.68 59.5177 3136.84 63.1826C3151.97 66.839 3166.75 69.4953 3180.11 68.4268C3193.47 67.3575 3205.37 62.5619 3217.18 57.3066C3229.01 52.0429 3240.74 46.3264 3253.87 43.3164C3267 40.3079 3281.55 40.0023 3296.94 40.7393C3312.36 41.477 3328.55 43.2523 3345.05 44.3955C3378 46.6787 3411.88 46.4078 3439.08 45.999C3466.29 45.59 3486.83 45.0427 3514.37 44.9307C3541.89 44.8187 3569.62 44.9311 3610.75 61.749C3630.71 73.4816 3650.93 83.621 3672.12 76.9834C3682.69 73.6705 3693.49 65.7469 3704.75 57.7363C3716.06 49.6995 3727.87 41.5505 3740.56 37.626C3753.24 33.7047 3766.84 33.9901 3779.72 35.5576C3786.16 36.3411 3792.41 37.4433 3798.26 38.4961C3804.1 39.5478 3809.57 40.5518 3814.41 41.1318C3824.12 42.2934 3831.34 41.7545 3839.31 41.3848C3847.27 41.0153 3856 40.8114 3868.77 42.625C3881.57 44.4421 3898.41 48.2796 3915.08 51.6191C3931.73 54.9528 3948.23 57.7917 3960.26 57.5762C3972.33 57.3598 3979.9 54.0702 3986.94 51.0596C3993.95 48.0571 4000.41 45.3443 4010.37 46.1162C4020.4 46.8933 4033.95 51.1913 4047.94 55.1602C4061.89 59.1144 4076.26 62.7372 4087.78 62.0596C4099.34 61.3799 4107.99 56.3788 4116.43 51.5928C4124.89 46.7967 4133.13 42.218 4144 42.1318C4154.91 42.0453 4168.51 46.4801 4182.62 51.7314C4196.7 56.9671 4211.27 63.0086 4224.03 66.0322C4249.63 72.0955 4267.96 66.0471 4286.19 60.042L4286.27 60.0137L4286.32 59.9756C4286.34 59.9657 4286.38 59.9447 4286.46 59.9131C4286.62 59.8443 4286.93 59.7303 4287.49 59.5684C4288.6 59.2445 4290.67 58.7368 4294.47 58.0117C4302.06 56.5623 4316.54 54.2529 4344.03 50.8213C4371.67 50.4166 4401.74 46.3844 4430.96 42.375C4460.2 38.362 4488.58 34.3731 4512.88 34.041C4561.44 33.3773 4593.7 47.3197 4643.53 63.4854C4693.25 79.6197 4761.36 104.045 4828.08 66.4678C4864.91 51.5131 4911.34 43.2469 4942 50.4131C4957.31 53.9934 4969.9 62.2535 4982.89 69.5059C4995.86 76.7439 5009.18 82.9485 5025.81 82.2061C5042.4 81.4654 5062.24 73.8088 5081.56 65.8672C5100.93 57.9035 5119.76 49.6594 5134.47 47.6055C5149.11 45.5613 5159.67 49.6599 5170.17 55.2461C5180.65 60.8267 5191.15 67.9443 5205.48 71.7305C5219.82 75.5172 5237.99 75.9799 5257.07 75.1201C5276.15 74.2602 5296.2 72.0726 5314.26 70.5381C5350.4 67.4679 5378.78 66.9932 5407.16 66.5176C5426.14 66.1996 5436.54 71.047 5444.95 75.1836C5449.16 77.2521 5452.93 79.1758 5457.03 80.1621C5461.15 81.1539 5465.59 81.1965 5471.16 79.5537C5482.24 76.2889 5493.55 68.4788 5505.36 60.5771C5517.21 52.6523 5529.58 44.6136 5542.89 40.7412C5556.19 36.8713 5570.46 37.1531 5583.96 38.6992C5590.71 39.4721 5597.26 40.5594 5603.4 41.5977C5609.52 42.6349 5615.25 43.6254 5620.32 44.1973C5630.49 45.3422 5638.06 44.81 5646.41 44.4453C5654.76 44.0809 5663.91 43.8807 5677.3 45.6699C5690.72 47.4622 5708.37 51.2461 5725.85 54.5391C5743.3 57.8269 5760.58 60.6256 5773.19 60.4131C5785.83 60.1999 5793.76 56.9592 5801.13 53.9902C5808.48 51.0293 5815.26 48.349 5825.71 49.1113C5836.23 49.8781 5850.44 54.1193 5865.1 58.0322C5879.72 61.9323 5894.78 65.5016 5906.84 64.834C5918.94 64.1644 5928 59.2386 5936.85 54.5176C5945.71 49.7889 5954.37 45.2678 5965.77 45.1826C5977.22 45.0972 5991.47 49.4742 6006.27 54.6523C6021.02 59.8166 6036.3 65.773 6049.67 68.7539C6062.91 71.7044 6069.22 76.5749 6075.92 80.7656C6079.27 82.8658 6082.73 84.7951 6087.19 86.1953C6091.65 87.5953 6097.09 88.46 6104.41 88.46H6104.48L6104.54 88.4424C6120.46 84.1553 6133.66 81.4852 6145.62 79.0762C6157.59 76.6678 6168.34 74.5188 6179.35 71.2734C6190.38 68.0199 6201.49 62.3108 6213.14 56.4688C6224.8 50.6185 6237.03 44.6241 6250.38 40.7412C6263.68 36.8713 6277.95 37.153 6291.45 38.6992C6298.2 39.4721 6304.75 40.5594 6310.88 41.5977C6317.01 42.6349 6322.73 43.6255 6327.81 44.1973C6337.98 45.3422 6345.55 44.81 6353.9 44.4453C6362.24 44.0809 6371.4 43.8807 6384.79 45.6699C6398.21 47.4622 6415.85 51.2461 6433.33 54.5391C6450.78 57.8269 6468.07 60.6256 6480.67 60.4131C6493.31 60.1998 6501.24 56.9592 6508.61 53.9902C6515.96 51.0294 6522.74 48.349 6533.19 49.1113C6543.71 49.8781 6557.92 54.1193 6572.59 58.0322C6587.2 61.9322 6602.26 65.5016 6614.33 64.834C6626.07 64.1844 6635.26 71.239 6644.66 80.3369C6654 89.3789 6663.53 100.431 6675.82 107.377C6701.56 129.993 6743.56 164.881 6785.98 196.094C6807.19 211.707 6828.52 226.406 6847.96 238.188C6865.94 249.079 6882.33 257.494 6895.57 261.833H4.64941C28.3634 255.202 41.6741 244.22 51.2178 230.916C56.2241 223.937 60.1873 216.33 64.0703 208.411C67.958 200.483 71.7622 192.251 76.4668 183.969C85.8632 167.428 98.8365 150.72 123.105 136.168C147.382 121.611 182.989 109.194 237.678 101.291C308.997 100.207 341.555 111.959 362.905 121.558C373.567 126.351 381.554 130.672 390.169 132.56C398.831 134.457 408.118 133.901 421.458 129.06C447.98 119.434 480.799 111.363 513.892 102.606C546.965 93.8548 580.304 84.42 607.798 72.0723C635.294 59.7236 656.938 44.4624 677.35 31.3027C697.776 18.1336 716.964 7.07101 739.626 3.00098Z" stroke="white"/>
</g>
<g clip-path="url(#clip2_10119_45312)">
<path d="M6895.03 258.302C6871.32 264.933 6858.01 275.915 6848.46 289.219C6843.46 296.198 6839.5 303.805 6835.61 311.724C6831.73 319.652 6827.92 327.884 6823.22 336.166C6813.82 352.707 6800.85 369.415 6776.58 383.967C6752.3 398.524 6716.69 410.94 6662 418.843C6590.69 419.926 6558.13 408.176 6536.78 398.577C6526.12 393.784 6518.13 389.463 6509.52 387.575C6500.86 385.678 6491.57 386.233 6478.23 391.074C6451.71 400.701 6418.89 408.771 6385.8 417.528C6352.72 426.279 6319.38 435.714 6291.88 448.062C6264.39 460.41 6242.75 475.672 6222.33 488.831C6201.91 502 6182.72 513.063 6160.06 517.133C6137.44 521.195 6117.76 514.008 6092.93 505.396C6068.12 496.79 6038.28 486.812 5995.5 485.473H5995.47C5969.91 485.919 5944.35 486.091 5923.97 485.937C5903.59 485.782 5888.41 485.027 5868.26 484.463C5848.14 483.899 5823.06 483.524 5798.65 486.677C5792.55 487.465 5786.49 488.475 5780.54 489.411C5774.59 490.349 5768.75 491.215 5763.07 491.722C5751.7 492.737 5741 492.311 5731.35 488.187C5721.67 484.051 5713.02 476.192 5704.25 468.916C5695.52 461.677 5686.68 455.01 5676.7 453.522C5666.73 452.033 5655.72 455.734 5644.53 460.779C5638.93 463.304 5633.24 466.182 5627.61 468.936C5621.96 471.693 5616.35 474.33 5610.86 476.39C5588.94 484.622 5568.87 483.687 5549.47 480.784C5530.11 477.887 5511.33 472.999 5490.91 473.41C5480.71 473.616 5467.42 475.037 5455.29 476.387C5443.13 477.74 5432.17 479.015 5426.57 478.948C5420.95 478.879 5406.1 477.155 5389.15 475.39C5372.24 473.628 5353.26 471.829 5339.48 471.624C5312.79 471.229 5288.18 475.768 5262.84 478.674L5260.38 478.95C5234.14 481.838 5206.96 482.77 5177.26 474.571C5162.38 470.461 5146.92 464.082 5131.74 459.053C5116.61 454.04 5101.81 450.388 5088.43 451.857C5075.03 453.326 5063.12 459.915 5051.31 467.117C5039.47 474.338 5027.75 482.169 5014.63 486.292C4988.27 494.575 4956.43 501.466 4923.6 498.346C4890.64 495.215 4856.75 495.587 4829.55 496.147C4802.34 496.708 4781.8 497.458 4754.26 497.612C4740.48 497.689 4723.57 499.552 4706.56 500.368C4689.51 501.187 4672.3 500.961 4657.73 496.899C4643.06 492.806 4609.2 485.686 4572.12 479.718C4535.04 473.751 4494.68 468.927 4467.03 469.44C4439.69 469.946 4421.24 450.216 4403.44 430.228C4394.56 420.262 4385.85 410.237 4376.3 402.767C4366.74 395.287 4356.31 390.333 4343.99 390.547C4319.49 390.973 4306.62 401.443 4293.77 409.12C4287.35 412.959 4280.95 416.098 4273.07 417.021C4265.2 417.943 4255.81 416.655 4243.42 411.538C4230.79 406.323 4217.2 408.744 4202.9 414.957C4188.61 421.169 4173.51 431.217 4157.86 441.379C4142.18 451.553 4125.92 461.852 4109.24 468.633C4092.57 475.412 4075.52 478.659 4058.24 474.77L4058.22 474.766L4058.2 474.763L4057.59 474.679H4057.59C4028.03 470.583 3997.98 466.421 3970.62 466.125C3943.08 465.828 3917.76 469.363 3891.54 471.467C3865.3 473.574 3838.09 474.255 3808.37 468.271C3793.48 465.274 3778.01 460.617 3762.84 456.952C3747.71 453.296 3732.93 450.639 3719.58 451.707C3706.21 452.777 3694.32 457.572 3682.51 462.827C3670.68 468.091 3658.94 473.808 3645.81 476.819C3632.68 479.827 3618.14 480.133 3602.74 479.396C3587.32 478.658 3571.13 476.882 3554.63 475.74C3521.68 473.456 3487.8 473.727 3460.6 474.136C3433.4 474.544 3412.85 475.092 3385.31 475.204C3357.79 475.316 3330.07 475.203 3288.94 458.387C3268.98 446.653 3248.75 436.514 3227.56 443.152C3216.99 446.464 3206.2 454.388 3194.93 462.399C3183.63 470.435 3171.82 478.584 3159.13 482.508H3159.13C3146.45 486.429 3132.85 486.145 3119.97 484.577C3113.53 483.794 3107.28 482.692 3101.43 481.639C3095.59 480.587 3090.12 479.582 3085.28 479.002C3075.57 477.84 3068.34 478.381 3060.37 478.75C3052.41 479.12 3043.68 479.323 3030.91 477.509C3018.11 475.692 3001.28 471.854 2984.6 468.515C2967.95 465.181 2951.45 462.343 2939.42 462.559C2927.35 462.775 2919.79 466.065 2912.75 469.075C2905.74 472.078 2899.28 474.791 2889.32 474.019C2879.29 473.242 2865.74 468.944 2851.74 464.975C2837.8 461.021 2823.42 457.398 2811.9 458.075C2800.35 458.755 2791.7 463.756 2783.26 468.542C2774.8 473.338 2766.56 477.917 2755.69 478.003C2744.78 478.089 2731.18 473.655 2717.07 468.404C2702.99 463.168 2688.41 457.126 2675.65 454.103C2650.05 448.04 2631.72 454.087 2613.5 460.093L2613.42 460.122L2613.37 460.158C2613.35 460.168 2613.31 460.19 2613.23 460.222C2613.07 460.291 2612.76 460.405 2612.2 460.567C2611.09 460.891 2609.02 461.399 2605.22 462.124C2597.62 463.574 2583.15 465.881 2555.64 469.313C2528.01 469.718 2497.94 473.751 2468.72 477.76C2439.48 481.773 2411.1 485.761 2386.8 486.093C2338.24 486.757 2305.98 472.815 2256.15 456.65C2206.43 440.515 2138.32 416.088 2071.6 453.665C2034.78 468.62 1988.34 476.888 1957.68 469.722C1942.37 466.142 1929.78 457.882 1916.8 450.629C1903.83 443.391 1890.51 437.186 1873.88 437.929C1857.29 438.67 1837.44 446.325 1818.12 454.267C1798.75 462.231 1779.92 470.476 1765.21 472.53C1750.57 474.574 1740.01 470.475 1729.52 464.889C1719.03 459.308 1708.54 452.191 1694.21 448.405C1679.87 444.618 1661.69 444.155 1642.61 445.015C1623.53 445.875 1603.48 448.062 1585.42 449.596C1549.28 452.666 1520.91 453.142 1492.52 453.617C1473.54 453.936 1463.15 449.088 1454.73 444.951C1450.53 442.883 1446.75 440.958 1442.66 439.972C1438.53 438.98 1434.09 438.938 1428.52 440.58C1417.45 443.846 1406.14 451.656 1394.33 459.558C1382.48 467.483 1370.1 475.522 1356.79 479.394C1343.49 483.263 1329.22 482.981 1315.72 481.435C1308.97 480.662 1302.42 479.575 1296.29 478.536C1290.16 477.499 1284.44 476.509 1279.36 475.938C1269.19 474.793 1261.62 475.325 1253.27 475.69C1244.93 476.054 1235.77 476.254 1222.38 474.465C1208.96 472.673 1191.32 468.888 1173.84 465.595C1156.39 462.307 1139.11 459.509 1126.5 459.722C1113.86 459.935 1105.93 463.176 1098.56 466.145C1091.21 469.106 1084.43 471.786 1073.98 471.024C1063.46 470.257 1049.25 466.016 1034.58 462.103C1019.97 458.203 1004.91 454.634 992.844 455.301C980.746 455.97 971.686 460.896 962.835 465.617C953.97 470.346 945.317 474.867 933.91 474.952C922.466 475.038 908.211 470.661 893.416 465.483C878.661 460.318 863.383 454.362 850.009 451.381C836.772 448.431 830.47 443.559 823.771 439.368C820.413 437.268 816.954 435.339 812.493 433.939C808.033 432.539 802.594 431.675 795.273 431.675H795.207L795.143 431.693C779.22 435.979 766.025 438.649 754.058 441.058C742.093 443.466 731.342 445.616 720.335 448.862C709.3 452.115 698.195 457.824 686.546 463.666C674.881 469.517 662.651 475.511 649.307 479.394C636.006 483.264 621.737 482.981 608.234 481.435C601.485 480.662 594.937 479.575 588.804 478.536C582.676 477.499 576.952 476.509 571.875 475.938C561.708 474.793 554.135 475.325 545.786 475.69C537.442 476.054 528.286 476.254 514.894 474.465C501.478 472.673 483.828 468.888 466.351 465.595C448.901 462.307 431.617 459.509 419.014 459.722C406.372 459.935 398.445 463.176 391.072 466.145C383.72 469.106 376.941 471.786 366.488 471.024C355.975 470.257 341.762 466.016 327.097 462.103C312.479 458.203 297.424 454.633 285.358 455.301C273.619 455.951 264.426 448.896 255.027 439.798C245.687 430.757 236.159 419.705 223.873 412.759C198.133 390.143 156.126 355.254 113.71 324.041C92.4925 308.428 71.167 293.729 51.7197 281.947C33.7453 271.056 17.3481 262.641 4.1123 258.302H6895.03ZM2613.35 460.177C2613.35 460.177 2613.35 460.176 2613.35 460.175C2613.35 460.174 2613.35 460.172 2613.36 460.171L2613.36 460.17L2613.35 460.177Z" stroke="white"/>
</g>
</g>
<g opacity="0.5">
<g clip-path="url(#clip3_10119_45312)">
<path d="M2679.78 47.8564C2700.18 44.2476 2717.39 43.5024 2728.82 47.9492C2752 56.9723 2788.74 64.2744 2823.56 71.5469C2840.98 75.1858 2857.93 78.818 2872.49 82.6572C2887.04 86.4944 2899.16 90.5273 2906.97 94.957C2918.26 103.829 2937.27 110.641 2959.99 116.087C2982.74 121.543 3009.28 125.646 3035.63 129.061C3061.97 132.474 3088.17 135.204 3110.19 137.905C3132.24 140.61 3150.09 143.285 3159.84 146.584C3179.61 153.273 3205.7 149.159 3232.19 143.188C3258.74 137.202 3285.71 129.348 3307.46 128.383C3351.12 126.446 3408.63 117.267 3461.83 105.325C3475.04 102.358 3492.68 102.592 3513.01 104.122C3533.34 105.653 3556.28 108.469 3580.15 110.646C3627.82 114.991 3679.1 116.769 3719.79 100.429C3741.84 96.0469 3762.66 92.8281 3782.97 89.0166C3803.25 85.2093 3821.75 81.9804 3846.14 79.3027C3858.35 77.9633 3872 76.7659 3884.89 77.4268C3897.78 78.088 3909.84 80.6078 3918.91 86.6543C3928 92.7107 3934.12 102.323 3940.14 110.69C3943.13 114.856 3946.1 118.716 3949.39 121.607C3952.68 124.506 3956.32 126.454 3960.64 126.758C3964.94 127.06 3969.86 125.727 3975.21 123.515C3980.56 121.299 3986.41 118.173 3992.56 114.837C4004.91 108.15 4018.54 100.608 4032.3 97.5898C4046.05 94.5741 4059.97 96.07 4072.74 97.7275C4079.12 98.5547 4085.22 99.4239 4090.85 99.7773C4096.47 100.131 4101.66 99.9722 4106.21 98.7266C4115.29 96.2404 4121.75 89.4246 4128.31 83.8799C4134.9 78.3052 4141.62 73.9449 4151.41 75.8662C4156.35 76.8345 4162.1 79.4025 4168.35 82.875C4174.6 86.3442 4181.32 90.6938 4188.2 95.2002C4201.94 104.196 4216.35 113.833 4228.8 118.155C4235.05 120.328 4240.35 120.746 4245.17 120.043C4249.99 119.34 4254.29 117.523 4258.55 115.27C4267.1 110.746 4275.41 104.518 4287.55 101.589C4311.95 95.7005 4396.42 83.5398 4454.5 89.6855C4469.05 91.2253 4485.29 92.2898 4502.19 93.3457C4519.08 94.4019 4536.63 95.4494 4553.8 96.9551C4588.17 99.9679 4620.97 104.81 4644.02 115.183C4655.55 120.37 4664.1 126.001 4671.8 131.164C4679.49 136.322 4686.36 141.035 4694.46 144.322C4710.72 150.913 4731.85 151.741 4774.64 139.48L4774.66 139.474L4774.68 139.465C4808.98 125.945 4832.78 114.049 4861.34 108.97C4889.86 103.897 4923.15 105.628 4976.33 119.472C5008.77 134.037 5045.8 124.67 5078.67 113.578C5095.14 108.017 5110.55 102.032 5123.91 98.335C5137.3 94.633 5148.45 93.2851 5156.44 96.8506C5189.16 111.457 5214.01 117.304 5250.42 115.174C5286.78 113.046 5334.67 102.959 5378.96 89.8418C5389.92 86.5968 5404.25 87.1384 5420.77 89.6621C5437.27 92.1842 5455.88 96.6731 5475.37 101.272C5514.31 110.462 5556.78 120.096 5592.64 115.17C5607.56 113.12 5622.48 110.331 5637.09 107.611C5651.7 104.891 5665.99 102.24 5679.68 100.464C5707.1 96.9072 5732.11 93.8906 5765.11 91.3887C5781.61 90.1374 5800.08 89.0164 5817.52 89.6348C5834.97 90.2534 5851.34 92.6119 5863.65 98.2861C5875.96 103.959 5884.25 112.954 5892.37 120.76C5900.46 128.542 5908.4 135.157 5919.92 135.715C5925.65 135.993 5932.24 134.764 5939.46 132.7C5946.68 130.635 5954.57 127.721 5962.89 124.604C5979.56 118.362 5998.02 111.3 6016.67 108.474C6035.32 105.647 6054.19 107.051 6071.45 108.599C6088.68 110.143 6104.38 111.841 6116.55 109.538C6128.76 107.23 6137.43 100.903 6146.32 95.7041C6155.22 90.4998 6164.41 86.3647 6177.8 88.1807C6191.27 90.0065 6209 97.8408 6227.63 106.269C6246.21 114.677 6265.65 123.663 6282.43 127.69C6299.29 131.735 6311.5 128.889 6323.31 124.521C6335.12 120.149 6346.42 114.309 6361.65 112.212C6386.2 108.832 6410.62 105.585 6431.72 110.711C6442.28 113.277 6451.99 117.958 6462.13 121.954C6472.25 125.94 6482.75 129.218 6494.74 128.869C6506.71 128.521 6520.15 124.558 6533.78 120.814C6547.45 117.061 6561.33 113.521 6574.3 113.927C6587.27 114.332 6599.36 118.68 6610.9 123.434C6622.4 128.174 6633.38 133.338 6644 135.265C6649.14 136.197 6653.66 139.148 6657.99 143.235C6662.33 147.326 6666.42 152.513 6670.72 157.873C6679.3 168.552 6688.67 179.917 6702.19 183.996L6702.27 184.021L6702.36 184.016C6705.64 183.807 6710.5 184.843 6716.58 186.868C6722.65 188.888 6729.87 191.87 6737.86 195.506C6753.83 202.777 6772.8 212.64 6791.58 222.575C6810.35 232.507 6828.93 242.514 6844.09 250.059C6851.67 253.831 6858.4 256.993 6863.88 259.226C6866.6 260.33 6869.02 261.214 6871.1 261.831H74.7695C88.4931 245.791 97.8932 229.82 105.71 215.019C113.672 199.943 119.963 186.147 127.526 174.663C135.074 163.203 143.85 154.109 156.724 148.467C169.602 142.823 186.636 140.607 210.743 143.012C376.463 182.904 458.247 149.552 517.6 143.014C547.331 139.739 579.088 135.042 610.156 130.537C641.23 126.031 671.614 121.717 698.619 119.199L698.651 119.196L698.684 119.188C713.111 115.921 730.88 117.635 748.321 121.833C765.753 126.028 782.805 132.692 795.773 139.273C801.073 141.964 809.169 143.313 818.737 143.748C828.323 144.184 839.452 143.705 850.864 142.697C873.689 140.682 897.69 136.548 912.824 133.351L912.833 133.349C929.613 129.489 949.052 120.879 967.632 112.821C986.252 104.746 1003.98 97.2393 1017.45 95.4893C1030.85 93.7482 1040.05 97.7126 1048.95 102.699C1057.84 107.682 1066.52 113.743 1078.72 115.954C1090.89 118.161 1106.59 116.534 1123.81 115.054C1141.08 113.57 1159.95 112.225 1178.6 114.934C1197.25 117.643 1215.71 124.411 1232.38 130.392C1240.71 133.379 1248.6 136.171 1255.82 138.149C1263.03 140.127 1269.62 141.303 1275.35 141.037H1275.35C1286.86 140.502 1294.79 134.168 1302.88 126.709C1311 119.23 1319.29 110.61 1331.6 105.174C1343.92 99.7354 1360.29 97.4747 1377.75 96.8818C1395.19 96.2893 1413.67 97.3635 1430.16 98.5625C1463.15 100.96 1488.17 103.85 1515.59 107.259L1515.66 107.269L1515.74 107.256C1528.9 104.985 1543.19 108.688 1557.89 112.382C1572.54 116.063 1587.59 119.729 1602.11 117.2L1602.17 117.19L1602.22 117.165C1612.65 112.55 1630.76 110.584 1652.66 110.438C1674.54 110.293 1700.1 111.963 1725.38 114.569C1775.97 119.783 1825.32 128.735 1841.59 134.357C1874.31 145.661 1899.14 150.182 1935.52 148.534C1971.88 146.888 2019.77 139.082 2064.05 128.93C2086.19 123.856 2131.94 111.577 2181.51 99.585C2231.11 87.5858 2284.57 75.8651 2322.23 71.8789L2322.24 71.8779L2322.25 71.877C2349.41 67.9923 2375.76 71.4412 2402.62 76.54C2429.46 81.6348 2456.85 88.3858 2485.95 91.0498C2500.58 92.3884 2520.21 89.2174 2542.11 84.0215C2564.02 78.8229 2588.26 71.5803 2612.1 64.7412C2635.95 57.8991 2659.4 51.4607 2679.78 47.8564Z" stroke="white"/>
</g>
<g clip-path="url(#clip4_10119_45312)">
<path d="M6868.66 260.831C6791.05 271.381 6732.55 289.967 6687.87 307.447C6664.81 316.468 6645.43 325.195 6629.03 332.364C6612.61 339.539 6599.19 345.143 6588.01 347.946H6588.01C6543.15 359.194 6491.89 359.953 6432.39 365.747C6402.66 368.642 6370.91 372.794 6339.84 376.776C6308.76 380.76 6278.38 384.575 6251.37 386.801L6251.34 386.803L6251.31 386.809C6244.03 388.266 6235.62 390.386 6226.72 392.558C6217.81 394.731 6208.39 396.958 6199.08 398.64C6180.42 402.008 6162.28 403.159 6149.43 397.395C6144.14 395.02 6136.06 393.829 6126.49 393.444C6116.91 393.059 6105.78 393.483 6094.37 394.373C6071.55 396.154 6047.55 399.809 6032.42 402.635L6032.41 402.636C6015.64 406.046 5996.2 413.656 5977.62 420.779C5959.01 427.917 5941.27 434.557 5927.78 436.104C5914.36 437.646 5905.16 434.135 5896.26 429.727C5887.36 425.32 5878.69 419.966 5866.51 418.014C5854.34 416.065 5838.66 417.501 5821.42 418.81C5804.16 420.121 5785.28 421.31 5766.62 418.915C5747.97 416.519 5729.5 410.535 5712.83 405.249C5704.51 402.608 5696.62 400.141 5689.41 398.393C5682.64 396.754 5676.43 395.739 5670.96 395.812L5669.88 395.842C5658.4 396.313 5650.47 401.903 5642.37 408.502C5634.26 415.112 5625.96 422.733 5613.65 427.54C5607.6 429.902 5602.75 429.159 5597.86 426.836C5595.4 425.668 5592.93 424.099 5590.28 422.313C5587.64 420.534 5584.82 418.533 5581.71 416.535C5569.2 408.509 5551.78 400.435 5519.76 405.039C5486.8 402.92 5461.8 400.367 5434.39 397.354L5434.33 397.347L5434.26 397.356C5421.08 399.366 5406.78 396.09 5392.08 392.825C5377.42 389.57 5362.38 386.332 5347.88 388.565L5347.83 388.574L5347.78 388.595C5326.75 396.821 5289.63 407.189 5253.68 414.254C5235.7 417.786 5218.03 420.489 5202.82 421.688C5187.59 422.887 5174.89 422.571 5166.83 420.106C5150.51 415.123 5125.75 406.872 5100.54 400.054C5075.34 393.238 5049.62 387.83 5031.38 388.561C4995.05 390.015 4938.11 396.074 4893.8 405.052C4871.7 409.53 4824.07 413.661 4772.49 417.556C4720.93 421.448 4665.46 425.102 4627.75 428.63L4627.74 428.632C4600.52 432.073 4579.4 432.065 4559.86 426.472C4540.32 420.88 4522.3 409.692 4501.34 390.686L4501.29 390.646L4501.24 390.618C4427.73 350.084 4384.32 332.292 4351.33 324.645C4318.34 316.999 4295.75 319.497 4264.03 319.499C4250.65 317.741 4236 321.85 4220.7 328.756C4205.38 335.669 4189.34 345.423 4173.21 355.012C4157.07 364.609 4140.83 374.046 4125.05 380.369C4109.28 386.693 4094.02 389.88 4079.85 387.04L4079.8 387.03H4079.75C4039.81 387.03 3985.59 399.076 3936.51 409.633C3911.96 414.915 3888.7 419.826 3869.12 422.684C3859.33 424.112 3850.47 425.026 3842.85 425.218C3835.21 425.41 3828.85 424.877 3824.01 423.433C3804.43 417.575 3769.96 405.951 3734.99 396.023C3700.03 386.098 3664.42 377.824 3642.52 378.683C3598.86 380.394 3541.37 388.508 3488.17 399.063C3474.95 401.688 3457.31 401.481 3436.97 400.128C3416.64 398.775 3393.7 396.285 3369.83 394.361C3322.15 390.52 3270.89 388.949 3230.21 403.391C3208.15 407.264 3187.32 410.111 3167.03 413.48C3146.74 416.846 3128.25 419.701 3103.84 422.067C3091.63 423.252 3077.98 424.311 3065.09 423.727C3052.59 423.16 3040.87 421.05 3031.9 416.057L3031.04 415.564C3021.97 410.212 3015.85 401.72 3009.83 394.322C3003.87 386.978 2997.96 380.652 2989.34 380.118C2985.05 379.852 2980.14 381.026 2974.79 382.982C2969.44 384.94 2963.6 387.702 2957.44 390.651C2945.1 396.562 2931.46 403.232 2917.7 405.901C2903.93 408.57 2890.01 407.245 2877.23 405.78C2870.86 405.049 2864.76 404.282 2859.13 403.97C2853.51 403.657 2848.33 403.797 2843.79 404.896C2834.71 407.092 2828.26 413.113 2821.7 418.018C2815.12 422.94 2808.38 426.809 2798.56 425.105C2793.61 424.248 2787.86 421.976 2781.61 418.906C2775.36 415.839 2768.64 411.993 2761.76 408.01C2748.02 400.057 2733.62 391.539 2721.18 387.72C2708.65 383.873 2700 386.274 2691.46 390.27C2682.91 394.266 2674.59 399.776 2662.45 402.366C2638.05 407.572 2553.57 418.323 2495.48 412.891C2437.39 407.457 2375.61 388.627 2329.38 370.23C2306.11 360.975 2285.54 363.028 2264.99 366.348C2244.43 369.67 2223.93 374.248 2200.61 370.202C2153.65 362.055 2084.2 374.684 2025.2 390.374L2025.14 390.39L2025.09 390.421C2014.6 396.288 1996.94 401.048 1975.77 404.678C1954.61 408.304 1930.02 410.793 1905.72 412.14C1881.41 413.487 1857.42 413.692 1837.46 412.757C1817.47 411.82 1801.61 409.741 1793.53 406.553C1760.81 393.642 1735.97 388.475 1699.57 390.357C1663.21 392.239 1615.32 401.154 1571.03 412.749C1560.06 415.621 1545.72 415.141 1529.2 412.91C1512.7 410.68 1494.08 406.712 1474.59 402.646C1435.65 394.522 1393.2 386.007 1357.35 390.36C1342.43 392.172 1327.51 394.639 1312.91 397.043C1298.3 399.448 1284 401.79 1270.3 403.361C1242.89 406.505 1217.88 409.173 1184.89 411.384C1168.38 412.49 1149.91 413.481 1132.46 412.935C1115.01 412.388 1098.63 410.302 1086.31 405.283C1074 400.268 1065.7 392.315 1057.59 385.416C1049.49 378.531 1041.56 372.693 1030.07 372.201C1024.34 371.956 1017.76 373.039 1010.54 374.863C1003.32 376.688 995.438 379.264 987.111 382.02C970.442 387.537 951.98 393.781 933.32 396.281C914.665 398.78 895.793 397.538 878.527 396.17C861.295 394.804 845.608 393.305 833.439 395.34C821.248 397.378 812.579 402.967 803.684 407.564C794.783 412.165 785.582 415.827 772.167 414.22C758.691 412.604 740.954 405.676 722.335 398.228C703.754 390.794 684.319 382.852 667.542 379.293C650.702 375.72 638.499 378.233 626.695 382.094C614.885 385.956 603.576 391.121 588.34 392.976C563.795 395.963 539.358 398.836 518.248 394.302C507.684 392.033 497.97 387.893 487.831 384.361C477.714 380.838 467.227 377.944 455.243 378.252C443.283 378.56 429.852 382.061 416.217 385.371C402.55 388.689 388.661 391.82 375.678 391.461C369.197 391.282 356.99 389.267 341.951 386.275C326.928 383.287 309.121 379.334 291.468 375.298C256.183 367.23 221.469 358.815 210.902 357.119C200.567 355.461 196.452 349.867 189.67 341.999C182.882 334.124 173.542 324.146 152.801 314.074L152.684 314.018L152.554 314.024C145.953 314.395 139.028 311.299 131.986 306.338C124.953 301.382 117.879 294.62 110.984 287.771C104.104 280.936 97.3958 274.007 91.1367 268.773C88.0048 266.155 84.9682 263.946 82.0615 262.38C80.909 261.759 79.7716 261.238 78.6533 260.831H6868.66Z" stroke="white"/>
</g>
</g>
<mask id="path-5-inside-1_10119_45312" fill="white">
<path d="M616.111 170.961C663.657 165 764.842 186.021 765.752 185.702C766.662 185.384 810.144 209.593 830.403 205.976C850.663 202.359 869.111 183.264 891.646 176.052C914.18 168.84 940.802 173.512 959.605 174.649C978.408 175.786 989.391 173.388 1010.57 170.441C1031.76 167.494 1063.14 163.998 1083.67 171.844C1104.2 179.69 1113.88 198.877 1135.03 196.157C1156.19 193.437 1188.81 168.81 1214.85 168.571C1240.88 168.332 1260.33 192.482 1279.25 199.43C1298.17 206.378 1316.57 196.125 1334.96 185.871C1338.26 184.219 1344.43 182.418 1350.29 185.454C1375.16 195.707 1400.02 205.961 1425.59 199.013C1451.17 192.065 1477.45 167.915 1512.64 168.154C1547.83 168.393 1591.92 193.02 1620.51 195.74C1649.1 198.46 1662.19 179.273 1689.94 171.427C1717.69 163.581 1760.1 167.077 1788.74 170.024C1817.37 172.971 1832.21 175.369 1857.63 174.232C1883.04 173.095 1919.02 168.423 1949.48 175.635C1979.94 182.847 2004.87 201.942 2032.25 205.559C2059.64 209.176 2089.47 197.315 2119.3 185.454L2119.32 185.447C2164.2 172.219 2209.29 158.925 2257.11 169.372C2305.01 179.837 2374.02 104.338 2438 121.17C2501.98 138.002 2538.91 107.568 2596 109.632C2653.09 111.697 2704.9 125.031 2736 121.17C2783.51 104.07 2843.07 186.327 2878.84 176.628C2914.61 166.93 2938.63 164.632 2971.65 164.602C3004.67 164.571 3046.68 166.806 3085.56 170.916C3124.43 175.025 3160.17 181.008 3193.37 179.034C3226.57 177.06 3257.23 167.13 3295.09 172.72C3353.8 217.849 3412.52 189.75 3464.76 205.192C3517 220.635 3562.77 206.391 3621.01 205.421C3679.24 204.45 3655.21 168.693 3718 153.251C3780.79 137.808 3884 164.602 3972 164.602C4007.77 154.903 4254.98 153.282 4288 153.251C4321.02 153.22 4413.12 129.898 4452 134.007C4490.88 138.117 4572 146.836 4602 153.251C4632 159.665 4622.46 200.394 4660.31 205.984C4690.53 209.273 4720.71 216.396 4742.81 216.435C4764.91 216.475 4778.9 213.265 4796.36 208.242C4813.83 203.218 4834.78 196.38 4862.69 195.321C4890.6 194.261 4925.47 198.98 4947.69 199.417C4969.9 199.855 4979.45 196.01 5003.7 202.254C5027.94 208.498 5066.87 224.831 5094.1 223.999C5121.32 223.167 5136.83 205.169 5158.46 200.993C5180.08 196.817 5207.82 206.463 5233.63 212.969C5259.44 219.475 5283.33 222.841 5305.36 221.793C5327.39 220.744 5350.05 207.839 5367.76 209.817C5370.58 210.497 5465.97 152.202 5488 153.251H5571C5571 153.251 5627 140.501 5654 153.251C5681 166 5780.66 232 5875 227C5892.47 232.024 5970.6 216.478 5992.7 216.438C6014.5 216.399 6044.16 213.17 6073.95 209.926L6075.22 209.789C6110.98 198.984 6265.82 197.015 6298.84 196.98C6331.86 196.946 6373.87 199.437 6412.75 204.015C6451.62 208.592 6487.36 215.257 6520.56 213.058C6553.76 210.86 6584.42 199.798 6622.28 206.024C6660.13 212.251 6705.19 235.767 6750.24 259.282C6750.24 259.282 6576.08 294.863 6553.8 312.729C6531.51 330.596 6439.64 318.612 6389.66 330.386C6339.68 342.16 6295.76 372.382 6248.21 380.568C6200.67 388.754 6099.48 359.889 6098.57 360.326C6097.66 360.763 6054.18 327.52 6033.92 332.487C6013.66 337.454 5995.21 363.675 5972.68 373.577C5950.15 383.48 5923.52 377.064 5904.72 375.503C5885.92 373.942 5874.93 377.235 5853.75 381.281C5832.57 385.328 5801.19 390.129 5780.66 379.355C5760.12 368.582 5750.44 342.235 5729.29 345.97C5708.14 349.705 5675.51 383.522 5649.48 383.85C5623.44 384.177 5604 351.016 5585.08 341.476C5566.15 331.935 5547.76 346.015 5529.36 360.094C5526.06 362.363 5519.9 364.835 5514.03 360.667C5489.17 346.587 5464.31 332.508 5438.73 342.048C5413.16 351.589 5386.88 384.75 5351.69 384.422C5316.5 384.095 5272.4 350.278 5243.81 346.543C5215.22 342.808 5202.14 369.155 5174.39 379.928C5146.64 390.702 5104.22 385.901 5075.59 381.854C5046.96 377.808 5032.11 374.515 5006.7 376.076C4981.29 377.637 4945.3 384.053 4914.85 374.15C4884.39 364.247 4859.45 338.027 4832.07 333.06C4804.69 328.093 4774.85 344.38 4745.02 360.667L4745 360.676C4700.13 378.841 4655.04 397.095 4607.22 382.75C4559.31 368.379 4508.45 321.442 4444.47 298.33C4380.49 275.218 4303.38 275.93 4246.29 273.096C4189.2 270.261 4146.15 307.204 4115.05 312.506C4067.54 335.987 4021.25 359.468 3985.48 372.786C3949.72 386.103 3925.69 389.258 3892.67 389.3C3859.65 389.343 3817.64 386.273 3778.77 380.63C3739.89 374.988 3704.15 366.773 3670.95 369.483C3637.75 372.193 3621.9 389.806 3569.24 378.153C3471.94 328.191 3451.81 354.768 3399.57 333.563C3347.32 312.358 3301.55 331.917 3243.32 333.25C3185.08 334.582 3114.39 317.688 3051.6 338.892C2988.81 360.097 2933.93 309.711 2879.05 369.016C2843.29 382.333 2688.48 336.023 2655.46 336.065C2622.44 336.108 2580.43 333.038 2541.55 327.395C2502.68 321.753 2466.94 313.538 2433.74 316.248C2400.54 318.958 2241.87 340.152 2204.01 332.477C2173.79 327.96 2143.62 318.18 2121.51 318.125C2099.41 318.071 2085.43 322.478 2067.96 329.376C2050.49 336.275 2029.55 345.664 2001.63 347.119C1973.72 348.573 1938.85 342.093 1916.64 341.493C1894.43 340.893 1884.87 346.172 1860.63 337.598C1836.39 329.024 1797.45 306.597 1770.23 307.739C1743 308.882 1727.49 333.595 1705.87 339.329C1684.24 345.064 1465.81 384.123 1440 375.189C1418.38 369.455 1250.13 308.879 1222.91 307.736C1195.69 306.593 1156.75 329.021 1132.51 337.595C1108.27 346.169 1098.71 340.889 1076.5 341.49C1054.29 342.09 1019.41 348.57 991.503 347.115C963.592 345.661 942.643 336.271 925.176 329.373C907.709 322.475 893.725 318.067 871.624 318.122C849.831 318.176 820.17 322.609 790.375 327.063H790.373L789.11 327.252C753.343 342.088 598.505 344.792 565.486 344.839C532.467 344.887 490.455 341.467 451.58 335.181C412.705 328.895 376.967 319.743 343.768 322.762C310.569 325.781 279.907 340.971 242.049 332.421C204.191 323.871 159.136 291.581 114.081 259.29C114.081 259.29 250.566 223.498 310.528 220.365C370.49 217.232 424.687 216.081 474.667 207.506C524.647 198.932 568.566 176.922 616.111 170.961Z"/>
</mask>
<path d="M616.111 170.961C663.657 165 764.842 186.021 765.752 185.702C766.662 185.384 810.144 209.593 830.403 205.976C850.663 202.359 869.111 183.264 891.646 176.052C914.18 168.84 940.802 173.512 959.605 174.649C978.408 175.786 989.391 173.388 1010.57 170.441C1031.76 167.494 1063.14 163.998 1083.67 171.844C1104.2 179.69 1113.88 198.877 1135.03 196.157C1156.19 193.437 1188.81 168.81 1214.85 168.571C1240.88 168.332 1260.33 192.482 1279.25 199.43C1298.17 206.378 1316.57 196.125 1334.96 185.871C1338.26 184.219 1344.43 182.418 1350.29 185.454C1375.16 195.707 1400.02 205.961 1425.59 199.013C1451.17 192.065 1477.45 167.915 1512.64 168.154C1547.83 168.393 1591.92 193.02 1620.51 195.74C1649.1 198.46 1662.19 179.273 1689.94 171.427C1717.69 163.581 1760.1 167.077 1788.74 170.024C1817.37 172.971 1832.21 175.369 1857.63 174.232C1883.04 173.095 1919.02 168.423 1949.48 175.635C1979.94 182.847 2004.87 201.942 2032.25 205.559C2059.64 209.176 2089.47 197.315 2119.3 185.454L2119.32 185.447C2164.2 172.219 2209.29 158.925 2257.11 169.372C2305.01 179.837 2374.02 104.338 2438 121.17C2501.98 138.002 2538.91 107.568 2596 109.632C2653.09 111.697 2704.9 125.031 2736 121.17C2783.51 104.07 2843.07 186.327 2878.84 176.628C2914.61 166.93 2938.63 164.632 2971.65 164.602C3004.67 164.571 3046.68 166.806 3085.56 170.916C3124.43 175.025 3160.17 181.008 3193.37 179.034C3226.57 177.06 3257.23 167.13 3295.09 172.72C3353.8 217.849 3412.52 189.75 3464.76 205.192C3517 220.635 3562.77 206.391 3621.01 205.421C3679.24 204.45 3655.21 168.693 3718 153.251C3780.79 137.808 3884 164.602 3972 164.602C4007.77 154.903 4254.98 153.282 4288 153.251C4321.02 153.22 4413.12 129.898 4452 134.007C4490.88 138.117 4572 146.836 4602 153.251C4632 159.665 4622.46 200.394 4660.31 205.984C4690.53 209.273 4720.71 216.396 4742.81 216.435C4764.91 216.475 4778.9 213.265 4796.36 208.242C4813.83 203.218 4834.78 196.38 4862.69 195.321C4890.6 194.261 4925.47 198.98 4947.69 199.417C4969.9 199.855 4979.45 196.01 5003.7 202.254C5027.94 208.498 5066.87 224.831 5094.1 223.999C5121.32 223.167 5136.83 205.169 5158.46 200.993C5180.08 196.817 5207.82 206.463 5233.63 212.969C5259.44 219.475 5283.33 222.841 5305.36 221.793C5327.39 220.744 5350.05 207.839 5367.76 209.817C5370.58 210.497 5465.97 152.202 5488 153.251H5571C5571 153.251 5627 140.501 5654 153.251C5681 166 5780.66 232 5875 227C5892.47 232.024 5970.6 216.478 5992.7 216.438C6014.5 216.399 6044.16 213.17 6073.95 209.926L6075.22 209.789C6110.98 198.984 6265.82 197.015 6298.84 196.98C6331.86 196.946 6373.87 199.437 6412.75 204.015C6451.62 208.592 6487.36 215.257 6520.56 213.058C6553.76 210.86 6584.42 199.798 6622.28 206.024C6660.13 212.251 6705.19 235.767 6750.24 259.282C6750.24 259.282 6576.08 294.863 6553.8 312.729C6531.51 330.596 6439.64 318.612 6389.66 330.386C6339.68 342.16 6295.76 372.382 6248.21 380.568C6200.67 388.754 6099.48 359.889 6098.57 360.326C6097.66 360.763 6054.18 327.52 6033.92 332.487C6013.66 337.454 5995.21 363.675 5972.68 373.577C5950.15 383.48 5923.52 377.064 5904.72 375.503C5885.92 373.942 5874.93 377.235 5853.75 381.281C5832.57 385.328 5801.19 390.129 5780.66 379.355C5760.12 368.582 5750.44 342.235 5729.29 345.97C5708.14 349.705 5675.51 383.522 5649.48 383.85C5623.44 384.177 5604 351.016 5585.08 341.476C5566.15 331.935 5547.76 346.015 5529.36 360.094C5526.06 362.363 5519.9 364.835 5514.03 360.667C5489.17 346.587 5464.31 332.508 5438.73 342.048C5413.16 351.589 5386.88 384.75 5351.69 384.422C5316.5 384.095 5272.4 350.278 5243.81 346.543C5215.22 342.808 5202.14 369.155 5174.39 379.928C5146.64 390.702 5104.22 385.901 5075.59 381.854C5046.96 377.808 5032.11 374.515 5006.7 376.076C4981.29 377.637 4945.3 384.053 4914.85 374.15C4884.39 364.247 4859.45 338.027 4832.07 333.06C4804.69 328.093 4774.85 344.38 4745.02 360.667L4745 360.676C4700.13 378.841 4655.04 397.095 4607.22 382.75C4559.31 368.379 4508.45 321.442 4444.47 298.33C4380.49 275.218 4303.38 275.93 4246.29 273.096C4189.2 270.261 4146.15 307.204 4115.05 312.506C4067.54 335.987 4021.25 359.468 3985.48 372.786C3949.72 386.103 3925.69 389.258 3892.67 389.3C3859.65 389.343 3817.64 386.273 3778.77 380.63C3739.89 374.988 3704.15 366.773 3670.95 369.483C3637.75 372.193 3621.9 389.806 3569.24 378.153C3471.94 328.191 3451.81 354.768 3399.57 333.563C3347.32 312.358 3301.55 331.917 3243.32 333.25C3185.08 334.582 3114.39 317.688 3051.6 338.892C2988.81 360.097 2933.93 309.711 2879.05 369.016C2843.29 382.333 2688.48 336.023 2655.46 336.065C2622.44 336.108 2580.43 333.038 2541.55 327.395C2502.68 321.753 2466.94 313.538 2433.74 316.248C2400.54 318.958 2241.87 340.152 2204.01 332.477C2173.79 327.96 2143.62 318.18 2121.51 318.125C2099.41 318.071 2085.43 322.478 2067.96 329.376C2050.49 336.275 2029.55 345.664 2001.63 347.119C1973.72 348.573 1938.85 342.093 1916.64 341.493C1894.43 340.893 1884.87 346.172 1860.63 337.598C1836.39 329.024 1797.45 306.597 1770.23 307.739C1743 308.882 1727.49 333.595 1705.87 339.329C1684.24 345.064 1465.81 384.123 1440 375.189C1418.38 369.455 1250.13 308.879 1222.91 307.736C1195.69 306.593 1156.75 329.021 1132.51 337.595C1108.27 346.169 1098.71 340.889 1076.5 341.49C1054.29 342.09 1019.41 348.57 991.503 347.115C963.592 345.661 942.643 336.271 925.176 329.373C907.709 322.475 893.725 318.067 871.624 318.122C849.831 318.176 820.17 322.609 790.375 327.063H790.373L789.11 327.252C753.343 342.088 598.505 344.792 565.486 344.839C532.467 344.887 490.455 341.467 451.58 335.181C412.705 328.895 376.967 319.743 343.768 322.762C310.569 325.781 279.907 340.971 242.049 332.421C204.191 323.871 159.136 291.581 114.081 259.29C114.081 259.29 250.566 223.498 310.528 220.365C370.49 217.232 424.687 216.081 474.667 207.506C524.647 198.932 568.566 176.922 616.111 170.961Z" stroke="white" stroke-width="2" mask="url(#path-5-inside-1_10119_45312)"/>
</g>
<defs>
<clipPath id="clip0_10119_45312">
<rect width="6899" height="520" fill="white"/>
</clipPath>
<clipPath id="clip1_10119_45312">
<rect width="6898.08" height="260.997" fill="white" transform="translate(0.802734 0.335938)"/>
</clipPath>
<clipPath id="clip2_10119_45312">
<rect width="6898.08" height="260.997" fill="white" transform="translate(0.802734 258.802)"/>
</clipPath>
<clipPath id="clip3_10119_45312">
<rect width="6802.62" height="217.954" fill="white" transform="translate(73.6836 43.377)"/>
</clipPath>
<clipPath id="clip4_10119_45312">
<rect width="6802.62" height="176.642" fill="white" transform="translate(73.6836 261.331)"/>
</clipPath>
</defs>
</svg>
