<svg width="6899" height="520" viewBox="0 0 6899 520" fill="none" xmlns="http://www.w3.org/2000/svg">
<g clip-path="url(#clip0_10120_45336)">
<g opacity="0.4">
<g clip-path="url(#clip1_10120_45336)">
<path d="M740.067 10.4619C761.92 6.53726 780.95 13.4354 805.932 22.1006C830.802 30.7272 860.934 40.8091 904.11 42.1602L904.184 42.1621L904.257 42.1611C929.805 41.7157 955.345 41.5439 975.696 41.6982C996.042 41.8525 1011.15 42.6048 1031.35 43.1709C1051.48 43.7353 1076.74 44.1174 1101.35 40.9365C1107.5 40.1425 1113.61 39.1254 1119.53 38.1934C1125.47 37.2568 1131.24 36.4026 1136.83 35.9033C1148.04 34.9029 1158.26 35.36 1167.35 39.2461H1167.35C1176.61 43.2 1184.9 50.7287 1193.84 58.1426C1202.51 65.3377 1211.86 72.4807 1222.62 74.0859C1233.38 75.6912 1244.98 71.6881 1256.19 66.6348C1261.84 64.0883 1267.59 61.1771 1273.18 58.4453C1278.82 55.6929 1284.34 53.1014 1289.71 51.0859C1310.39 43.3208 1329.41 43.9014 1348.03 46.5596L1349.84 46.8232C1368.86 49.6708 1388.12 54.6403 1408.82 54.2236C1419.16 54.0155 1432.57 52.5789 1444.67 51.2324C1456.94 49.8673 1467.68 48.622 1473.08 48.6875C1478.55 48.7537 1493.2 50.4524 1510.28 52.2314C1527.18 53.9921 1546.26 55.8038 1560.17 56.0098C1587.93 56.4207 1613.62 51.5269 1639.58 48.6699C1665.68 45.7971 1692.5 44.8972 1721.76 52.9736C1736.61 57.0713 1751.71 63.334 1767.16 68.4541C1782.33 73.4801 1797.58 77.2945 1811.54 75.7627C1825.54 74.2265 1837.88 67.351 1849.68 60.1514C1861.29 53.0712 1872.34 45.7102 1884.62 41.6143L1885.81 41.2275C1912.02 32.9901 1943.5 26.2032 1975.86 29.2773C2008.97 32.4236 2042.99 32.0472 2070.19 31.4863C2097.44 30.9247 2117.92 30.1759 2145.44 30.0225C2159.25 29.9454 2176.51 28.0672 2193.25 27.2637C2210.25 26.4472 2227.12 26.6958 2241.27 30.6445C2256.08 34.7742 2290.04 41.9112 2327.17 47.8848C2364.26 53.8548 2404.81 58.7112 2432.71 58.1943C2460.54 57.6785 2479.66 54.5358 2497.82 51.4385C2515.94 48.3482 2533.04 45.3183 2557.12 44.8994C2582.43 44.4593 2595.94 33.5243 2608.58 25.9717C2614.89 22.1971 2620.94 19.2702 2628.29 18.4092C2635.63 17.5494 2644.58 18.718 2656.7 23.7197C2682.06 34.1959 2711.02 37.5305 2741.99 40.2314C2773.09 42.9432 2806.33 45.0214 2840.9 52.8037L2841.02 52.8311L2841.15 52.8486L2841.76 52.9316V52.9326C2871.28 57.023 2901.48 61.2123 2929.04 61.5098C2956.74 61.8087 2982.31 58.2502 3008.35 56.1602C3034.5 54.0615 3061.44 53.3973 3090.83 59.3145C3105.68 62.3055 3120.88 66.8952 3136.26 70.6123C3150.95 74.1634 3165.59 76.8484 3179.01 76.0107L3180.31 75.9189C3194.13 74.813 3206.36 69.8547 3218.19 64.5908C3230.14 59.2757 3241.6 53.6947 3254.43 50.7529C3267.23 47.8204 3281.5 47.5031 3296.82 48.2363C3312.24 48.9741 3328.2 50.7346 3344.87 51.8896C3377.94 54.1808 3411.91 53.9079 3439.12 53.499C3466.36 53.0896 3486.85 52.5426 3514.38 52.4307C3541.76 52.3193 3569.06 52.4311 3609.64 68.9971C3629.45 80.634 3650.56 91.3593 3672.87 84.3691C3683.91 80.9095 3695.08 72.6848 3706.2 64.7734C3717.55 56.705 3729.05 48.8026 3741.3 45.0146C3753.48 41.2462 3766.68 41.4882 3779.42 43.0391C3785.78 43.813 3791.96 44.904 3797.82 45.957C3803.63 47.0032 3809.18 48.0234 3814.11 48.6143C3824.06 49.8054 3831.52 49.249 3839.42 48.8818C3847.3 48.5162 3855.86 48.3174 3868.42 50.1006C3881.13 51.9045 3897.81 55.7084 3914.59 59.0703C3931.21 62.3971 3947.96 65.2973 3960.3 65.0762C3972.89 64.8506 3980.84 61.3891 3987.92 58.3574C3994.89 55.3753 4000.87 52.8866 4010.18 53.6084C4019.88 54.3604 4033.07 58.5422 4047.26 62.5654C4061.14 66.5009 4075.91 70.2612 4087.93 69.5547C4100.14 68.8361 4109.27 63.5231 4117.66 58.7676C4126.16 53.9515 4133.88 49.7124 4144.02 49.6318C4154.4 49.5495 4167.57 53.7995 4181.75 59.0742C4195.68 64.2553 4210.5 70.3941 4223.46 73.4648C4249.79 79.7031 4268.72 73.4309 4286.97 67.417L4287.49 67.2441L4287.61 67.1504C4287.73 67.108 4287.92 67.0475 4288.19 66.9688C4289.19 66.6763 4291.17 66.1851 4294.94 65.4668C4302.44 64.0346 4316.82 61.7379 4344.22 58.3174C4371.99 57.898 4402.16 53.8503 4431.3 49.8516C4460.59 45.8312 4488.8 41.8705 4512.91 41.541C4560.96 40.8845 4592.72 54.629 4642.75 70.8633C4692.23 86.9143 4761.37 111.808 4829.15 73.7324C4865.74 58.8996 4911.53 50.8585 4941.43 57.8477C4956.3 61.3249 4968.48 69.3189 4981.67 76.6885C4994.52 83.8589 5008.12 90.2749 5025.11 89.7344L5025.92 89.7031C5043.03 88.9396 5063.28 81.0854 5082.51 73.1797C5102.06 65.1411 5120.5 57.0792 5134.81 55.0811C5148.71 53.1414 5158.71 56.9803 5168.99 62.4531C5179.21 67.8923 5190.14 75.2633 5204.84 79.1475C5219.56 83.0358 5238.06 83.4793 5257.19 82.6172C5276.33 81.7543 5296.5 79.5566 5314.47 78.0293C5350.52 74.967 5378.82 74.4922 5407.2 74.0166C5425.62 73.7079 5435.61 78.3756 5443.85 82.4268C5447.97 84.4538 5452.02 86.5276 5456.44 87.5928C5461.01 88.6912 5465.89 88.7137 5471.87 86.9521C5483.4 83.554 5495.07 75.4675 5506.75 67.6553C5518.64 59.7038 5530.71 51.8901 5543.59 48.1416C5556.42 44.408 5570.3 44.6521 5583.68 46.1836C5590.36 46.948 5596.84 48.024 5602.98 49.0625C5609.08 50.0949 5614.88 51.0992 5620.04 51.6807C5630.44 52.8518 5638.23 52.3058 5646.52 51.9434C5654.79 51.5822 5663.79 51.3853 5676.97 53.1475C5690.3 54.928 5707.8 58.6832 5725.39 61.9961C5742.81 65.2778 5760.33 68.1305 5773.23 67.9131C5786.36 67.6917 5794.64 64.2979 5802.06 61.3086C5809.37 58.368 5815.69 55.8875 5825.53 56.6055C5835.74 57.35 5849.61 61.487 5864.46 65.4482C5879.02 69.332 5894.45 73.0232 5906.98 72.3301C5919.7 71.626 5929.22 66.4205 5938.02 61.7236C5946.92 56.9809 5955.07 52.7627 5965.79 52.6826C5976.74 52.601 5990.59 56.8137 6005.44 62.0117C6020.06 67.1269 6035.56 73.1702 6049.13 76.1934C6061.87 79.0336 6067.81 83.6438 6074.59 87.8857C6078.03 90.0354 6081.69 92.0893 6086.44 93.5811C6091.19 95.0714 6096.89 95.96 6104.41 95.96H6104.81L6105.19 95.8564C6121.03 91.5922 6134.15 88.9357 6146.12 86.5273C6157.32 84.2733 6167.56 82.225 6177.97 79.2734L6180.06 78.6709C6191.35 75.3402 6202.68 69.5091 6214.26 63.7031C6225.93 57.8482 6237.98 51.9531 6251.08 48.1416C6263.91 44.408 6277.79 44.6521 6291.17 46.1836C6297.84 46.948 6304.33 48.024 6310.46 49.0625C6316.56 50.0949 6322.37 51.0992 6327.53 51.6807C6337.93 52.8518 6345.71 52.3058 6354.01 51.9434C6362.28 51.5823 6371.27 51.3853 6384.46 53.1475C6397.79 54.928 6415.29 58.6832 6432.87 61.9961C6450.29 65.2779 6467.81 68.1306 6480.71 67.9131C6493.84 67.6917 6502.12 64.2979 6509.54 61.3086C6516.85 58.368 6523.17 55.8875 6533.01 56.6055C6543.22 57.3499 6557.09 61.4869 6571.94 65.4482C6586.5 69.332 6601.94 73.0233 6614.47 72.3301C6625.03 71.7454 6633.52 78.0379 6642.92 87.1338C6651.97 95.8985 6661.81 107.256 6674.35 114.419C6700.15 137.076 6742.11 171.919 6784.49 203.107C6805.75 218.746 6827.14 233.491 6846.67 245.326C6859.43 253.06 6871.48 259.6 6882.23 264.333H19.4092C35.2495 257.55 45.4635 248.228 53.25 237.374C58.385 230.216 62.423 222.45 66.3154 214.512C70.2352 206.518 73.9855 198.399 78.6406 190.204C87.8739 173.95 100.569 157.597 124.391 143.312C148.263 128.998 183.474 116.664 237.883 108.788C308.731 107.73 340.891 119.402 361.88 128.838C372.299 133.522 380.683 138.04 389.634 140.001C398.864 142.023 408.641 141.372 422.311 136.41C448.696 126.834 481.356 118.802 514.53 110.023C547.594 101.275 581.118 91.7957 608.822 79.3535C636.538 66.9061 658.391 51.5005 678.704 38.4043C699.107 25.2502 717.934 14.437 740.067 10.4619Z" stroke="url(#paint0_linear_10120_45336)" stroke-width="6"/>
</g>
<g clip-path="url(#clip2_10120_45336)">
<path d="M6880.47 256C6864.63 262.783 6854.42 272.105 6846.63 282.959C6841.5 290.117 6837.46 297.883 6833.57 305.821C6829.65 313.815 6825.9 321.934 6821.24 330.129C6812.01 346.383 6799.31 362.736 6775.49 377.021C6751.62 391.334 6716.41 403.667 6662 411.543C6591.16 412.602 6559 400.932 6538.01 391.495C6527.59 386.811 6519.2 382.292 6510.25 380.331C6501.02 378.309 6491.24 378.961 6477.57 383.922C6451.19 393.498 6418.53 401.53 6385.35 410.309C6352.29 419.057 6318.77 428.537 6291.06 440.979H6291.06C6263.34 453.427 6241.49 468.832 6221.18 481.928C6200.77 495.082 6181.95 505.895 6159.82 509.87C6137.96 513.795 6118.93 506.898 6093.95 498.232C6069.08 489.606 6038.95 479.524 5995.77 478.173L5995.7 478.17L5995.62 478.172C5970.08 478.618 5944.54 478.789 5924.19 478.635C5903.84 478.48 5888.73 477.728 5868.53 477.162C5848.4 476.598 5823.15 476.215 5798.52 479.396C5792.38 480.19 5786.27 481.208 5780.35 482.14C5774.41 483.076 5768.64 483.93 5763.05 484.43C5751.84 485.43 5741.62 484.973 5732.53 481.087C5723.28 477.133 5714.98 469.604 5706.04 462.19C5697.37 454.996 5688.02 447.852 5677.27 446.247H5677.27C5666.51 444.642 5654.91 448.644 5643.7 453.697C5638.05 456.244 5632.3 459.156 5626.71 461.888C5621.07 464.64 5615.55 467.231 5610.18 469.247C5588.83 477.262 5569.25 476.385 5550.04 473.51C5531.02 470.662 5511.75 465.692 5491.06 466.108C5480.72 466.317 5467.31 467.753 5455.21 469.1C5442.94 470.465 5432.2 471.711 5426.79 471.646C5421.33 471.579 5406.69 469.881 5389.61 468.102C5373.23 466.396 5354.82 464.642 5341.03 464.347L5339.71 464.322C5312.82 463.924 5287.88 468.506 5262.74 471.39L5260.31 471.663C5234.19 474.536 5207.38 475.436 5178.12 467.359C5163.28 463.262 5148.18 456.998 5132.73 451.878C5117.8 446.93 5102.79 443.158 5089.01 444.502L5088.35 444.57C5074.34 446.107 5062.01 452.981 5050.21 460.181C5038.22 467.489 5026.83 475.098 5014.08 479.104C4987.86 487.342 4956.39 494.13 4924.03 491.056H4924.03C4890.91 487.91 4856.9 488.286 4829.7 488.846C4802.44 489.408 4781.96 490.156 4754.44 490.31C4740.63 490.387 4723.37 492.266 4706.64 493.069C4689.64 493.886 4672.76 493.637 4658.6 489.688C4643.8 485.559 4609.83 478.422 4572.71 472.448C4535.62 466.478 4495.07 461.621 4467.18 462.139C4441.16 462.621 4423.45 443.911 4405.5 423.763C4396.68 413.861 4387.8 403.637 4378.04 395.996C4368.21 388.302 4357.23 383.018 4344.15 383.245C4318.84 383.686 4305.33 394.62 4292.69 402.173C4286.37 405.947 4280.33 408.875 4272.98 409.736C4265.64 410.596 4256.68 409.427 4244.57 404.425C4231.03 398.832 4216.66 401.537 4202.1 407.862C4187.57 414.177 4172.27 424.369 4156.69 434.48C4141 444.667 4124.93 454.836 4108.5 461.516C4092.11 468.18 4075.59 471.268 4058.99 467.529L4058.86 467.501L4058.74 467.484L4058.13 467.4H4058.13C4028.6 463.31 3998.4 459.121 3970.84 458.823C3943.15 458.524 3917.58 462.084 3891.54 464.173C3865.39 466.272 3838.45 466.935 3809.06 461.018C3794.2 458.027 3779.01 453.437 3763.63 449.72C3748.93 446.169 3734.3 443.483 3720.87 444.321L3719.58 444.413C3705.75 445.519 3693.52 450.477 3681.69 455.741C3669.74 461.056 3658.29 466.638 3645.45 469.58C3632.65 472.512 3618.38 472.83 3603.06 472.097C3587.64 471.359 3571.68 469.598 3555 468.443C3521.94 466.152 3487.97 466.425 3460.76 466.834C3433.52 467.243 3413.02 467.79 3385.5 467.902C3358.12 468.014 3330.83 467.9 3290.24 451.332C3270.43 439.696 3249.32 428.975 3227.01 435.964H3227.01C3215.97 439.424 3204.81 447.648 3193.68 455.56C3182.34 463.628 3170.84 471.53 3158.59 475.317V475.318C3146.4 479.087 3133.21 478.845 3120.47 477.294C3114.11 476.52 3107.93 475.429 3102.07 474.376C3096.26 473.33 3090.71 472.31 3085.77 471.719V471.718C3075.82 470.526 3068.36 471.084 3060.45 471.451C3052.58 471.817 3044.02 472.015 3031.46 470.231C3018.76 468.428 3002.08 464.624 2985.29 461.262C2968.67 457.935 2951.92 455.036 2939.57 455.258C2926.99 455.483 2919.05 458.944 2911.97 461.976C2905 464.958 2899.02 467.445 2889.71 466.724C2880.01 465.972 2866.81 461.791 2852.62 457.768C2838.74 453.832 2823.96 450.072 2811.95 450.778C2799.74 451.496 2790.61 456.81 2782.22 461.565C2773.73 466.382 2766.01 470.621 2755.86 470.701C2745.49 470.783 2732.32 466.533 2718.14 461.258C2704.21 456.077 2689.38 449.939 2676.42 446.868C2650.08 440.63 2631.16 446.902 2612.92 452.917L2612.39 453.089L2612.28 453.182C2612.16 453.224 2611.97 453.286 2611.7 453.364C2610.7 453.657 2608.71 454.148 2604.95 454.866C2597.44 456.298 2583.06 458.594 2555.66 462.015C2527.88 462.434 2497.72 466.483 2468.58 470.481C2439.28 474.502 2411.08 478.462 2386.97 478.791C2338.92 479.447 2307.16 465.704 2257.12 449.47C2207.66 433.418 2138.51 408.523 2070.73 446.599C2034.72 461.199 1989.78 469.222 1959.87 462.803L1958.45 462.485C1943.58 459.008 1931.41 451.014 1918.21 443.645C1905.17 436.36 1891.33 429.854 1873.96 430.629C1856.86 431.392 1836.6 439.247 1817.37 447.153C1797.82 455.192 1779.37 463.254 1765.06 465.252C1751.17 467.192 1741.17 463.352 1730.89 457.88C1720.67 452.441 1709.75 445.07 1695.04 441.186C1680.32 437.297 1661.83 436.854 1642.7 437.716C1624.75 438.525 1605.9 440.506 1588.8 442.009L1585.4 442.303C1549.35 445.365 1521.06 445.84 1492.68 446.315C1474.25 446.624 1464.27 441.957 1456.03 437.906C1451.91 435.879 1447.86 433.804 1443.44 432.739C1439.01 431.675 1434.29 431.622 1428.57 433.221L1428.01 433.381C1416.49 436.779 1404.81 444.866 1393.14 452.678C1381.25 460.629 1369.17 468.443 1356.29 472.191C1343.46 475.925 1329.57 475.681 1316.2 474.149C1309.53 473.385 1303.04 472.308 1296.9 471.27C1291.18 470.302 1285.72 469.359 1280.81 468.766L1279.83 468.651C1269.43 467.48 1261.65 468.027 1253.36 468.39C1245.09 468.751 1236.1 468.948 1222.9 467.186C1209.58 465.405 1192.08 461.65 1174.5 458.337C1157.08 455.055 1139.55 452.202 1126.66 452.42C1113.53 452.641 1105.25 456.035 1097.82 459.024C1090.75 461.873 1084.6 464.29 1075.27 463.786L1074.36 463.728C1064.15 462.983 1050.27 458.846 1035.43 454.885C1020.87 451.001 1005.43 447.31 992.902 448.003C980.179 448.707 970.662 453.913 961.856 458.609C952.965 463.352 944.81 467.571 934.089 467.65C923.146 467.732 909.291 463.518 894.439 458.32C879.824 453.205 864.314 447.162 850.75 444.139C838.008 441.299 832.075 436.689 825.294 432.447C821.858 430.298 818.192 428.244 813.439 426.752C808.691 425.262 802.993 424.373 795.471 424.373H795.073L794.69 424.477C778.852 428.741 765.726 431.396 753.762 433.805C741.818 436.209 730.956 438.379 719.825 441.661C708.529 444.992 697.199 450.824 685.622 456.63C673.947 462.485 661.904 468.38 648.805 472.191C635.973 475.925 622.09 475.681 608.716 474.149C602.041 473.385 595.554 472.308 589.419 471.27C583.32 470.237 577.515 469.233 572.352 468.651C561.953 467.48 554.171 468.027 545.874 468.39C537.606 468.751 528.613 468.948 515.422 467.186C502.094 465.405 484.594 461.65 467.011 458.337C449.593 455.055 432.066 452.202 419.169 452.42C406.044 452.641 397.759 456.035 390.336 459.024C383.034 461.965 376.711 464.445 366.867 463.728C356.66 462.983 342.785 458.846 327.938 454.885C313.382 451.001 297.945 447.31 285.418 448.003C274.851 448.588 266.36 442.295 256.963 433.199C247.909 424.435 238.077 413.078 225.533 405.915C199.734 383.258 157.773 348.415 115.39 317.226C94.1378 301.587 72.7465 286.842 53.2129 275.007C40.4491 267.273 28.3969 260.733 17.6455 256H6880.47Z" stroke="url(#paint1_linear_10120_45336)" stroke-width="6"/>
</g>
</g>
<g opacity="0.5">
<g clip-path="url(#clip3_10120_45336)">
<path d="M2680.21 55.3184C2700.61 51.7118 2717.2 51.1078 2727.91 55.2793C2751.34 64.3979 2788.35 71.7467 2823.05 78.9941C2840.47 82.634 2857.36 86.2547 2871.85 90.0752C2886.29 93.8831 2898.07 97.8239 2905.59 102.049C2917.35 111.22 2936.76 118.089 2959.41 123.519C2982.29 129.006 3008.93 133.123 3035.31 136.54C3061.63 139.951 3087.96 142.696 3109.89 145.386C3132.01 148.1 3149.58 150.752 3159.04 153.952C3179.57 160.898 3206.33 156.579 3232.74 150.627C3259.56 144.581 3286.12 136.832 3307.57 135.88C3351.44 133.934 3409.1 124.722 3462.38 112.764C3475.2 109.886 3492.5 110.086 3512.82 111.615C3533.16 113.146 3555.91 115.946 3579.92 118.135C3627.48 122.47 3679.22 124.331 3720.5 107.837C3742.5 103.471 3763.04 100.302 3783.43 96.4736C3803.68 92.6714 3822.12 89.4558 3846.42 86.7881C3858.61 85.4505 3872.09 84.2729 3884.76 84.9229C3897.47 85.5751 3909.01 88.0546 3917.53 93.7344C3926.13 99.4732 3931.95 108.586 3938.11 117.149C3941.1 121.32 3944.22 125.388 3947.74 128.484C3951.3 131.623 3955.44 133.899 3960.47 134.252C3965.36 134.595 3970.71 133.081 3976.17 130.824C3981.66 128.55 3987.62 125.361 3993.75 122.035C4006.19 115.299 4019.49 107.958 4032.83 105.031C4046.11 102.119 4059.63 103.548 4072.42 105.207C4078.74 106.027 4084.96 106.912 4090.69 107.272C4096.24 107.622 4101.59 107.499 4106.41 106.262L4106.87 106.138C4116.64 103.463 4123.68 96.0716 4129.92 90.7881C4136.38 85.3249 4142.32 81.6287 4150.93 83.3193H4150.93C4155.47 84.2104 4160.94 86.6218 4167.14 90.0605C4173.3 93.4789 4179.94 97.7801 4186.83 102.292C4200.45 111.211 4215.17 121.068 4227.98 125.517C4234.57 127.808 4240.28 128.283 4245.54 127.517C4250.75 126.755 4255.35 124.794 4259.72 122.479C4268.65 117.75 4276.41 111.85 4288.13 109.02C4312.37 103.173 4396.54 91.0648 4454.23 97.1709C4468.85 98.7171 4485.14 99.7853 4502.03 100.841C4518.94 101.898 4536.45 102.943 4553.59 104.445C4587.96 107.459 4620.38 112.282 4643 122.463C4654.32 127.559 4662.73 133.09 4670.41 138.24C4678.04 143.36 4685.13 148.237 4693.52 151.64C4710.56 158.547 4732.36 159.196 4775.33 146.884L4775.47 146.844L4775.6 146.791C4810.16 133.17 4833.54 121.452 4861.78 116.431C4889.78 111.451 4922.63 113.095 4975.51 126.842C5008.88 141.72 5046.7 132.002 5079.47 120.946C5096.11 115.33 5111.3 109.418 5124.58 105.744C5137.97 102.04 5148.32 100.967 5155.42 104.134V104.133C5188.44 118.874 5213.69 124.828 5250.57 122.67C5287.19 120.526 5335.29 110.384 5379.67 97.2393C5390.07 94.1589 5403.95 94.6199 5420.39 97.1328C5436.77 99.6362 5455.27 104.096 5474.8 108.705C5513.63 117.868 5556.57 127.649 5592.98 122.647C5607.97 120.588 5622.95 117.786 5637.54 115.068C5652.17 112.346 5666.39 109.709 5680.01 107.943C5707.4 104.389 5732.36 101.378 5765.3 98.8809C5781.78 97.6305 5800.14 96.5198 5817.43 97.1328C5834.78 97.7479 5850.75 100.093 5862.6 105.557C5874.44 111.01 5882.38 119.624 5890.64 127.562C5898.74 135.357 5907.27 142.605 5919.79 143.212C5925.94 143.509 5932.84 142.194 5940.15 140.104C5947.48 138.006 5955.46 135.056 5963.77 131.944C5980.5 125.68 5998.7 118.725 6017.05 115.945C6035.37 113.169 6053.96 114.54 6071.23 116.089C6088.28 117.617 6104.41 119.38 6117.02 116.995C6129.77 114.584 6138.94 107.915 6147.58 102.862C6156.28 97.7769 6164.88 93.9515 6177.47 95.6582C6190.5 97.424 6207.85 105.063 6226.6 113.546C6245.09 121.914 6264.78 131.025 6281.85 135.121C6299.35 139.321 6312.09 136.336 6324.17 131.865C6335.93 127.517 6346.44 122.088 6360.61 119.892L6361.99 119.688C6386.66 116.292 6410.58 113.148 6431.13 118.141C6441.47 120.652 6450.85 125.194 6461.22 129.28C6471.44 133.306 6482.31 136.732 6494.82 136.368C6507.16 136.009 6520.95 131.931 6534.45 128.225C6548.16 124.459 6561.68 121.034 6574.23 121.426C6586.71 121.816 6598.44 126.005 6609.94 130.744C6621.25 135.404 6632.6 140.737 6643.55 142.725C6648.02 143.535 6652.12 146.126 6656.28 150.053C6660.46 153.998 6664.43 159.027 6668.77 164.438C6677.26 175.01 6687.09 187.05 6701.46 191.389L6701.98 191.545L6702.52 191.511C6705.28 191.335 6709.74 192.225 6715.79 194.24C6721.74 196.22 6728.87 199.162 6736.82 202.781C6752.71 210.018 6771.63 219.848 6790.41 229.785C6809.15 239.702 6827.78 249.733 6842.97 257.297C6848.36 259.978 6853.35 262.361 6857.78 264.331H80.1094C92.1614 249.49 100.728 234.805 107.92 221.187C115.98 205.925 122.139 192.39 129.614 181.038C136.995 169.83 145.435 161.143 157.727 155.756C170.042 150.358 186.554 148.13 210.331 150.483C376.496 190.446 458.965 156.988 517.873 150.499C547.657 147.218 579.463 142.515 610.515 138.012C641.597 133.504 671.919 129.199 698.852 126.688L699.046 126.67L699.235 126.627C713.119 123.483 730.452 125.104 747.736 129.264C764.964 133.41 781.833 140.002 794.642 146.503C800.441 149.447 808.988 150.807 818.624 151.245C828.363 151.688 839.613 151.2 851.084 150.188C874.032 148.161 898.134 144.008 913.341 140.796L913.367 140.791L913.394 140.784C930.45 136.861 950.132 128.135 968.626 120.115C987.364 111.989 1004.73 104.662 1017.78 102.968C1030.41 101.327 1039.03 105.008 1047.73 109.88C1056.38 114.727 1065.55 121.108 1078.27 123.414C1090.86 125.696 1106.97 124.01 1124.03 122.545C1141.3 121.061 1159.91 119.746 1178.24 122.408C1196.6 125.075 1214.81 131.742 1231.54 137.744C1239.85 140.726 1247.83 143.552 1255.15 145.561C1262.46 147.563 1269.35 148.819 1275.47 148.535C1287.94 147.956 1296.46 141.031 1304.58 133.547C1312.83 125.944 1320.77 117.688 1332.61 112.46C1344.48 107.218 1360.47 104.97 1377.83 104.38C1395.13 103.792 1413.5 104.857 1429.98 106.056C1462.91 108.449 1487.88 111.334 1515.28 114.74L1515.72 114.795L1516.16 114.72C1528.7 112.557 1542.42 116.073 1557.28 119.807C1571.84 123.464 1587.41 127.298 1602.54 124.663L1602.9 124.601L1603.23 124.451C1613.14 120.069 1630.77 118.084 1652.68 117.938C1674.43 117.794 1699.9 119.455 1725.13 122.056C1775.7 127.269 1824.8 136.201 1840.77 141.721H1840.77C1873.75 153.113 1898.9 157.697 1935.64 156.032C1972.2 154.377 2020.25 146.537 2064.61 136.366C2086.72 131.298 2132.66 118.973 2182.1 107.015C2231.7 95.0137 2285.02 83.3319 2322.5 79.3652L2322.55 79.3594L2322.6 79.3516C2349.34 75.5272 2375.36 78.9098 2402.15 83.9961C2428.82 89.0582 2456.46 95.8605 2485.73 98.5391C2500.79 99.918 2520.77 96.654 2542.69 91.4541C2564.67 86.2381 2588.99 78.971 2612.79 72.1445C2636.64 65.3001 2659.98 58.8969 2680.21 55.3184Z" stroke="url(#paint2_linear_10120_45336)" stroke-width="6"/>
</g>
<g clip-path="url(#clip4_10120_45336)">
<path d="M6836.27 258.331C6774.07 269.216 6725.41 285.074 6686.96 300.118C6663.84 309.162 6644.41 317.917 6628.03 325.074C6612.09 332.04 6599.18 337.431 6588.43 340.256L6587.4 340.521C6542.78 351.709 6491.95 352.436 6432.15 358.259C6402.37 361.159 6370.57 365.316 6339.52 369.297C6308.44 373.281 6278.11 377.089 6251.16 379.31L6250.99 379.323L6250.82 379.357C6243.47 380.828 6234.99 382.966 6226.13 385.129C6217.22 387.301 6207.87 389.513 6198.64 391.18C6179.98 394.548 6162.54 395.534 6150.46 390.114C6144.7 387.533 6136.21 386.333 6126.59 385.946C6116.87 385.556 6105.64 385.986 6094.18 386.881C6071.25 388.67 6047.16 392.339 6031.96 395.177L6031.91 395.187C6014.89 398.648 5995.23 406.352 5976.73 413.445C5958.01 420.622 5940.6 427.117 5927.5 428.621H5927.5C5914.76 430.084 5906.06 426.793 5897.37 422.486C5888.69 418.189 5879.57 412.574 5866.9 410.545C5854.37 408.537 5838.31 410.019 5821.23 411.316C5803.96 412.628 5785.32 413.795 5766.94 411.436C5748.55 409.074 5730.31 403.169 5713.59 397.866C5705.28 395.229 5697.31 392.735 5689.99 390.963C5682.92 389.25 5676.28 388.164 5670.35 388.324L5669.78 388.344C5657.42 388.851 5648.95 394.918 5640.79 401.564C5632.55 408.278 5624.6 415.581 5612.74 420.211V420.212C5607.44 422.28 5603.32 421.661 5598.93 419.578C5596.65 418.495 5594.31 417.015 5591.68 415.241C5589.11 413.508 5586.2 411.447 5583.06 409.431C5570.16 401.158 5552.21 392.907 5519.67 397.527C5486.89 395.415 5461.98 392.872 5434.67 389.869L5434.28 389.826L5433.89 389.886C5421.26 391.81 5407.46 388.679 5392.62 385.385C5378.04 382.148 5362.54 378.778 5347.5 381.095L5347.18 381.146L5346.87 381.267C5326.03 389.422 5289.06 399.754 5253.19 406.801C5235.28 410.321 5217.71 413.007 5202.62 414.195C5187.43 415.392 5175.14 415.032 5167.56 412.716C5151.33 407.759 5126.45 399.472 5101.19 392.64C5076 385.826 5049.94 380.315 5031.28 381.062C4994.83 382.522 4937.76 388.594 4893.3 397.602C4871.4 402.041 4823.95 406.163 4772.3 410.062C4720.78 413.952 4665.26 417.61 4627.52 421.141L4627.47 421.146L4627.42 421.151C4600.35 424.575 4579.62 424.526 4560.54 419.068C4541.5 413.619 4523.82 402.689 4503.01 383.833L4502.75 383.598L4502.45 383.429C4428.88 342.864 4385.23 324.938 4351.89 317.21C4318.59 309.492 4295.6 311.99 4264.18 311.999C4250.15 310.21 4235.04 314.54 4219.67 321.478C4204.19 328.463 4188.01 338.305 4171.94 347.862C4155.77 357.471 4139.69 366.808 4124.12 373.049C4108.54 379.293 4093.83 382.291 4080.34 379.589L4080.05 379.53H4079.75C4039.48 379.53 3984.94 391.657 3935.99 402.188C3911.42 407.474 3888.24 412.366 3868.76 415.21C3859.02 416.631 3850.27 417.53 3842.78 417.719C3835.26 417.908 3829.19 417.373 3824.73 416.038C3805.32 410.233 3770.61 398.537 3735.67 388.618C3700.77 378.711 3664.79 370.307 3642.42 371.185C3598.59 372.903 3540.95 381.042 3487.69 391.611C3474.81 394.166 3457.46 393.985 3437.14 392.633C3416.8 391.28 3394.02 388.803 3370.03 386.869C3322.46 383.036 3270.79 381.399 3229.58 395.962C3207.56 399.823 3187 402.632 3166.62 406.015C3146.36 409.376 3127.92 412.221 3103.6 414.579C3091.41 415.762 3077.9 416.805 3065.2 416.229C3052.45 415.651 3040.86 413.45 3032.31 408.41C3023.72 403.344 3017.93 395.318 3011.77 387.746C3005.88 380.493 2999.34 373.233 2989.5 372.623C2984.69 372.325 2979.39 373.64 2973.94 375.634C2968.45 377.64 2962.5 380.456 2956.36 383.396C2943.94 389.345 2930.61 395.851 2917.22 398.447C2903.88 401.034 2890.3 399.763 2877.52 398.297C2871.19 397.571 2864.99 396.791 2859.27 396.474C2853.56 396.156 2848.09 396.282 2843.2 397.466C2833.48 399.817 2826.47 406.329 2820.2 411.016C2813.79 415.812 2807.77 419.166 2798.98 417.643C2794.39 416.847 2788.9 414.701 2782.71 411.662C2776.55 408.638 2769.9 404.835 2763.01 400.847C2749.38 392.956 2734.69 384.254 2721.91 380.33C2708.6 376.245 2699.3 378.842 2690.4 383.005C2681.49 387.171 2673.69 392.41 2661.92 394.921C2637.68 400.093 2553.47 410.803 2495.71 405.401C2438.85 400.082 2378.33 381.836 2332.47 363.768L2330.3 362.907C2306.38 353.391 2285.24 355.543 2264.59 358.879C2243.85 362.231 2223.84 366.696 2201.03 362.739C2153.48 354.489 2083.55 367.269 2024.56 382.958L2024.19 383.055L2023.86 383.239C2013.78 388.882 1996.49 393.59 1975.34 397.214C1954.31 400.82 1929.81 403.3 1905.58 404.644C1881.34 405.987 1857.43 406.19 1837.57 405.259C1817.56 404.321 1802.09 402.243 1794.45 399.228C1761.44 386.206 1736.25 380.958 1699.45 382.861C1662.84 384.755 1614.77 393.714 1570.4 405.331C1559.93 408.073 1545.99 407.655 1529.54 405.433C1513.14 403.218 1494.63 399.272 1475.11 395.199C1436.26 387.095 1393.38 378.467 1357.05 382.879C1342.07 384.698 1327.1 387.174 1312.5 389.576C1298.79 391.832 1285.42 394.024 1272.58 395.576L1270.02 395.878C1242.62 399.02 1217.65 401.682 1184.72 403.89C1168.23 404.995 1149.85 405.978 1132.54 405.436C1115.17 404.891 1099.15 402.816 1087.25 397.968C1075.4 393.139 1067.45 385.521 1059.21 378.512C1051.06 371.586 1042.57 365.235 1030.18 364.704C1024.09 364.443 1017.23 365.594 1009.93 367.44C1002.61 369.291 994.639 371.895 986.325 374.646C969.602 380.181 951.372 386.341 932.988 388.804C914.627 391.263 895.998 390.047 878.725 388.678C861.652 387.325 845.578 385.775 833.027 387.874C820.34 389.995 811.203 395.864 802.536 400.344C794.114 404.697 785.712 408.045 773.645 406.866L772.465 406.737C759.387 405.17 741.991 398.398 723.264 390.906C704.763 383.505 685.097 375.462 668.061 371.848C650.647 368.153 637.975 370.774 625.918 374.718C613.821 378.674 602.95 383.679 588.037 385.494C563.388 388.494 539.394 391.287 518.772 386.858C508.41 384.633 499.001 380.605 488.653 377.001C478.439 373.443 467.614 370.433 455.179 370.753C442.886 371.069 429.144 374.66 415.627 377.941C401.924 381.268 388.348 384.31 375.747 383.962C369.515 383.79 357.519 381.823 342.438 378.823C327.451 375.842 309.673 371.896 292.025 367.86C256.86 359.819 221.972 351.364 211.298 349.651C202.009 348.161 198.463 343.371 191.563 335.366C184.628 327.32 175.029 317.089 153.893 306.825L153.191 306.485L152.414 306.528C146.664 306.851 140.317 304.15 133.426 299.294C126.585 294.474 119.644 287.851 112.746 280.998C105.928 274.225 99.1068 267.179 92.7402 261.855C91.2289 260.592 89.7202 259.407 88.2217 258.331H6836.27Z" stroke="url(#paint3_linear_10120_45336)" stroke-width="6"/>
</g>
</g>
<mask id="path-5-inside-1_10120_45336" fill="white">
<path d="M616.111 170.961C663.657 165 764.842 186.021 765.752 185.702C766.662 185.384 810.144 209.593 830.403 205.976C850.663 202.359 869.111 183.264 891.646 176.052C914.18 168.84 940.802 173.512 959.605 174.649C978.408 175.786 989.391 173.388 1010.57 170.441C1031.76 167.494 1063.14 163.998 1083.67 171.844C1104.2 179.69 1113.88 198.877 1135.03 196.157C1156.19 193.437 1188.81 168.81 1214.85 168.571C1240.88 168.332 1260.33 192.482 1279.25 199.43C1298.17 206.378 1316.57 196.125 1334.96 185.871C1338.26 184.219 1344.43 182.418 1350.29 185.454C1375.16 195.707 1400.02 205.961 1425.59 199.013C1451.17 192.065 1477.45 167.915 1512.64 168.154C1547.83 168.393 1591.92 193.02 1620.51 195.74C1649.1 198.46 1662.19 179.273 1689.94 171.427C1717.69 163.581 1760.1 167.077 1788.74 170.024C1817.37 172.971 1832.21 175.369 1857.63 174.232C1883.04 173.095 1919.02 168.423 1949.48 175.635C1979.94 182.847 2004.87 201.942 2032.25 205.559C2059.64 209.176 2089.47 197.315 2119.3 185.454L2119.32 185.447C2164.2 172.219 2209.29 158.925 2257.11 169.372C2305.01 179.837 2374.02 104.338 2438 121.17C2501.98 138.002 2538.91 107.568 2596 109.632C2653.09 111.697 2704.9 125.031 2736 121.17C2783.51 104.07 2843.07 186.327 2878.84 176.628C2914.61 166.93 2938.63 164.632 2971.65 164.602C3004.67 164.571 3046.68 166.806 3085.56 170.916C3124.43 175.025 3160.17 181.008 3193.37 179.034C3226.57 177.06 3257.23 167.13 3295.09 172.72C3353.8 217.849 3412.52 189.75 3464.76 205.192C3517 220.635 3562.77 206.391 3621.01 205.421C3679.24 204.45 3655.21 168.693 3718 153.251C3780.79 137.808 3884 164.602 3972 164.602C4007.77 154.903 4254.98 153.282 4288 153.251C4321.02 153.22 4413.12 129.898 4452 134.007C4490.88 138.117 4572 146.836 4602 153.251C4632 159.665 4622.46 200.394 4660.31 205.984C4690.53 209.273 4720.71 216.396 4742.81 216.435C4764.91 216.475 4778.9 213.265 4796.36 208.242C4813.83 203.218 4834.78 196.38 4862.69 195.321C4890.6 194.261 4925.47 198.98 4947.69 199.417C4969.9 199.855 4979.45 196.01 5003.7 202.254C5027.94 208.498 5066.87 224.831 5094.1 223.999C5121.32 223.167 5136.83 205.169 5158.46 200.993C5180.08 196.817 5207.82 206.463 5233.63 212.969C5259.44 219.475 5283.33 222.841 5305.36 221.793C5327.39 220.744 5350.05 207.839 5367.76 209.817C5370.58 210.497 5465.97 152.202 5488 153.251H5571C5571 153.251 5627 140.501 5654 153.251C5681 166 5780.66 232 5875 227C5892.47 232.024 5970.6 216.478 5992.7 216.438C6014.5 216.399 6044.16 213.17 6073.95 209.926L6075.22 209.789C6110.98 198.984 6265.82 197.015 6298.84 196.98C6331.86 196.946 6373.87 199.437 6412.75 204.015C6451.62 208.592 6487.36 215.257 6520.56 213.058C6553.76 210.86 6584.42 199.798 6622.28 206.024C6660.13 212.251 6705.19 235.767 6750.24 259.282C6750.24 259.282 6576.08 294.863 6553.8 312.729C6531.51 330.596 6439.64 318.612 6389.66 330.386C6339.68 342.16 6295.76 372.382 6248.21 380.568C6200.67 388.754 6099.48 359.889 6098.57 360.326C6097.66 360.763 6054.18 327.52 6033.92 332.487C6013.66 337.454 5995.21 363.675 5972.68 373.577C5950.15 383.48 5923.52 377.064 5904.72 375.503C5885.92 373.942 5874.93 377.235 5853.75 381.281C5832.57 385.328 5801.19 390.129 5780.66 379.355C5760.12 368.582 5750.44 342.235 5729.29 345.97C5708.14 349.705 5675.51 383.522 5649.48 383.85C5623.44 384.177 5604 351.016 5585.08 341.476C5566.15 331.935 5547.76 346.015 5529.36 360.094C5526.06 362.363 5519.9 364.835 5514.03 360.667C5489.17 346.587 5464.31 332.508 5438.73 342.048C5413.16 351.589 5386.88 384.75 5351.69 384.422C5316.5 384.095 5272.4 350.278 5243.81 346.543C5215.22 342.808 5202.14 369.155 5174.39 379.928C5146.64 390.702 5104.22 385.901 5075.59 381.854C5046.96 377.808 5032.11 374.515 5006.7 376.076C4981.29 377.637 4945.3 384.053 4914.85 374.15C4884.39 364.247 4859.45 338.027 4832.07 333.06C4804.69 328.093 4774.85 344.38 4745.02 360.667L4745 360.676C4700.13 378.841 4655.04 397.095 4607.22 382.75C4559.31 368.379 4508.45 321.442 4444.47 298.33C4380.49 275.218 4303.38 275.93 4246.29 273.096C4189.2 270.261 4146.15 307.204 4115.05 312.506C4067.54 335.987 4021.25 359.468 3985.48 372.786C3949.72 386.103 3925.69 389.258 3892.67 389.3C3859.65 389.343 3817.64 386.273 3778.77 380.63C3739.89 374.988 3704.15 366.773 3670.95 369.483C3637.75 372.193 3621.9 389.806 3569.24 378.153C3471.94 328.191 3451.81 354.768 3399.57 333.563C3347.32 312.358 3301.55 331.917 3243.32 333.25C3185.08 334.582 3114.39 317.688 3051.6 338.892C2988.81 360.097 2933.93 309.711 2879.05 369.016C2843.29 382.333 2688.48 336.023 2655.46 336.065C2622.44 336.108 2580.43 333.038 2541.55 327.395C2502.68 321.753 2466.94 313.538 2433.74 316.248C2400.54 318.958 2241.87 340.152 2204.01 332.477C2173.79 327.96 2143.62 318.18 2121.51 318.125C2099.41 318.071 2085.43 322.478 2067.96 329.376C2050.49 336.275 2029.55 345.664 2001.63 347.119C1973.72 348.573 1938.85 342.093 1916.64 341.493C1894.43 340.893 1884.87 346.172 1860.63 337.598C1836.39 329.024 1797.45 306.597 1770.23 307.739C1743 308.882 1727.49 333.595 1705.87 339.329C1684.24 345.064 1465.81 384.123 1440 375.189C1418.38 369.455 1250.13 308.879 1222.91 307.736C1195.69 306.593 1156.75 329.021 1132.51 337.595C1108.27 346.169 1098.71 340.889 1076.5 341.49C1054.29 342.09 1019.41 348.57 991.503 347.115C963.592 345.661 942.643 336.271 925.176 329.373C907.709 322.475 893.725 318.067 871.624 318.122C849.831 318.176 820.17 322.609 790.375 327.063H790.373L789.11 327.252C753.343 342.088 598.505 344.792 565.486 344.839C532.467 344.887 490.455 341.467 451.58 335.181C412.705 328.895 376.967 319.743 343.768 322.762C310.569 325.781 279.907 340.971 242.049 332.421C204.191 323.871 159.136 291.581 114.081 259.29C114.081 259.29 250.566 223.498 310.528 220.365C370.49 217.232 424.687 216.081 474.667 207.506C524.647 198.932 568.566 176.922 616.111 170.961Z"/>
</mask>
<path d="M616.111 170.961C663.657 165 764.842 186.021 765.752 185.702C766.662 185.384 810.144 209.593 830.403 205.976C850.663 202.359 869.111 183.264 891.646 176.052C914.18 168.84 940.802 173.512 959.605 174.649C978.408 175.786 989.391 173.388 1010.57 170.441C1031.76 167.494 1063.14 163.998 1083.67 171.844C1104.2 179.69 1113.88 198.877 1135.03 196.157C1156.19 193.437 1188.81 168.81 1214.85 168.571C1240.88 168.332 1260.33 192.482 1279.25 199.43C1298.17 206.378 1316.57 196.125 1334.96 185.871C1338.26 184.219 1344.43 182.418 1350.29 185.454C1375.16 195.707 1400.02 205.961 1425.59 199.013C1451.17 192.065 1477.45 167.915 1512.64 168.154C1547.83 168.393 1591.92 193.02 1620.51 195.74C1649.1 198.46 1662.19 179.273 1689.94 171.427C1717.69 163.581 1760.1 167.077 1788.74 170.024C1817.37 172.971 1832.21 175.369 1857.63 174.232C1883.04 173.095 1919.02 168.423 1949.48 175.635C1979.94 182.847 2004.87 201.942 2032.25 205.559C2059.64 209.176 2089.47 197.315 2119.3 185.454L2119.32 185.447C2164.2 172.219 2209.29 158.925 2257.11 169.372C2305.01 179.837 2374.02 104.338 2438 121.17C2501.98 138.002 2538.91 107.568 2596 109.632C2653.09 111.697 2704.9 125.031 2736 121.17C2783.51 104.07 2843.07 186.327 2878.84 176.628C2914.61 166.93 2938.63 164.632 2971.65 164.602C3004.67 164.571 3046.68 166.806 3085.56 170.916C3124.43 175.025 3160.17 181.008 3193.37 179.034C3226.57 177.06 3257.23 167.13 3295.09 172.72C3353.8 217.849 3412.52 189.75 3464.76 205.192C3517 220.635 3562.77 206.391 3621.01 205.421C3679.24 204.45 3655.21 168.693 3718 153.251C3780.79 137.808 3884 164.602 3972 164.602C4007.77 154.903 4254.98 153.282 4288 153.251C4321.02 153.22 4413.12 129.898 4452 134.007C4490.88 138.117 4572 146.836 4602 153.251C4632 159.665 4622.46 200.394 4660.31 205.984C4690.53 209.273 4720.71 216.396 4742.81 216.435C4764.91 216.475 4778.9 213.265 4796.36 208.242C4813.83 203.218 4834.78 196.38 4862.69 195.321C4890.6 194.261 4925.47 198.98 4947.69 199.417C4969.9 199.855 4979.45 196.01 5003.7 202.254C5027.94 208.498 5066.87 224.831 5094.1 223.999C5121.32 223.167 5136.83 205.169 5158.46 200.993C5180.08 196.817 5207.82 206.463 5233.63 212.969C5259.44 219.475 5283.33 222.841 5305.36 221.793C5327.39 220.744 5350.05 207.839 5367.76 209.817C5370.58 210.497 5465.97 152.202 5488 153.251H5571C5571 153.251 5627 140.501 5654 153.251C5681 166 5780.66 232 5875 227C5892.47 232.024 5970.6 216.478 5992.7 216.438C6014.5 216.399 6044.16 213.17 6073.95 209.926L6075.22 209.789C6110.98 198.984 6265.82 197.015 6298.84 196.98C6331.86 196.946 6373.87 199.437 6412.75 204.015C6451.62 208.592 6487.36 215.257 6520.56 213.058C6553.76 210.86 6584.42 199.798 6622.28 206.024C6660.13 212.251 6705.19 235.767 6750.24 259.282C6750.24 259.282 6576.08 294.863 6553.8 312.729C6531.51 330.596 6439.64 318.612 6389.66 330.386C6339.68 342.16 6295.76 372.382 6248.21 380.568C6200.67 388.754 6099.48 359.889 6098.57 360.326C6097.66 360.763 6054.18 327.52 6033.92 332.487C6013.66 337.454 5995.21 363.675 5972.68 373.577C5950.15 383.48 5923.52 377.064 5904.72 375.503C5885.92 373.942 5874.93 377.235 5853.75 381.281C5832.57 385.328 5801.19 390.129 5780.66 379.355C5760.12 368.582 5750.44 342.235 5729.29 345.97C5708.14 349.705 5675.51 383.522 5649.48 383.85C5623.44 384.177 5604 351.016 5585.08 341.476C5566.15 331.935 5547.76 346.015 5529.36 360.094C5526.06 362.363 5519.9 364.835 5514.03 360.667C5489.17 346.587 5464.31 332.508 5438.73 342.048C5413.16 351.589 5386.88 384.75 5351.69 384.422C5316.5 384.095 5272.4 350.278 5243.81 346.543C5215.22 342.808 5202.14 369.155 5174.39 379.928C5146.64 390.702 5104.22 385.901 5075.59 381.854C5046.96 377.808 5032.11 374.515 5006.7 376.076C4981.29 377.637 4945.3 384.053 4914.85 374.15C4884.39 364.247 4859.45 338.027 4832.07 333.06C4804.69 328.093 4774.85 344.38 4745.02 360.667L4745 360.676C4700.13 378.841 4655.04 397.095 4607.22 382.75C4559.31 368.379 4508.45 321.442 4444.47 298.33C4380.49 275.218 4303.38 275.93 4246.29 273.096C4189.2 270.261 4146.15 307.204 4115.05 312.506C4067.54 335.987 4021.25 359.468 3985.48 372.786C3949.72 386.103 3925.69 389.258 3892.67 389.3C3859.65 389.343 3817.64 386.273 3778.77 380.63C3739.89 374.988 3704.15 366.773 3670.95 369.483C3637.75 372.193 3621.9 389.806 3569.24 378.153C3471.94 328.191 3451.81 354.768 3399.57 333.563C3347.32 312.358 3301.55 331.917 3243.32 333.25C3185.08 334.582 3114.39 317.688 3051.6 338.892C2988.81 360.097 2933.93 309.711 2879.05 369.016C2843.29 382.333 2688.48 336.023 2655.46 336.065C2622.44 336.108 2580.43 333.038 2541.55 327.395C2502.68 321.753 2466.94 313.538 2433.74 316.248C2400.54 318.958 2241.87 340.152 2204.01 332.477C2173.79 327.96 2143.62 318.18 2121.51 318.125C2099.41 318.071 2085.43 322.478 2067.96 329.376C2050.49 336.275 2029.55 345.664 2001.63 347.119C1973.72 348.573 1938.85 342.093 1916.64 341.493C1894.43 340.893 1884.87 346.172 1860.63 337.598C1836.39 329.024 1797.45 306.597 1770.23 307.739C1743 308.882 1727.49 333.595 1705.87 339.329C1684.24 345.064 1465.81 384.123 1440 375.189C1418.38 369.455 1250.13 308.879 1222.91 307.736C1195.69 306.593 1156.75 329.021 1132.51 337.595C1108.27 346.169 1098.71 340.889 1076.5 341.49C1054.29 342.09 1019.41 348.57 991.503 347.115C963.592 345.661 942.643 336.271 925.176 329.373C907.709 322.475 893.725 318.067 871.624 318.122C849.831 318.176 820.17 322.609 790.375 327.063H790.373L789.11 327.252C753.343 342.088 598.505 344.792 565.486 344.839C532.467 344.887 490.455 341.467 451.58 335.181C412.705 328.895 376.967 319.743 343.768 322.762C310.569 325.781 279.907 340.971 242.049 332.421C204.191 323.871 159.136 291.581 114.081 259.29C114.081 259.29 250.566 223.498 310.528 220.365C370.49 217.232 424.687 216.081 474.667 207.506C524.647 198.932 568.566 176.922 616.111 170.961Z" stroke="url(#paint4_linear_10120_45336)" stroke-width="12" mask="url(#path-5-inside-1_10120_45336)"/>
</g>
<defs>
<linearGradient id="paint0_linear_10120_45336" x1="5893.46" y1="137.016" x2="4123.44" y2="137.017" gradientUnits="userSpaceOnUse">
<stop offset="0.36" stop-color="#FC7950"/>
<stop offset="0.433988" stop-color="#FF6E96"/>
<stop offset="0.479207" stop-color="#E480D7"/>
<stop offset="0.566122" stop-color="#999DFE"/>
<stop offset="1" stop-color="#00B2FF"/>
</linearGradient>
<linearGradient id="paint1_linear_10120_45336" x1="5893.66" y1="383.679" x2="4123.64" y2="383.68" gradientUnits="userSpaceOnUse">
<stop offset="0.36" stop-color="#FC7950"/>
<stop offset="0.433988" stop-color="#FF6E96"/>
<stop offset="0.479207" stop-color="#E480D7"/>
<stop offset="0.566122" stop-color="#999DFE"/>
<stop offset="1" stop-color="#00B2FF"/>
</linearGradient>
<linearGradient id="paint2_linear_10120_45336" x1="5884.79" y1="158.505" x2="4139.27" y2="158.506" gradientUnits="userSpaceOnUse">
<stop offset="0.36" stop-color="#FC7950"/>
<stop offset="0.433988" stop-color="#FF6E96"/>
<stop offset="0.479207" stop-color="#E480D7"/>
<stop offset="0.566122" stop-color="#999DFE"/>
<stop offset="1" stop-color="#00B2FF"/>
</linearGradient>
<linearGradient id="paint3_linear_10120_45336" x1="5884.79" y1="343.775" x2="4139.27" y2="343.776" gradientUnits="userSpaceOnUse">
<stop offset="0.36" stop-color="#FC7950"/>
<stop offset="0.433988" stop-color="#FF6E96"/>
<stop offset="0.479207" stop-color="#E480D7"/>
<stop offset="0.566122" stop-color="#999DFE"/>
<stop offset="1" stop-color="#00B2FF"/>
</linearGradient>
<linearGradient id="paint4_linear_10120_45336" x1="5783" y1="249.61" x2="4080.18" y2="249.611" gradientUnits="userSpaceOnUse">
<stop offset="0.36" stop-color="#FC7950"/>
<stop offset="0.433988" stop-color="#FF6E96"/>
<stop offset="0.479207" stop-color="#E480D7"/>
<stop offset="0.566122" stop-color="#999DFE"/>
<stop offset="1" stop-color="#00B2FF"/>
</linearGradient>
<clipPath id="clip0_10120_45336">
<rect width="6899" height="520" fill="white"/>
</clipPath>
<clipPath id="clip1_10120_45336">
<rect width="6898.08" height="260.997" fill="white" transform="translate(0.802734 0.335938)"/>
</clipPath>
<clipPath id="clip2_10120_45336">
<rect width="6898.08" height="260.997" fill="white" transform="translate(1 259)"/>
</clipPath>
<clipPath id="clip3_10120_45336">
<rect width="6802.62" height="217.954" fill="white" transform="translate(73.6836 43.377)"/>
</clipPath>
<clipPath id="clip4_10120_45336">
<rect width="6802.62" height="176.642" fill="white" transform="translate(73.6836 261.331)"/>
</clipPath>
</defs>
</svg>
