<svg width="6637" height="280" viewBox="0 0 6637 280" fill="none" xmlns="http://www.w3.org/2000/svg">
<path d="M502.03 61.43C549.576 55.469 650.761 76.49 651.671 76.171C652.581 75.853 696.063 100.062 716.322 96.445C736.582 92.828 755.03 73.733 777.565 66.521C800.099 59.309 826.721 63.981 845.524 65.118C864.327 66.255 875.31 63.857 896.489 60.91C917.679 57.963 949.059 54.467 969.589 62.313C990.119 70.159 999.799 89.346 1020.95 86.626C1042.11 83.906 1074.73 59.279 1100.77 59.04C1126.8 58.801 1146.25 82.951 1165.17 89.899C1184.09 96.847 1202.49 86.594 1220.88 76.34C1224.18 74.688 1230.35 72.887 1236.21 75.923C1261.08 86.176 1285.94 96.43 1311.51 89.482C1337.09 82.534 1363.37 58.384 1398.56 58.623C1433.75 58.862 1477.84 83.489 1506.43 86.209C1535.02 88.929 1548.11 69.742 1575.86 61.896C1603.61 54.05 1646.02 57.546 1674.66 60.493C1703.29 63.44 1718.13 65.838 1743.55 64.701C1768.96 63.564 1804.94 58.892 1835.4 66.104C1865.86 73.316 1890.79 92.411 1918.17 96.028C1945.56 99.645 1975.39 87.784 2005.22 75.923L2005.24 75.916C2050.12 62.688 2095.21 49.394 2143.03 59.841C2190.93 70.306 2259.94 -5.19297 2323.92 11.639C2387.9 28.471 2424.83 -1.96297 2481.92 0.101032C2539.01 2.16603 2590.82 15.5 2621.92 11.639C2669.43 -5.46097 2728.99 76.796 2764.76 67.097C2800.53 57.399 2824.55 55.101 2857.57 55.071C2890.59 55.04 2932.6 57.275 2971.48 61.385C3010.35 65.494 3046.09 71.477 3079.29 69.503C3112.49 67.529 3143.15 57.599 3181.01 63.189C3239.72 108.318 3298.44 80.219 3350.68 95.661C3402.92 111.104 3448.69 96.86 3506.93 95.89C3565.16 94.919 3541.13 59.162 3603.92 43.72C3666.71 28.277 3769.92 55.071 3857.92 55.071C3893.69 45.372 4140.9 43.751 4173.92 43.72C4206.94 43.689 4299.04 20.367 4337.92 24.476C4376.8 28.586 4457.92 37.305 4487.92 43.72C4517.92 50.134 4508.38 90.863 4546.23 96.453C4576.45 99.742 4606.63 106.865 4628.73 106.904C4650.83 106.944 4664.82 103.734 4682.28 98.711C4699.75 93.687 4720.7 86.849 4748.61 85.79C4776.52 84.73 4811.39 89.449 4833.61 89.886C4855.82 90.324 4865.37 86.479 4889.62 92.723C4913.86 98.967 4952.79 115.3 4980.02 114.468C5007.24 113.636 5022.75 95.638 5044.38 91.462C5066 87.286 5093.74 96.932 5119.55 103.438C5145.36 109.944 5169.25 113.31 5191.28 112.262C5213.31 111.213 5235.97 98.308 5253.68 100.286C5256.5 100.966 5351.89 42.671 5373.92 43.72H5456.92C5456.92 43.72 5512.92 30.97 5539.92 43.72C5566.92 56.469 5666.58 122.469 5760.92 117.469C5778.39 122.493 5856.52 106.947 5878.62 106.907C5900.42 106.868 5930.08 103.639 5959.87 100.395L5961.14 100.258C5996.9 89.453 6151.74 87.484 6184.76 87.449C6217.78 87.415 6259.79 89.906 6298.67 94.484C6337.54 99.061 6373.28 105.726 6406.48 103.527C6439.68 101.329 6470.34 90.267 6508.2 96.493C6546.05 102.72 6591.11 126.236 6636.16 149.751C6636.16 149.751 6462 185.332 6439.72 203.198C6417.43 221.065 6325.56 209.081 6275.58 220.855C6225.6 232.629 6181.68 262.851 6134.13 271.037C6086.59 279.223 5985.4 250.358 5984.49 250.795C5983.58 251.232 5940.1 217.989 5919.84 222.956C5899.58 227.923 5881.13 254.144 5858.6 264.046C5836.07 273.949 5809.44 267.533 5790.64 265.972C5771.84 264.411 5760.85 267.704 5739.67 271.75C5718.49 275.797 5687.11 280.598 5666.58 269.824C5646.04 259.051 5636.36 232.704 5615.21 236.439C5594.06 240.174 5561.43 273.991 5535.4 274.319C5509.36 274.646 5489.92 241.485 5471 231.945C5452.07 222.404 5433.68 236.484 5415.28 250.563C5411.98 252.832 5405.82 255.304 5399.95 251.136C5375.09 237.056 5350.23 222.977 5324.65 232.517C5299.08 242.058 5272.8 275.219 5237.61 274.891C5202.42 274.564 5158.32 240.747 5129.73 237.012C5101.14 233.277 5088.06 259.624 5060.31 270.397C5032.56 281.171 4990.14 276.37 4961.51 272.323C4932.88 268.277 4918.03 264.984 4892.62 266.545C4867.21 268.106 4831.22 274.522 4800.77 264.619C4770.31 254.716 4745.37 228.496 4717.99 223.529C4690.61 218.562 4660.77 234.849 4630.94 251.136L4630.92 251.145C4586.05 269.31 4540.96 287.564 4493.14 273.219C4445.23 258.848 4394.37 211.911 4330.39 188.799C4266.41 165.687 4189.3 166.399 4132.21 163.565C4075.12 160.73 4032.07 197.673 4000.97 202.975C3953.46 226.456 3907.17 249.937 3871.4 263.255C3835.64 276.572 3811.61 279.727 3778.59 279.769C3745.57 279.812 3703.56 276.742 3664.69 271.099C3625.81 265.457 3590.07 257.242 3556.87 259.952C3523.67 262.662 3507.82 280.275 3455.16 268.622C3357.86 218.66 3337.73 245.237 3285.49 224.032C3233.24 202.827 3187.47 222.386 3129.24 223.719C3071 225.051 3000.31 208.157 2937.52 229.361C2874.73 250.566 2819.85 200.18 2764.97 259.485C2729.21 272.802 2574.4 226.492 2541.38 226.534C2508.36 226.577 2466.35 223.507 2427.47 217.864C2388.6 212.222 2352.86 204.007 2319.66 206.717C2286.46 209.427 2127.79 230.621 2089.93 222.946C2059.71 218.429 2029.54 208.649 2007.43 208.594C1985.33 208.54 1971.35 212.947 1953.88 219.845C1936.41 226.744 1915.47 236.133 1887.55 237.588C1859.64 239.042 1824.77 232.562 1802.56 231.962C1780.35 231.362 1770.79 236.641 1746.55 228.067C1722.31 219.493 1683.37 197.066 1656.15 198.208C1628.92 199.351 1613.41 224.064 1591.79 229.798C1570.16 235.533 1351.73 274.592 1325.92 265.658C1304.3 259.924 1136.05 199.348 1108.83 198.205C1081.61 197.062 1042.67 219.49 1018.43 228.064C994.189 236.638 984.629 231.358 962.419 231.959C940.209 232.559 905.329 239.039 877.422 237.584C849.511 236.13 828.562 226.74 811.095 219.842C793.628 212.944 779.644 208.536 757.543 208.591C735.75 208.645 706.089 213.078 676.294 217.532H676.292L675.029 217.721C639.262 232.557 484.424 235.261 451.405 235.308C418.386 235.356 376.374 231.936 337.499 225.65C298.624 219.364 262.886 210.212 229.687 213.231C196.488 216.25 165.826 231.44 127.968 222.89C90.11 214.34 45.055 182.05 0 149.759C0 149.759 136.485 113.967 196.447 110.834C256.409 107.701 310.606 106.55 360.586 97.975C410.566 89.401 454.485 67.391 502.03 61.43Z" fill="url(#paint0_linear_10079_24239)"/>
<defs>
<linearGradient id="paint0_linear_10079_24239" x1="3317.92" y1="53.469" x2="3317.92" y2="206.469" gradientUnits="userSpaceOnUse">
<stop stop-color="white"/>
<stop offset="0.471154" stop-color="white" stop-opacity="0.496552"/>
<stop offset="0.658654" stop-color="white" stop-opacity="0.281626"/>
<stop offset="0.942308" stop-color="white" stop-opacity="0"/>
</linearGradient>
</defs>
</svg>
