<svg width="1134" height="793" viewBox="0 0 1134 793" fill="none" xmlns="http://www.w3.org/2000/svg">
<g clip-path="url(#clip0_9717_23218)">
<path d="M550.136 204.467L553.77 201.896L550.212 195.77L546.578 198.34L550.136 204.467Z" fill="#00B2FF"/>
<path d="M834.711 560.924L835.69 554.739L825.476 550.851L824.497 557.036L834.711 560.924Z" fill="#FC5C50"/>
<path d="M631.253 310.819L636.861 309.605L633.207 302.225L627.599 303.439L631.253 310.819Z" fill="#FC5C50"/>
<path d="M78.23 715.93L77.7168 708.619L62.4794 710.753L62.9927 718.063L78.23 715.93Z" fill="#00B2FF"/>
<path d="M286.954 444.409L293.165 441.634L281.378 422.081L275.167 424.856L286.954 444.409Z" fill="#00B2FF"/>
<path d="M881.503 5.1608L876.411 5.42871L876.026 12.8134L881.117 12.5455L881.503 5.1608Z" fill="#FC5C50"/>
<path d="M944.383 603.901L944.302 599.356L934.156 599.892L934.237 604.437L944.383 603.901Z" fill="#FC5C50"/>
<path d="M974.933 376.138L968.94 372.42L960.178 388.163L966.17 391.881L974.933 376.138Z" fill="#FC5C50"/>
<path d="M380.457 491.297L382.973 485.363L369.527 477.33L367.011 483.264L380.457 491.297Z" fill="#00B2FF"/>
<path d="M987.928 649.653L981.616 646.482L981.607 652.571L987.919 655.742L987.928 649.653Z" fill="#074ADF"/>
<path d="M1060.9 166.539L1056.21 163.971L1047.35 177.582L1052.03 180.151L1060.9 166.539Z" fill="#FC5C50"/>
<path d="M1060.93 671.461L1056.29 665.508L1044.4 674.491L1049.04 680.445L1060.93 671.461Z" fill="#00B2FF"/>
<path d="M771.809 459.331L765.314 455.814L764.826 469.368L771.32 472.884L771.809 459.331Z" fill="#FC5C50"/>
<path d="M1075.77 466.707L1073.61 462.738L1064.12 463.991L1066.28 467.961L1075.77 466.707Z" fill="#074ADF"/>
<path d="M938.188 794.833L940.438 788.141L926.645 781.024L924.395 787.716L938.188 794.833Z" fill="#074ADF"/>
<path d="M1053.22 320.255H1057.73L1056.86 307.741H1052.35L1053.22 320.255Z" fill="#00B2FF"/>
<path d="M101.122 436.817L99.3408 432.502L89.947 435.656L91.7278 439.971L101.122 436.817Z" fill="#FC5C50"/>
<path d="M688.396 267.868L692.933 262.17L684.534 255.764L679.998 261.462L688.396 267.868Z" fill="#074ADF"/>
<path d="M565.529 127.124L565.73 123.193L561.764 122.641L561.563 126.572L565.529 127.124Z" fill="#074ADF"/>
<path d="M420.183 362.202L414.015 362.751L414.35 381.01L420.518 380.461L420.183 362.202Z" fill="#00B2FF"/>
<path d="M1058.2 210.052L1060.83 206.019L1057.08 203.964L1054.46 207.997L1058.2 210.052Z" fill="#074ADF"/>
<path d="M380.798 499.996L382.205 495.543L374.623 494.028L373.217 498.482L380.798 499.996Z" fill="#00B2FF"/>
<path d="M383.231 664.885L379.207 658.662L364.473 663.035L368.498 669.258L383.231 664.885Z" fill="#00B2FF"/>
<path d="M763.551 479.229L759.771 473.033L745.758 480.588L749.537 486.783L763.551 479.229Z" fill="#00B2FF"/>
<path d="M1070.24 411.98L1063.89 405.892L1058.48 411.599L1064.84 417.687L1070.24 411.98Z" fill="#FC5C50"/>
<path d="M604.256 668.568L599.358 663.886L593.071 669.653L597.969 674.336L604.256 668.568Z" fill="#00B2FF"/>
<path d="M355.442 190.223L360.04 190.872L358.354 183.944L353.756 183.295L355.442 190.223Z" fill="#00B2FF"/>
<path d="M373.438 570.126L378.9 567.879L370.367 551.383L364.905 553.63L373.438 570.126Z" fill="#FC5C50"/>
<path d="M1078.97 454.243L1078.1 448.093L1070.81 449.244L1071.68 455.394L1078.97 454.243Z" fill="#074ADF"/>
<path d="M838.706 -2.02475L836.611 -6.31934L826.076 -2.21622L828.17 2.07836L838.706 -2.02475Z" fill="#FC5C50"/>
<path d="M852.052 285.943L845.334 282.047L844.107 288.157L850.826 292.053L852.052 285.943Z" fill="#074ADF"/>
<path d="M1121.27 339.441L1125.35 336.668L1117.83 326.23L1113.75 329.003L1121.27 339.441Z" fill="#00B2FF"/>
<path d="M934.755 309.499L929.791 306.641L927.684 311.819L932.648 314.677L934.755 309.499Z" fill="#074ADF"/>
<path d="M819.966 630.615L815.623 628.919L813.573 640.517L817.915 642.213L819.966 630.615Z" fill="#FC5C50"/>
<path d="M487.375 753.756L490.307 749.854L481.923 743.304L478.992 747.207L487.375 753.756Z" fill="#00B2FF"/>
<path d="M943.14 644.432L941.333 637.615L926.459 636.841L928.266 643.658L943.14 644.432Z" fill="#074ADF"/>
<path d="M70.551 331.815L68.6689 328.645L63.1139 332.399L64.9959 335.569L70.551 331.815Z" fill="#074ADF"/>
<path d="M510.973 545.404L510.506 540.962L499.714 537.125L500.182 541.567L510.973 545.404Z" fill="#00B2FF"/>
<path d="M194.809 326.097L191.45 320.348L185.327 321.317L188.687 327.067L194.809 326.097Z" fill="#00B2FF"/>
<path d="M697.409 355.83L699.948 350.845L688.901 344.766L686.362 349.751L697.409 355.83Z" fill="#00B2FF"/>
<path d="M-2.77235 606.426L2.28516 607.243L1.85693 594.627L-3.20058 593.81L-2.77235 606.426Z" fill="#074ADF"/>
<path d="M612.039 263.538L607.053 263.18L604.018 275.688L609.004 276.046L612.039 263.538Z" fill="#074ADF"/>
<path d="M197.042 684.692L201.869 680.468L195.028 673.507L190.201 677.731L197.042 684.692Z" fill="#074ADF"/>
<path d="M980.162 280.5L980.293 276.945L968.483 272.029L968.353 275.584L980.162 280.5Z" fill="#074ADF"/>
<path d="M517.684 130.089L517.966 125.176L508.138 122.515L507.856 127.428L517.684 130.089Z" fill="#00B2FF"/>
<path d="M180.799 585.212L184.423 582.825L179.867 574.682L176.243 577.068L180.799 585.212Z" fill="#FC5C50"/>
<path d="M894.203 419.095L886.622 412.761L880.886 420.608L888.467 426.942L894.203 419.095Z" fill="#00B2FF"/>
<path d="M664.067 788.447L669.49 784.645L661.862 775.396L656.439 779.198L664.067 788.447Z" fill="#FC5C50"/>
<path d="M968.707 441.083L973.803 438.339L969.332 429.427L964.235 432.172L968.707 441.083Z" fill="#FC5C50"/>
<path d="M138.712 467.148L144.901 467.365L147.23 450.929L141.041 450.712L138.712 467.148Z" fill="#074ADF"/>
<path d="M1012.92 728.596L1016.4 724.695L1009.76 718.877L1006.28 722.777L1012.92 728.596Z" fill="#00B2FF"/>
<path d="M307.746 797.041L311.142 794.156L302.763 784.285L299.368 787.17L307.746 797.041Z" fill="#00B2FF"/>
<path d="M735.891 460.25L729.688 456.102L722.695 469.406L728.898 473.554L735.891 460.25Z" fill="#FC5C50"/>
<path d="M586.374 655.65L581.697 648.296L571.04 652.027L575.717 659.381L586.374 655.65Z" fill="#074ADF"/>
<path d="M278.043 656.163L277.667 651.83L266.117 648.287L266.492 652.619L278.043 656.163Z" fill="#00B2FF"/>
<path d="M981.011 149.142L978.907 142.95L970.173 144.056L972.277 150.248L981.011 149.142Z" fill="#074ADF"/>
<path d="M861.973 340.024L861.704 336.058L851.023 337L851.291 340.966L861.973 340.024Z" fill="#00B2FF"/>
<path d="M26.7229 674.487L33.2773 669.529L27.9507 661.482L21.3963 666.439L26.7229 674.487Z" fill="#00B2FF"/>
<path d="M103.276 281.029L109.659 278.387L104 268.328L97.6172 270.97L103.276 281.029Z" fill="#00B2FF"/>
<path d="M197.909 51.6676L199.977 47.8545L191.114 44.6686L189.047 48.4817L197.909 51.6676Z" fill="#FC5C50"/>
<path d="M876.056 477.178L882.084 478.516L876.042 462.287L870.014 460.949L876.056 477.178Z" fill="#074ADF"/>
<path d="M798.573 741.213L796.482 736.674L792.11 736.991L794.201 741.531L798.573 741.213Z" fill="#074ADF"/>
<path d="M888.228 415.921L894.502 413.281L891.811 400.929L885.537 403.569L888.228 415.921Z" fill="#074ADF"/>
<path d="M927.453 120.799L933.901 118.401L923.798 100.19L917.35 102.588L927.453 120.799Z" fill="#00B2FF"/>
<path d="M222.215 716.338L226.122 711.09L216.513 705.95L212.606 711.197L222.215 716.338Z" fill="#074ADF"/>
<path d="M438.892 598.415L431.762 593.67L428.397 600.195L435.526 604.94L438.892 598.415Z" fill="#00B2FF"/>
<path d="M436.84 335.76L433.172 332.028L428.367 336.751L432.034 340.483L436.84 335.76Z" fill="#00B2FF"/>
<path d="M278.177 475.071L283.898 472.515L277.777 457.38L272.056 459.936L278.177 475.071Z" fill="#00B2FF"/>
<path d="M1102.91 521.874L1098.36 521.398L1098.58 527.621L1103.13 528.097L1102.91 521.874Z" fill="#074ADF"/>
<path d="M561.394 114.394L562.544 109.525L550.924 106.052L549.774 110.921L561.394 114.394Z" fill="#00B2FF"/>
<path d="M779.503 427.082L779.27 422.613L770.495 419.397L770.729 423.866L779.503 427.082Z" fill="#00B2FF"/>
<path d="M776.306 394.79L776.441 390.648L764.831 386.061L764.695 390.203L776.306 394.79Z" fill="#074ADF"/>
<path d="M66.1684 473.884L65.1055 469.009L53.9962 472.321L55.0591 477.197L66.1684 473.884Z" fill="#00B2FF"/>
<path d="M1100.94 265.487L1104.79 265.209L1101.62 256.112L1097.77 256.39L1100.94 265.487Z" fill="#00B2FF"/>
<path d="M723.072 687.037L726.672 684.025L718.645 673.113L715.045 676.124L723.072 687.037Z" fill="#FC5C50"/>
<path d="M237.965 640.991L245.338 638.696L244.081 628.917L236.708 631.212L237.965 640.991Z" fill="#074ADF"/>
<path d="M584.599 413.913L591.905 412.629L590.761 401.425L583.455 402.709L584.599 413.913Z" fill="#FC5C50"/>
<path d="M43.7861 778.985L44.2305 774.023L36.894 771.556L36.4496 776.517L43.7861 778.985Z" fill="#00B2FF"/>
<path d="M1096.12 626.926L1102.12 627.385L1098.54 608.882L1092.55 608.423L1096.12 626.926Z" fill="#00B2FF"/>
<path d="M334.67 691.388L334.792 685.031L324.864 682.244L324.742 688.601L334.67 691.388Z" fill="#FC5C50"/>
<path d="M30.7664 53.6112L24.6475 52.3125L22.4089 65.0882L28.5278 66.3869L30.7664 53.6112Z" fill="#FC5C50"/>
<path d="M434 723.866L432.79 717.715L423.782 715.624L424.992 721.775L434 723.866Z" fill="#00B2FF"/>
<path d="M525.404 108.954L527.738 104.697L512.54 93.9661L510.207 98.2226L525.404 108.954Z" fill="#074ADF"/>
<path d="M938.25 40.0709L935.862 36.2588L925.508 43.8864L927.896 47.6985L938.25 40.0709Z" fill="#FC5C50"/>
<path d="M252.377 768.775L249.889 761.301L238.472 760.497L240.96 767.971L252.377 768.775Z" fill="#00B2FF"/>
<path d="M788.5 326.215L785.642 321.468L774.138 326.582L776.997 331.329L788.5 326.215Z" fill="#FC5C50"/>
<path d="M383.661 744.438L388.562 739.049L381.068 732.382L376.167 737.771L383.661 744.438Z" fill="#074ADF"/>
<path d="M46.3814 301.247L53.3301 300.3L54.7018 287.383L47.7532 288.331L46.3814 301.247Z" fill="#074ADF"/>
<path d="M709.534 517.421L704.018 513.64L695.751 527.783L701.267 531.565L709.534 517.421Z" fill="#FC5C50"/>
<path d="M810.748 525.508L805.61 520.99L799.408 527.325L804.545 531.843L810.748 525.508Z" fill="#FC5C50"/>
<path d="M318.755 333.519L312.643 331.537L311.064 344.291L317.177 346.272L318.755 333.519Z" fill="#074ADF"/>
<path d="M747.028 404.36L739.788 403.718L736.122 421.231L743.362 421.873L747.028 404.36Z" fill="#074ADF"/>
<path d="M316.742 722.195L321.574 717.938L313.45 708.712L308.619 712.97L316.742 722.195Z" fill="#FC5C50"/>
<path d="M892.382 262.246L896.689 260.572L890.692 250.85L886.385 252.523L892.382 262.246Z" fill="#00B2FF"/>
<path d="M103 743.537L102.938 739.682L91.2264 735.006L91.2876 738.861L103 743.537Z" fill="#074ADF"/>
<path d="M48.5574 117.623L52.2832 116.724L50.2114 110.601L46.4855 111.5L48.5574 117.623Z" fill="#FC5C50"/>
<path d="M739.275 433.781L744.916 431.246L741.33 423.483L735.689 426.018L739.275 433.781Z" fill="#FC5C50"/>
<path d="M653.224 555.844L647.13 552.972L645.804 563.916L651.898 566.789L653.224 555.844Z" fill="#074ADF"/>
<path d="M227.144 539.326L221.437 538.123L221.852 550.003L227.559 551.206L227.144 539.326Z" fill="#074ADF"/>
<path d="M23.3199 58.4502L19.3706 56.1064L13.1076 67.3209L17.0569 69.6646L23.3199 58.4502Z" fill="#00B2FF"/>
<path d="M47.3626 70.9785L53.3433 68.2168L42.2464 52.4427L36.2657 55.2044L47.3626 70.9785Z" fill="#074ADF"/>
<path d="M580.505 603.606L587.498 602.948L583.795 591.381L576.802 592.038L580.505 603.606Z" fill="#074ADF"/>
<path d="M758.151 416.421L752.109 412.138L741.913 427.666L747.954 431.949L758.151 416.421Z" fill="#00B2FF"/>
<path d="M257.502 292.978L253.24 288.958L241.545 300.486L245.807 304.506L257.502 292.978Z" fill="#FC5C50"/>
<path d="M265.832 456.118L270.886 455.406L270.117 448.096L265.063 448.807L265.832 456.118Z" fill="#074ADF"/>
<path d="M451.701 584.325L447.059 581.453L439.888 592.895L444.53 595.767L451.701 584.325Z" fill="#074ADF"/>
<path d="M69.8813 122.369L67.7695 115.015L49.1377 111.287L51.2494 118.641L69.8813 122.369Z" fill="#074ADF"/>
<path d="M877.65 705.583L878.144 699.99L872.5 699.004L872.006 704.597L877.65 705.583Z" fill="#FC5C50"/>
<path d="M909.74 478.153L914.244 476.878L908.894 464.944L904.39 466.219L909.74 478.153Z" fill="#FC5C50"/>
<path d="M455.735 658.603L452.599 655.902L450.148 658.799L453.284 661.5L455.735 658.603Z" fill="#FC5C50"/>
<path d="M1100.98 756.869L1104.92 752.934L1094.33 742.339L1090.4 746.274L1100.98 756.869Z" fill="#FC5C50"/>
<path d="M275.989 677.38L280.377 676.745L278.053 667.15L273.664 667.785L275.989 677.38Z" fill="#FC5C50"/>
<path d="M1087.4 694.529L1087.92 688.947L1078.89 684.191L1078.37 689.773L1087.4 694.529Z" fill="#00B2FF"/>
<path d="M352.843 275.032L354.027 270.468L341.839 269.81L340.655 274.374L352.843 275.032Z" fill="#FC5C50"/>
<path d="M917.624 437.65L914.244 434.404L910.361 437.976L913.741 441.222L917.624 437.65Z" fill="#074ADF"/>
<path d="M934.346 163.496L929.533 160.29L925.466 167.769L930.279 170.975L934.346 163.496Z" fill="#00B2FF"/>
<path d="M144.736 476.317L149.08 475.371L146.123 464.799L141.78 465.746L144.736 476.317Z" fill="#074ADF"/>
<path d="M639.058 392.665L642.924 391.771L641.405 384.577L637.54 385.471L639.058 392.665Z" fill="#FC5C50"/>
<path d="M469.946 362.686L464.868 355.864L458.753 359.135L463.832 365.957L469.946 362.686Z" fill="#00B2FF"/>
<path d="M993.516 452.39L996.314 447.473L984.502 438.456L981.703 443.374L993.516 452.39Z" fill="#00B2FF"/>
<path d="M888.54 264.912L882.746 262.963L881.236 278.495L887.03 280.444L888.54 264.912Z" fill="#FC5C50"/>
<path d="M967.039 302.976L968.063 298.494L963.632 297.864L962.607 302.347L967.039 302.976Z" fill="#FC5C50"/>
<path d="M823.199 638.374L826.996 636.578L823.589 630.762L819.792 632.557L823.199 638.374Z" fill="#074ADF"/>
<path d="M346.849 704.609L343.503 699.531L335.036 704.879L338.382 709.957L346.849 704.609Z" fill="#074ADF"/>
<path d="M1076.82 269.882L1076.36 262.513L1061.57 260.964L1062.03 268.333L1076.82 269.882Z" fill="#00B2FF"/>
<path d="M535.471 689.625L527.597 685.144L525.456 692.92L533.331 697.401L535.471 689.625Z" fill="#FC5C50"/>
<path d="M78.6353 793.693L77.5947 786.008L70.0448 786.297L71.0854 793.982L78.6353 793.693Z" fill="#074ADF"/>
<path d="M835.418 21.7716L836.962 17.5361L824.744 12.8619L823.199 17.0973L835.418 21.7716Z" fill="#074ADF"/>
<path d="M382.602 80.1283L376.811 78.8555L376.619 89.8815L382.41 91.1543L382.602 80.1283Z" fill="#FC5C50"/>
<path d="M1007.38 756.403L1001.75 749.213L993.702 752.257L999.337 759.447L1007.38 756.403Z" fill="#074ADF"/>
<path d="M363.322 692.733L361.345 685.4L342.901 682.317L344.878 689.65L363.322 692.733Z" fill="#074ADF"/>
<path d="M161.821 350.55L168.863 348.399L163.067 329.462L156.025 331.612L161.821 350.55Z" fill="#074ADF"/>
<path d="M422.8 583.161L428.726 581.548L424.867 569.51L418.942 571.123L422.8 583.161Z" fill="#074ADF"/>
<path d="M990.514 625.664L994.978 625.109L993.709 616.076L989.245 616.631L990.514 625.664Z" fill="#00B2FF"/>
<path d="M846.802 356.565L850.784 357.053L850.368 349.115L846.386 348.627L846.802 356.565Z" fill="#FC5C50"/>
<path d="M981.51 547.104L975.309 542.559L967.768 556.514L973.969 561.059L981.51 547.104Z" fill="#00B2FF"/>
<path d="M897.146 413.069L899.515 409.074L886.354 398.794L883.986 402.789L897.146 413.069Z" fill="#074ADF"/>
<path d="M309.449 249.356L313.288 247.27L309.556 240.616L305.717 242.702L309.449 249.356Z" fill="#00B2FF"/>
<path d="M566.739 625.363L566.047 621.472L556.859 618.437L557.551 622.328L566.739 625.363Z" fill="#00B2FF"/>
<path d="M15.2202 712.56L11.6978 707.477L3.86479 713.185L7.3872 718.269L15.2202 712.56Z" fill="#00B2FF"/>
<path d="M822.497 72.0605L818.704 66.8867L811.207 72.8833L815 78.0571L822.497 72.0605Z" fill="#074ADF"/>
<path d="M532.701 130.798L530.661 124.703L518.804 127.294L520.844 133.39L532.701 130.798Z" fill="#FC5C50"/>
<path d="M864.968 707.559L866.874 703.533L858.202 698.984L856.296 703.01L864.968 707.559Z" fill="#FC5C50"/>
<path d="M529.987 372.183L523.333 368.155L514.962 384.375L521.616 388.403L529.987 372.183Z" fill="#00B2FF"/>
<path d="M554.54 484.385L552.381 478.939L538.918 485.8L541.078 491.246L554.54 484.385Z" fill="#FC5C50"/>
<path d="M183.268 231.61L187.01 229.91L182.101 222.549L178.358 224.248L183.268 231.61Z" fill="#074ADF"/>
<path d="M192.755 192.481L198.694 190.875L194.424 181.022L188.485 182.628L192.755 192.481Z" fill="#074ADF"/>
<path d="M547.05 52.6115L544.571 47.9795L534.686 52.7794L537.164 57.4114L547.05 52.6115Z" fill="#FC5C50"/>
<path d="M137.921 224.348L144.138 225.931L143.308 213.81L137.091 212.227L137.921 224.348Z" fill="#00B2FF"/>
<path d="M897.932 754.828L892.188 754.531L894.883 765.272L900.626 765.568L897.932 754.828Z" fill="#FC5C50"/>
<path d="M172.841 637.71L170.708 633.575L165.193 636.106L167.326 640.241L172.841 637.71Z" fill="#FC5C50"/>
<path d="M895.074 474.213L897.847 470.143L887.708 464.683L884.935 468.754L895.074 474.213Z" fill="#FC5C50"/>
<path d="M909.568 693.581L911.292 687.444L902.543 685.87L900.819 692.007L909.568 693.581Z" fill="#074ADF"/>
<path d="M839.558 573.734L845.362 572.352L845.47 565.7L839.666 567.082L839.558 573.734Z" fill="#00B2FF"/>
<path d="M835.337 265L828.012 262.752L827.824 273.501L835.149 275.749L835.337 265Z" fill="#074ADF"/>
<path d="M302.839 47.7106L308.586 46.416L303.02 34.7886L297.273 36.0832L302.839 47.7106Z" fill="#074ADF"/>
<path d="M583.862 574.642L582.125 570.715L572.47 572.134L574.207 576.061L583.862 574.642Z" fill="#FC5C50"/>
<path d="M1091.08 751.026L1096.13 750.109L1090.83 740.276L1085.78 741.192L1091.08 751.026Z" fill="#FC5C50"/>
<path d="M1082.55 717.516L1083.16 712.58L1067.8 705.456L1067.19 710.392L1082.55 717.516Z" fill="#074ADF"/>
<path d="M517.118 208.763L515.87 204.429L508.8 206.582L510.048 210.916L517.118 208.763Z" fill="#074ADF"/>
<path d="M524.812 650.556L525.964 646.776L513.428 638.944L512.276 642.724L524.812 650.556Z" fill="#FC5C50"/>
<path d="M1071.58 400.602L1067.49 397.314L1061.2 406.045L1065.29 409.332L1071.58 400.602Z" fill="#FC5C50"/>
<path d="M1012.56 579.712L1018.94 577.682L1006.67 558.078L1000.29 560.108L1012.56 579.712Z" fill="#FC5C50"/>
<path d="M536.617 775.385L540.52 769.08L530.911 763.252L527.009 769.557L536.617 775.385Z" fill="#00B2FF"/>
<path d="M1012.29 633.082L1018.38 633.418L1016.21 617.115L1010.11 616.78L1012.29 633.082Z" fill="#00B2FF"/>
<path d="M731.873 332.263L733.791 327.109L726.452 323.433L724.535 328.587L731.873 332.263Z" fill="#FC5C50"/>
<path d="M447.165 149.219L446.687 144.731L436.252 143.312L436.731 147.8L447.165 149.219Z" fill="#FC5C50"/>
<path d="M445.613 709.959L441.629 710.098L440.823 715.193L444.807 715.055L445.613 709.959Z" fill="#FC5C50"/>
<path d="M472.671 752.083L478.367 751.787L479.756 735.959L474.06 736.255L472.671 752.083Z" fill="#00B2FF"/>
<path d="M46.6072 383.472L44.7788 379.314L34.4797 383.942L36.3082 388.099L46.6072 383.472Z" fill="#00B2FF"/>
<path d="M766.648 611.882L769.001 608.523L761.889 602.741L759.535 606.1L766.648 611.882Z" fill="#00B2FF"/>
<path d="M880.07 263.031L874.644 260.3L873.278 267.586L878.705 270.317L880.07 263.031Z" fill="#00B2FF"/>
<path d="M283.427 417.094L278.393 417.272L280.325 423.507L285.359 423.329L283.427 417.094Z" fill="#00B2FF"/>
<path d="M991.239 154.43L991.238 149.932L979.268 147.637L979.269 152.134L991.239 154.43Z" fill="#00B2FF"/>
<path d="M673.518 657.114L668.146 653.029L661.235 663.286L666.607 667.371L673.518 657.114Z" fill="#FC5C50"/>
<path d="M846.822 355.814L848.373 349.312L827.013 339.471L825.462 345.974L846.822 355.814Z" fill="#00B2FF"/>
<path d="M695.703 797.289L701.675 798.406L698.197 788.633L692.225 787.515L695.703 797.289Z" fill="#00B2FF"/>
<path d="M232.341 273.364L231.473 268.882L221.042 271.144L221.91 275.626L232.341 273.364Z" fill="#074ADF"/>
<path d="M274.43 633.609L275.069 628.411L263.362 623.341L262.723 628.539L274.43 633.609Z" fill="#FC5C50"/>
<path d="M33.9858 481.322L37.5557 479.699L35.6599 475.534L32.09 477.157L33.9858 481.322Z" fill="#00B2FF"/>
<path d="M286.892 596.772L281.507 594.636L276.322 603.707L281.707 605.844L286.892 596.772Z" fill="#FC5C50"/>
<path d="M688.547 191.474L690.106 187.665L685.906 186.417L684.346 190.226L688.547 191.474Z" fill="#FC5C50"/>
<path d="M971.259 756.812L970.201 752.852H961.139L962.197 756.812H971.259Z" fill="#00B2FF"/>
<path d="M891.531 404.151L891.341 398.374L882.406 396.577L882.596 402.354L891.531 404.151Z" fill="#FC5C50"/>
<path d="M640.506 270.348L635.904 265.55L630.454 269.896L635.055 274.694L640.506 270.348Z" fill="#00B2FF"/>
<path d="M342.505 769.246L347.814 766.664L342.689 759.74L337.38 762.322L342.505 769.246Z" fill="#00B2FF"/>
<path d="M313.709 529.642L319.985 527.742L313.387 509.52L307.11 511.42L313.709 529.642Z" fill="#074ADF"/>
<path d="M654.634 604.649L656.129 600.842L651.377 599.438L649.882 603.245L654.634 604.649Z" fill="#FC5C50"/>
<path d="M871.267 503.85L871.41 499.991L862.796 497.144L862.652 501.003L871.267 503.85Z" fill="#074ADF"/>
<path d="M348.27 306.374L346.888 300.683L340.774 301.011L342.157 306.703L348.27 306.374Z" fill="#00B2FF"/>
<path d="M424.071 470.904L416.868 470.513L415.384 480.265L422.587 480.656L424.071 470.904Z" fill="#FC5C50"/>
<path d="M82.6288 418.611L82.8359 414.668L72.1674 411.999L71.9603 415.943L82.6288 418.611Z" fill="#FC5C50"/>
<path d="M234.827 137.274L236.958 133.436L229.939 129.238L227.807 133.077L234.827 137.274Z" fill="#074ADF"/>
<path d="M961.693 406.671L964.673 400.277L951.171 392.895L948.191 399.288L961.693 406.671Z" fill="#074ADF"/>
<path d="M427.042 377.951L420.381 373.27L415.051 384.535L421.713 389.216L427.042 377.951Z" fill="#00B2FF"/>
<path d="M14.6712 784.43L20.9697 779.365L11.8796 766.831L5.58112 771.896L14.6712 784.43Z" fill="#074ADF"/>
<path d="M622.079 650.604L629.439 649.962L628.985 636.982L621.625 637.624L622.079 650.604Z" fill="#FC5C50"/>
<path d="M506.574 451.201L509.549 445.829L502.339 440.642L499.364 446.013L506.574 451.201Z" fill="#074ADF"/>
<path d="M449.75 537.426L445.177 533.348L438.669 541.42L443.242 545.498L449.75 537.426Z" fill="#FC5C50"/>
<path d="M264.707 133.493L265.778 130.093L257.879 125.844L256.808 129.244L264.707 133.493Z" fill="#FC5C50"/>
<path d="M289.518 581.642L289.261 574.288L281.369 575.401L281.626 582.755L289.518 581.642Z" fill="#074ADF"/>
<path d="M142.832 248.827L139.12 246.414L134.828 255.105L138.541 257.518L142.832 248.827Z" fill="#00B2FF"/>
<path d="M991.864 378.14L993.576 375.015L984.713 368.731L983.001 371.856L991.864 378.14Z" fill="#074ADF"/>
<path d="M854.632 675.893L858.39 672.656L843.465 657.366L839.707 660.603L854.632 675.893Z" fill="#074ADF"/>
<path d="M1019.27 744.009L1014.66 739.373L1007.8 745.619L1012.41 750.255L1019.27 744.009Z" fill="#00B2FF"/>
<path d="M894.793 266.716L898.021 262.713L891.81 257.509L888.581 261.512L894.793 266.716Z" fill="#074ADF"/>
<path d="M347.445 731.515L343.047 729.332L342.624 738.815L347.022 740.998L347.445 731.515Z" fill="#FC5C50"/>
<path d="M1002.3 764.182L1003.19 758.566L994.26 757.304L993.373 762.919L1002.3 764.182Z" fill="#00B2FF"/>
<path d="M321.205 420.053L314.684 417.271L312.581 424.04L319.102 426.822L321.205 420.053Z" fill="#FC5C50"/>
<path d="M438.827 660.647L438.729 656.537L431.619 656.003L431.718 660.113L438.827 660.647Z" fill="#074ADF"/>
<path d="M532.526 335.979H539.122L537.651 316.739H531.055L532.526 335.979Z" fill="#FC5C50"/>
<path d="M250.599 591.961L243.131 587.701L239.507 598.464L246.975 602.724L250.599 591.961Z" fill="#074ADF"/>
<path d="M136.371 448.406L133.071 444.545L129.555 446.55L132.856 450.411L136.371 448.406Z" fill="#074ADF"/>
<path d="M566.502 193.861L570.317 189.266L559.671 179.915L555.855 184.511L566.502 193.861Z" fill="#074ADF"/>
<path d="M100.977 694.467L107.935 696.295L106.203 679.81L99.2464 677.982L100.977 694.467Z" fill="#00B2FF"/>
<path d="M88.8728 183.715L89.4155 176.721L74.3451 171.351L73.8024 178.345L88.8728 183.715Z" fill="#00B2FF"/>
<path d="M68.496 567.729L74.1299 566.938L73.6957 560.741L68.0619 561.533L68.496 567.729Z" fill="#FC5C50"/>
<path d="M794.854 625.172L792.443 621.326L783.359 624.517L785.769 628.363L794.854 625.172Z" fill="#FC5C50"/>
<path d="M242.813 254.998L236.701 253.062L238.743 262.623L244.855 264.559L242.813 254.998Z" fill="#00B2FF"/>
<path d="M134.552 144.525L130 138.356L116.112 147.909L120.664 154.078L134.552 144.525Z" fill="#00B2FF"/>
<path d="M310.9 64.8908L312.668 61.0391L304.357 58.844L302.589 62.6958L310.9 64.8908Z" fill="#074ADF"/>
<path d="M984.039 208.423L987.279 205.271L984.827 202.81L981.587 205.961L984.039 208.423Z" fill="#FC5C50"/>
<path d="M934.387 425.07L936.268 418.964L919.873 410.847L917.993 416.953L934.387 425.07Z" fill="#074ADF"/>
<path d="M542.938 392.472L536.156 392.354L534.962 400.839L541.743 400.958L542.938 392.472Z" fill="#074ADF"/>
<path d="M602.193 565.349L603.926 561.131L592.576 556.207L590.843 560.425L602.193 565.349Z" fill="#00B2FF"/>
<path d="M871.412 519.145L865.446 516.224L859.844 531.209L865.81 534.13L871.412 519.145Z" fill="#00B2FF"/>
<path d="M722.889 696.565L725.074 692.671L715.683 687.114L713.498 691.008L722.889 696.565Z" fill="#FC5C50"/>
<path d="M1119.42 114.598L1114.82 114.046L1115.26 120.226L1119.86 120.778L1119.42 114.598Z" fill="#00B2FF"/>
<path d="M803.714 526.384L803.336 521.674L791.257 516.163L791.635 520.872L803.714 526.384Z" fill="#074ADF"/>
<path d="M161.757 569.294L161.318 564.326L153.019 562.4L153.458 567.367L161.757 569.294Z" fill="#074ADF"/>
<path d="M518.434 548.294L519.978 541.675L507.976 536.46L506.432 543.079L518.434 548.294Z" fill="#FC5C50"/>
<path d="M398.774 732.714L402.366 727.191L390.872 719.167L387.28 724.689L398.774 732.714Z" fill="#074ADF"/>
<path d="M419.577 518.794L422.464 514.875L412.212 508.369L409.325 512.289L419.577 518.794Z" fill="#00B2FF"/>
<path d="M19.2552 479.989L25.5625 478.692L25.1943 468.708L18.8869 470.005L19.2552 479.989Z" fill="#00B2FF"/>
<path d="M1001.46 510.06L1005.74 509.262L1002.98 500.776L998.705 501.574L1001.46 510.06Z" fill="#074ADF"/>
<path d="M92.3909 542.43L96.0439 539.272L91.922 534.151L88.269 537.308L92.3909 542.43Z" fill="#074ADF"/>
<path d="M264.141 535.586L261.29 531.515L250.488 539.356L253.339 543.428L264.141 535.586Z" fill="#00B2FF"/>
<path d="M938.878 362.612L941.628 357.91L930.217 350.616L927.466 355.318L938.878 362.612Z" fill="#074ADF"/>
<path d="M479.103 340.77L472.191 340.177L474.293 352.04L481.205 352.634L479.103 340.77Z" fill="#074ADF"/>
<path d="M140.523 157.753L146.047 152.805L134.947 140.123L129.422 145.071L140.523 157.753Z" fill="#FC5C50"/>
<path d="M173.333 407.046L176.02 404.554L170.055 398.398L167.368 400.89L173.333 407.046Z" fill="#074ADF"/>
<path d="M161.783 402.686L161.513 397.35L154.798 395.213L155.068 400.549L161.783 402.686Z" fill="#074ADF"/>
<path d="M595.593 342.623L596.461 338.148L586.284 334.489L585.416 338.964L595.593 342.623Z" fill="#00B2FF"/>
<path d="M89.2806 406.044L83.5708 403.023L79.1919 412.437L84.9017 415.458L89.2806 406.044Z" fill="#00B2FF"/>
<path d="M379.01 741.18L377.583 736.604L368.183 740.819L369.61 745.396L379.01 741.18Z" fill="#FC5C50"/>
<path d="M384.174 510.821L384.425 507L376.35 504.809L376.098 508.63L384.174 510.821Z" fill="#00B2FF"/>
<path d="M1066.29 553.303L1067.57 549.87L1059.62 544.908L1058.34 548.341L1066.29 553.303Z" fill="#074ADF"/>
<path d="M780.18 627.507L774.819 623.61L767.839 632.884L773.2 636.78L780.18 627.507Z" fill="#074ADF"/>
<path d="M163.454 418.996L163.867 414.706L155.778 411.824L155.365 416.114L163.454 418.996Z" fill="#074ADF"/>
<path d="M679.877 101.109H674.841L672.296 110.274H677.332L679.877 101.109Z" fill="#00B2FF"/>
<path d="M619.974 226.876L616.451 221.831L611.368 225.468L614.891 230.513L619.974 226.876Z" fill="#FC5C50"/>
<path d="M165.07 704.671L160.354 703.797L161.453 709.982L166.169 710.856L165.07 704.671Z" fill="#00B2FF"/>
<path d="M1029.42 481.453L1026.86 475.532L1010.51 481.801L1013.07 487.721L1029.42 481.453Z" fill="#FC5C50"/>
<path d="M1111.22 255.849L1103.7 254.445L1104 271.671L1111.52 273.075L1111.22 255.849Z" fill="#00B2FF"/>
<path d="M216.049 560.574L215.735 554.553L197.375 545.429L197.69 551.45L216.049 560.574Z" fill="#FC5C50"/>
<path d="M40.2371 124.662L46.5508 123.812L39.712 107.677L33.3984 108.526L40.2371 124.662Z" fill="#00B2FF"/>
<path d="M420.277 165.867L418.176 161.918L408.224 167.618L410.325 171.566L420.277 165.867Z" fill="#074ADF"/>
<path d="M499.091 75.3398L494.396 70.2676L484.388 78.978L489.082 84.0502L499.091 75.3398Z" fill="#074ADF"/>
<path d="M382.169 11.3194L386.666 10.1416L385.48 1.89985L380.984 3.07762L382.169 11.3194Z" fill="#FC5C50"/>
<path d="M889.013 154.447L888.746 150.187L876.981 154.49L877.248 158.751L889.013 154.447Z" fill="#00B2FF"/>
<path d="M800.29 631.65L803.479 628.242L795.324 620.674L792.135 624.081L800.29 631.65Z" fill="#00B2FF"/>
<path d="M262.746 209.107L260.576 201.901L240.068 206.764L242.238 213.969L262.746 209.107Z" fill="#074ADF"/>
<path d="M593.988 475.99L587.17 473.835L589.248 490.52L596.066 492.675L593.988 475.99Z" fill="#074ADF"/>
<path d="M724.533 256.264L725.967 251.716L718.72 251.458L717.286 256.006L724.533 256.264Z" fill="#00B2FF"/>
<path d="M60.0571 231.493L66.8081 230.689L63.6631 223.041L56.9121 223.845L60.0571 231.493Z" fill="#00B2FF"/>
<path d="M436.851 424.187L436.92 420.237L432.364 420.952L432.295 424.902L436.851 424.187Z" fill="#FC5C50"/>
<path d="M1121.7 343.537L1124.25 338.821L1114.1 332.46L1111.55 337.175L1121.7 343.537Z" fill="#00B2FF"/>
<path d="M885.3 287.362L889.191 285.306L883.346 275.218L879.454 277.274L885.3 287.362Z" fill="#074ADF"/>
<path d="M373.84 295.513L366.43 294.216L367.083 312.884L374.493 314.181L373.84 295.513Z" fill="#00B2FF"/>
<path d="M495.782 570.662L495.077 565.979L483.384 564.688L484.089 569.37L495.782 570.662Z" fill="#074ADF"/>
<path d="M859.804 731.184L858.031 723.57H838.332L840.105 731.184H859.804Z" fill="#00B2FF"/>
<path d="M915.899 674.519L913.983 666.839L902.429 666.189L904.345 673.868L915.899 674.519Z" fill="#00B2FF"/>
<path d="M526.267 120.616L531.928 118.626L519.058 100.73L513.397 102.719L526.267 120.616Z" fill="#00B2FF"/>
<path d="M825.873 577.937L830.015 574.833L819.753 562.405L815.612 565.509L825.873 577.937Z" fill="#00B2FF"/>
<path d="M389.542 567.222L387.834 562.727L377.334 565.115L379.043 569.61L389.542 567.222Z" fill="#00B2FF"/>
<path d="M687.022 453.52L681.183 450.106L677.157 461.033L682.997 464.447L687.022 453.52Z" fill="#074ADF"/>
<path d="M1053.46 735.318L1046.97 732.529L1043.67 742.967L1050.15 745.755L1053.46 735.318Z" fill="#00B2FF"/>
<path d="M786.161 469.321L786.62 465.006L779.138 462.728L778.679 467.042L786.161 469.321Z" fill="#074ADF"/>
<path d="M91.5319 255.573L93.9912 250.235L87.1511 246.445L84.6918 251.783L91.5319 255.573Z" fill="#00B2FF"/>
<path d="M620.142 373.205L620.66 365.854L607.024 366.328L606.506 373.679L620.142 373.205Z" fill="#00B2FF"/>
<path d="M468.481 785.826L461.741 783.604L460.253 791.671L466.993 793.893L468.481 785.826Z" fill="#FC5C50"/>
<path d="M689.579 55.6962L694.311 53.2129L685.658 39.4656L680.927 41.9489L689.579 55.6962Z" fill="#00B2FF"/>
<path d="M1133.72 324.463L1130.12 318.184L1113.83 326.104L1117.42 332.383L1133.72 324.463Z" fill="#00B2FF"/>
<path d="M217.928 153.457L219.761 149.292L212.64 145.893L210.806 150.058L217.928 153.457Z" fill="#00B2FF"/>
<path d="M641.503 336.205L648.618 336.612L641.738 316.895L634.623 316.488L641.503 336.205Z" fill="#074ADF"/>
<path d="M290.653 615.649L284.671 610.105L275.965 620.841L281.948 626.385L290.653 615.649Z" fill="#FC5C50"/>
<path d="M448.104 250.26L453.08 249.728L449.439 236.785L444.463 237.318L448.104 250.26Z" fill="#FC5C50"/>
<path d="M760.319 205.044L761.302 199.465L753.502 198.088L752.519 203.666L760.319 205.044Z" fill="#FC5C50"/>
<path d="M532.209 706.622L529.57 700.981L515.486 703.667L518.124 709.307L532.209 706.622Z" fill="#00B2FF"/>
<path d="M773.131 541.809L769.744 538.048L762.614 543.756L766.001 547.517L773.131 541.809Z" fill="#FC5C50"/>
<path d="M288.532 415.473L293.861 413.838L287.955 404.405L282.625 406.041L288.532 415.473Z" fill="#00B2FF"/>
<path d="M721.635 529.08L727.632 525.796L715.365 506.113L709.368 509.397L721.635 529.08Z" fill="#FC5C50"/>
<path d="M812.156 84.5875L811.869 80.7002L804.263 79.297L804.55 83.1843L812.156 84.5875Z" fill="#00B2FF"/>
<path d="M1000.47 83.6436L1002.63 79.2734L991.805 73.1464L989.641 77.5166L1000.47 83.6436Z" fill="#00B2FF"/>
<path d="M203.519 385.268L198.599 378.986L187.806 382.403L192.725 388.685L203.519 385.268Z" fill="#074ADF"/>
<path d="M229.453 242.611L222.837 240.841L220.767 250.751L227.383 252.521L229.453 242.611Z" fill="#00B2FF"/>
<path d="M820.783 598.637L821.93 595.001L814.995 591.56L813.848 595.196L820.783 598.637Z" fill="#00B2FF"/>
<path d="M532.554 92.1178L526.048 91.0371L528.365 104.967L534.871 106.048L532.554 92.1178Z" fill="#074ADF"/>
<path d="M613.224 155.523L614.198 150.582L601.949 147.571L600.975 152.512L613.224 155.523Z" fill="#00B2FF"/>
<path d="M1054.53 696.785L1055.43 691.016L1048.49 688.473L1047.6 694.242L1054.53 696.785Z" fill="#00B2FF"/>
<path d="M234.795 294.325L231.644 290.66L222.666 298.524L225.818 302.189L234.795 294.325Z" fill="#074ADF"/>
<path d="M390.015 549.282L394.106 546.636L382.685 534.206L378.594 536.853L390.015 549.282Z" fill="#FC5C50"/>
<path d="M962.213 144.275L958.284 144.485L957.501 153.664L961.429 153.453L962.213 144.275Z" fill="#FC5C50"/>
<path d="M800.946 298.787L802.586 294.615L788.488 286.502L786.849 290.673L800.946 298.787Z" fill="#074ADF"/>
<path d="M323.354 443.225L319.016 436.943L310.684 439.506L315.022 445.787L323.354 443.225Z" fill="#FC5C50"/>
<path d="M800.4 363.395L795.804 361.954L795.627 371.381L800.223 372.822L800.4 363.395Z" fill="#074ADF"/>
<path d="M1118.62 492.394L1119.67 487.441L1107.5 484.423L1106.45 489.375L1118.62 492.394Z" fill="#074ADF"/>
<path d="M100.012 70.9228L92.4888 67.3828L91.6731 76.711L99.1967 80.2509L100.012 70.9228Z" fill="#074ADF"/>
<path d="M133.695 298.69L131.134 292.98L115.736 292.442L118.297 298.151L133.695 298.69Z" fill="#FC5C50"/>
<path d="M313.805 548.666L307.355 545.477L304.82 551.974L311.27 555.163L313.805 548.666Z" fill="#00B2FF"/>
<path d="M160.564 705.302L167.294 703.431L165.414 693.097L158.684 694.968L160.564 705.302Z" fill="#00B2FF"/>
<path d="M705.213 35.5765L698.948 32.5635L694.624 43.3743L700.889 46.3873L705.213 35.5765Z" fill="#FC5C50"/>
<path d="M469.166 648.936L462.761 647.855L463.284 655.099L469.688 656.18L469.166 648.936Z" fill="#00B2FF"/>
<path d="M1050.57 654.766L1045.94 650.775L1042.7 654.908L1047.33 658.898L1050.57 654.766Z" fill="#074ADF"/>
<path d="M187.407 559.608L189.155 555.242L176.823 547.549L175.074 551.915L187.407 559.608Z" fill="#074ADF"/>
<path d="M1094.04 82.625L1095.96 78.8672L1089.01 76.1318L1087.08 79.8895L1094.04 82.625Z" fill="#FC5C50"/>
<path d="M574.954 714.588L579.614 713.564L579.935 704.142L575.274 705.166L574.954 714.588Z" fill="#074ADF"/>
<path d="M188.344 733.543L189.438 729.049L179.012 727.358L177.918 731.853L188.344 733.543Z" fill="#FC5C50"/>
<path d="M771.95 448.634L771.24 444.26L759.431 447.336L760.14 451.711L771.95 448.634Z" fill="#00B2FF"/>
<path d="M837.581 490.597L832.05 484.877L824.881 492.527L830.412 498.247L837.581 490.597Z" fill="#074ADF"/>
<path d="M640.44 317.27L643.446 313.43L639.551 310.73L636.545 314.57L640.44 317.27Z" fill="#00B2FF"/>
<path d="M1054.36 106.252L1048.27 101.452L1039.76 113.053L1045.86 117.853L1054.36 106.252Z" fill="#074ADF"/>
<path d="M422.5 692.709L418.006 693.426L418.243 697.951L422.738 697.235L422.5 692.709Z" fill="#00B2FF"/>
<path d="M552.96 385.419L552.711 378.171L539.975 375.564L540.224 382.812L552.96 385.419Z" fill="#00B2FF"/>
<path d="M1008.28 84.6452L1002.13 84.9717L1004.36 94.5991L1010.51 94.2727L1008.28 84.6452Z" fill="#FC5C50"/>
<path d="M824.29 417.296L816.699 415.517L816.722 433.633L824.313 435.413L824.29 417.296Z" fill="#FC5C50"/>
<path d="M309.901 253.785L305.733 249.231L298.579 255.794L302.747 260.348L309.901 253.785Z" fill="#074ADF"/>
<path d="M202.878 647.023L199.512 643.263L192.401 649.886L195.767 653.646L202.878 647.023Z" fill="#FC5C50"/>
<path d="M363.208 -4.16933L357.667 -4.66309L354.819 5.49493L360.359 5.98868L363.208 -4.16933Z" fill="#FC5C50"/>
<path d="M456.681 730.876L455.798 724.021L436.205 724.37L437.088 731.225L456.681 730.876Z" fill="#00B2FF"/>
<path d="M1042.47 160.539L1036.55 159.358L1037.81 169.357L1043.72 170.537L1042.47 160.539Z" fill="#FC5C50"/>
<path d="M654.658 428.153L652.523 423.721L647.002 425.468L649.137 429.9L654.658 428.153Z" fill="#074ADF"/>
<path d="M626.053 300.13L619.889 296.924L613.195 315.277L619.359 318.483L626.053 300.13Z" fill="#FC5C50"/>
<path d="M279.451 202.752L283.602 197.668L271.443 187.93L267.292 193.014L279.451 202.752Z" fill="#074ADF"/>
<path d="M799.014 503.632L799.687 499.633L793.076 498.912L792.404 502.911L799.014 503.632Z" fill="#074ADF"/>
<path d="M757.603 191.886L753.729 189.535L750.839 196.468L754.713 198.818L757.603 191.886Z" fill="#074ADF"/>
<path d="M205.807 156.407L206.044 150.32L188.647 142.769L188.41 148.856L205.807 156.407Z" fill="#FC5C50"/>
<path d="M443.838 83.8935L438.176 83.3018L437.35 99.0646L443.011 99.6564L443.838 83.8935Z" fill="#00B2FF"/>
<path d="M808.375 200.82L813.121 197.796L802.667 184.404L797.92 187.428L808.375 200.82Z" fill="#FC5C50"/>
<path d="M549.163 704.127L545.949 700.952L543.425 703.344L546.639 706.519L549.163 704.127Z" fill="#FC5C50"/>
<path d="M290.019 556.678L290.956 553.21L284.084 549.914L283.147 553.383L290.019 556.678Z" fill="#FC5C50"/>
<path d="M467.961 318.311L471.462 317.217L465.653 306.859L462.152 307.954L467.961 318.311Z" fill="#FC5C50"/>
<path d="M740.461 39.5061L735.989 35.0996L726.13 45.1649L730.602 49.5713L740.461 39.5061Z" fill="#00B2FF"/>
<path d="M1021.48 382.517L1017.9 378.395L1004.93 390.036L1008.51 394.158L1021.48 382.517Z" fill="#00B2FF"/>
<path d="M268.934 584.203L266.488 580.05L260.816 580.506L263.262 584.66L268.934 584.203Z" fill="#00B2FF"/>
<path d="M705.319 675.534L706.355 671.541L700.815 671.242L699.779 675.235L705.319 675.534Z" fill="#FC5C50"/>
<path d="M468.248 17.1092L464.123 11.2266L448.188 21.1325L452.312 27.0151L468.248 17.1092Z" fill="#074ADF"/>
<path d="M204.798 162.443L203.844 158.305L200.016 158.16L200.97 162.299L204.798 162.443Z" fill="#00B2FF"/>
<path d="M219.62 525.495L224.699 524.787L214.888 510.38L209.808 511.088L219.62 525.495Z" fill="#00B2FF"/>
<path d="M115.511 353.806L113.15 349.481L105.573 352.976L107.934 357.301L115.511 353.806Z" fill="#FC5C50"/>
<path d="M517.625 492.233L521.335 487.202L514.179 481.185L510.469 486.216L517.625 492.233Z" fill="#00B2FF"/>
<path d="M265.859 631.227L263.45 624.339L252.776 627.344L255.185 634.232L265.859 631.227Z" fill="#FC5C50"/>
<path d="M596.302 686.407L591.722 685.074L590.608 697.066L595.188 698.399L596.302 686.407Z" fill="#00B2FF"/>
<path d="M274.931 665.098L281.6 664.144L279.151 646.041L272.482 646.995L274.931 665.098Z" fill="#FC5C50"/>
<path d="M37.0635 60.8655L34.5386 55.4268L27.3028 57.6101L29.8277 63.0489L37.0635 60.8655Z" fill="#074ADF"/>
<path d="M547.697 152.584L553.361 153.187L552.251 144.016L546.586 143.414L547.697 152.584Z" fill="#00B2FF"/>
<path d="M5.65922 353.113L9.16064 348.309L0.643057 342.605L-2.85837 347.409L5.65922 353.113Z" fill="#074ADF"/>
<path d="M3.14558 299.804L10.5859 298.021L9.04848 277.111L1.60812 278.894L3.14558 299.804Z" fill="#00B2FF"/>
<path d="M653.146 226.462L652.979 220.214L641.789 216.041L641.956 222.289L653.146 226.462Z" fill="#00B2FF"/>
<path d="M837.422 378.628L840.897 374.834L832.891 366.977L829.415 370.772L837.422 378.628Z" fill="#074ADF"/>
<path d="M297.759 483.415L296.395 479.878L286.23 484.77L287.594 488.307L297.759 483.415Z" fill="#FC5C50"/>
<path d="M911.729 652.181L911.742 648.221L905.514 647.235L905.501 651.195L911.729 652.181Z" fill="#00B2FF"/>
<path d="M265.169 772.031L258.188 770.137L258.144 788.306L265.124 790.2L265.169 772.031Z" fill="#074ADF"/>
<path d="M401.801 409.527L406.135 408.121L404.734 403.252L400.4 404.658L401.801 409.527Z" fill="#074ADF"/>
<path d="M98.3851 511.221L101.722 509.611L98.2045 502.569L94.8674 504.179L98.3851 511.221Z" fill="#00B2FF"/>
<path d="M702.275 447.751L705.527 445.223L699.258 439.258L696.005 441.786L702.275 447.751Z" fill="#00B2FF"/>
<path d="M637.399 377.979L640.194 374.827L632.793 368.269L629.998 371.421L637.399 377.979Z" fill="#00B2FF"/>
<path d="M826.141 126.576L827.694 122.647L820.669 118.961L819.115 122.89L826.141 126.576Z" fill="#00B2FF"/>
<path d="M753.815 652.211L752.497 646.001L740.886 647.457L742.203 653.667L753.815 652.211Z" fill="#FC5C50"/>
<path d="M434.05 234.025L436.755 230.414L432.297 226.888L429.592 230.498L434.05 234.025Z" fill="#074ADF"/>
<path d="M623.547 326.32L626.461 322.033L618.133 316.466L615.219 320.752L623.547 326.32Z" fill="#FC5C50"/>
<path d="M621.164 275.112L616.562 274.043L612.175 282.425L616.777 283.494L621.164 275.112Z" fill="#074ADF"/>
<path d="M903.685 386.137L906.026 382.582L901.881 380.253L899.539 383.808L903.685 386.137Z" fill="#074ADF"/>
<path d="M1089.9 270.94L1094.97 266.69L1085.26 254.676L1080.18 258.925L1089.9 270.94Z" fill="#FC5C50"/>
<path d="M379.854 220.49L378.03 215.92L369.058 220.319L370.881 224.889L379.854 220.49Z" fill="#FC5C50"/>
<path d="M363.602 271.054L363.612 265.983L355.404 262.023L355.394 267.093L363.602 271.054Z" fill="#FC5C50"/>
<path d="M142.354 223.914L143.63 216.668L135.924 214.722L134.647 221.968L142.354 223.914Z" fill="#00B2FF"/>
<path d="M521.582 115.288L526.619 114.224L525.39 105.321L520.353 106.386L521.582 115.288Z" fill="#074ADF"/>
<path d="M454.082 544.577L449.581 538.583L440.636 542.336L445.137 548.329L454.082 544.577Z" fill="#FC5C50"/>
<path d="M1053.86 227.744L1055.51 222.988L1040.77 214.958L1039.12 219.714L1053.86 227.744Z" fill="#074ADF"/>
<path d="M607.437 554.945L606.862 551.084L600.262 549.683L600.837 553.544L607.437 554.945Z" fill="#00B2FF"/>
<path d="M94.9816 206.858L98.7402 205.084L91.5627 196.961L87.8041 198.735L94.9816 206.858Z" fill="#00B2FF"/>
<path d="M131.537 421.005L124.838 418.343L122.512 427.752L129.21 430.415L131.537 421.005Z" fill="#FC5C50"/>
<path d="M1115.24 148.663L1113.83 144.684L1108.41 147.556L1109.82 151.536L1115.24 148.663Z" fill="#00B2FF"/>
<path d="M684.954 182.481L678.423 178.993L675.948 187.926L682.479 191.414L684.954 182.481Z" fill="#FC5C50"/>
<path d="M561.637 560.901L565.912 555.62L555.608 546.758L551.333 552.039L561.637 560.901Z" fill="#00B2FF"/>
<path d="M583.284 520.917L575.745 520.016L577.845 531.872L585.384 532.773L583.284 520.917Z" fill="#074ADF"/>
<path d="M308.229 457.529L303.834 454.937L302.394 462.254L306.789 464.847L308.229 457.529Z" fill="#FC5C50"/>
<path d="M45.9298 701.248L51.3608 701.456L49.0704 689.567L43.6393 689.359L45.9298 701.248Z" fill="#FC5C50"/>
<path d="M758.062 479.682L755.196 473.08L743.784 478.773L746.649 485.375L758.062 479.682Z" fill="#00B2FF"/>
<path d="M462.057 211.261L459.713 207.279L454.181 209.366L456.525 213.348L462.057 211.261Z" fill="#FC5C50"/>
<path d="M696.665 317.315L698.987 313.088L694.412 310.237L692.09 314.464L696.665 317.315Z" fill="#00B2FF"/>
<path d="M1066.08 445.368L1058.74 442.19L1055.94 456.867L1063.29 460.045L1066.08 445.368Z" fill="#074ADF"/>
<path d="M946.902 36.2132L944.093 33.7617L938.474 40.0371L941.283 42.4886L946.902 36.2132Z" fill="#074ADF"/>
<path d="M262.098 305.639L259.043 302.575L252.452 309.185L255.506 312.248L262.098 305.639Z" fill="#FC5C50"/>
<path d="M563.955 44.9684L567.753 38.7773L558.235 32.3529L554.437 38.5439L563.955 44.9684Z" fill="#FC5C50"/>
<path d="M315.135 53.9506L311.325 52.4023L308.327 61.7815L312.138 63.3297L315.135 53.9506Z" fill="#00B2FF"/>
<path d="M491.137 782.119L490.089 778.168L483.401 778.642L484.449 782.593L491.137 782.119Z" fill="#00B2FF"/>
<path d="M136.334 341.389L129.242 339.615L130.47 357.273L137.562 359.047L136.334 341.389Z" fill="#FC5C50"/>
<path d="M765.174 354.973L769.022 353.595L762.061 345.595L758.213 346.973L765.174 354.973Z" fill="#00B2FF"/>
<path d="M476.372 567.34L469.865 562.343L461.809 574.723L468.316 579.719L476.372 567.34Z" fill="#FC5C50"/>
<path d="M182.252 87.4709L185.121 84.9492L177.151 75.8692L174.282 78.3908L182.252 87.4709Z" fill="#FC5C50"/>
<path d="M1117.05 379.216L1117.81 372.979L1111.61 372.87L1110.85 379.107L1117.05 379.216Z" fill="#074ADF"/>
<path d="M162.71 649.892L159.676 642.172L139.217 639.547L142.251 647.267L162.71 649.892Z" fill="#00B2FF"/>
<path d="M1015 598.726L1011.35 594.317L1001.19 598.193L1004.83 602.602L1015 598.726Z" fill="#074ADF"/>
<path d="M263.613 764.982L261.778 757.498L244.763 753.95L246.598 761.433L263.613 764.982Z" fill="#00B2FF"/>
<path d="M747.842 513.131L740.896 511.488L740.553 520.82L747.499 522.462L747.842 513.131Z" fill="#074ADF"/>
<path d="M238.57 397.654L238.033 392.37L229.192 388.92L229.729 394.205L238.57 397.654Z" fill="#FC5C50"/>
<path d="M760.963 443.389L761.47 439.514L750.897 434.367L750.39 438.243L760.963 443.389Z" fill="#00B2FF"/>
<path d="M922.849 619.766L926.205 618.786L918.849 607.563L915.494 608.542L922.849 619.766Z" fill="#074ADF"/>
<path d="M425.895 218.945L424.868 215.082L417.287 217.152L418.314 221.015L425.895 218.945Z" fill="#074ADF"/>
<path d="M361.994 425.523L367.457 422.124L362.657 415.256L357.193 418.655L361.994 425.523Z" fill="#00B2FF"/>
<path d="M543.013 113.342L543.547 108.253L534.512 107.937L533.978 113.026L543.013 113.342Z" fill="#074ADF"/>
<path d="M891.815 406.511L895.372 404.44L892.522 398.532L888.965 400.603L891.815 406.511Z" fill="#00B2FF"/>
<path d="M826.957 646.417L824.576 642.554L815.278 649.271L817.659 653.135L826.957 646.417Z" fill="#074ADF"/>
<path d="M146.993 537.023L151.524 537.341L151.208 532.792L146.676 532.474L146.993 537.023Z" fill="#FC5C50"/>
<path d="M222.989 118.649L228.163 114.904L218.963 101.802L213.79 105.547L222.989 118.649Z" fill="#00B2FF"/>
<path d="M865.51 105.354L859.747 104.566L860.084 110.73L865.847 111.517L865.51 105.354Z" fill="#074ADF"/>
<path d="M1018.37 71.4291L1012.17 66.9014L1000.71 83.3955L1006.91 87.9233L1018.37 71.4291Z" fill="#FC5C50"/>
<path d="M967.878 471.327L973.083 469.295L969.549 460.824L964.343 462.856L967.878 471.327Z" fill="#00B2FF"/>
<path d="M574.264 659.432L579.142 658.81L573.709 644.718L568.832 645.341L574.264 659.432Z" fill="#FC5C50"/>
<path d="M426.793 4.69509L421.871 3.19531L420.663 8.10085L425.586 9.60063L426.793 4.69509Z" fill="#00B2FF"/>
<path d="M757.219 19.0637L762.768 13.8506L750.878 1.45678L745.329 6.66986L757.219 19.0637Z" fill="#074ADF"/>
<path d="M316.084 435.026L312.845 430.722L303.6 435.059L306.84 439.363L316.084 435.026Z" fill="#FC5C50"/>
<path d="M340.417 305.966L335.062 301.946L332.006 307.193L337.362 311.213L340.417 305.966Z" fill="#FC5C50"/>
<path d="M842.695 112.202L837.658 109.278L832.488 116.775L837.525 119.699L842.695 112.202Z" fill="#FC5C50"/>
<path d="M777.41 87.9882L778.07 83.373L768.028 79.3081L767.367 83.9232L777.41 87.9882Z" fill="#00B2FF"/>
<path d="M187.36 485.653L183.323 484.826L183.313 492.047L187.351 492.874L187.36 485.653Z" fill="#FC5C50"/>
<path d="M1117.89 384.489L1116.8 378.812L1100.94 378.534L1102.03 384.212L1117.89 384.489Z" fill="#074ADF"/>
<path d="M863.581 558.387L867.351 557.764L864.729 550.46L860.96 551.083L863.581 558.387Z" fill="#FC5C50"/>
<path d="M401.521 338.386L397.75 332.97L386.136 341.786L389.906 347.202L401.521 338.386Z" fill="#FC5C50"/>
<path d="M995.4 424.125L995.012 418.571L984.463 416.263L984.852 421.817L995.4 424.125Z" fill="#074ADF"/>
<path d="M46.5288 93.6772L46.8833 86.9697L35.0688 82.6974L34.7143 89.4049L46.5288 93.6772Z" fill="#FC5C50"/>
<path d="M935.992 714.863L940.51 711.932L934.102 700.767L929.584 703.699L935.992 714.863Z" fill="#074ADF"/>
<path d="M937.562 353.535L931.497 349.574L926.588 364.387L932.653 368.348L937.562 353.535Z" fill="#00B2FF"/>
<path d="M624.762 639.596L620.589 634.663L611.039 638.581L615.212 643.514L624.762 639.596Z" fill="#074ADF"/>
<path d="M1076.33 412.434L1071.4 411.106L1069.62 418.814L1074.55 420.142L1076.33 412.434Z" fill="#FC5C50"/>
<path d="M551.519 329.263L545.501 328.058L542.546 343.283L548.563 344.488L551.519 329.263Z" fill="#00B2FF"/>
<path d="M643.897 586.063L640.681 582.34L631.413 590.442L634.629 594.166L643.897 586.063Z" fill="#00B2FF"/>
<path d="M210.643 44.4183L203.715 43.5898L204.611 52.0238L211.539 52.8523L210.643 44.4183Z" fill="#074ADF"/>
<path d="M938.032 638.77L944.156 635.375L935.444 618.225L929.32 621.62L938.032 638.77Z" fill="#074ADF"/>
<path d="M941.901 789.148L947.314 789.045L943.404 776.688L937.99 776.791L941.901 789.148Z" fill="#FC5C50"/>
<path d="M257.74 160.256L258.006 155.165L247.272 154.602L247.006 159.693L257.74 160.256Z" fill="#074ADF"/>
<path d="M885.226 606.882L885.14 600.88L870.377 595.368L870.464 601.371L885.226 606.882Z" fill="#074ADF"/>
<path d="M824.236 704.54L827.98 699.85L821.95 695.421L818.205 700.111L824.236 704.54Z" fill="#FC5C50"/>
<path d="M594.326 596.375L588.712 594.705L587.556 602.353L593.17 604.024L594.326 596.375Z" fill="#FC5C50"/>
<path d="M186.346 532.887L180.484 530.278L176.623 543.594L182.485 546.203L186.346 532.887Z" fill="#074ADF"/>
<path d="M1029.8 468.673L1024.73 462.562L1013.84 470.807L1018.91 476.918L1029.8 468.673Z" fill="#FC5C50"/>
<path d="M270.113 727.364L274.111 726.881L274.238 719.571L270.239 720.055L270.113 727.364Z" fill="#074ADF"/>
<path d="M693.836 794.865L693.352 790.383L688.127 789.674L688.611 794.156L693.836 794.865Z" fill="#FC5C50"/>
<path d="M1075.18 82.3474L1079.03 78.1357L1070.16 70.5994L1066.31 74.811L1075.18 82.3474Z" fill="#00B2FF"/>
<path d="M198.909 415.116L196.027 408.179L189.269 410.704L192.151 417.641L198.909 415.116Z" fill="#074ADF"/>
<path d="M324.226 542.402L316.332 537.652L314.168 545.323L322.062 550.073L324.226 542.402Z" fill="#00B2FF"/>
<path d="M405.974 436.867L411.639 435.253L407.977 427.584L402.313 429.199L405.974 436.867Z" fill="#00B2FF"/>
<path d="M620.702 348.34L616.202 345.87L612.48 352.801L616.98 355.271L620.702 348.34Z" fill="#074ADF"/>
<path d="M138.65 395.407L134.132 395.565L134.727 402.354L139.245 402.196L138.65 395.407Z" fill="#00B2FF"/>
<path d="M1015.57 442.819L1015.76 436.767L1007.09 434.709L1006.9 440.762L1015.57 442.819Z" fill="#FC5C50"/>
<path d="M352.933 433.385L355.908 430.075L347.352 422.359L344.377 425.669L352.933 433.385Z" fill="#074ADF"/>
<path d="M760.289 407.352L764.749 402.696L755.343 393.544L750.883 398.199L760.289 407.352Z" fill="#FC5C50"/>
<path d="M410.81 428.65L405.517 425.63L400.166 437.714L405.459 440.734L410.81 428.65Z" fill="#074ADF"/>
<path d="M156.079 223.365L153.536 220.818L146.819 227.323L149.362 229.87L156.079 223.365Z" fill="#FC5C50"/>
<path d="M459.159 354.045L464.112 354.795L462.447 339.983L457.494 339.233L459.159 354.045Z" fill="#FC5C50"/>
<path d="M200.802 138.172L207.549 137.698L205.884 124.136L199.137 124.61L200.802 138.172Z" fill="#00B2FF"/>
<path d="M614.674 74.4661L615.117 67.8262L596.285 63.6106L595.842 70.2505L614.674 74.4661Z" fill="#FC5C50"/>
<path d="M658.08 267.844L662.107 267.361L662.743 258.372L658.716 258.855L658.08 267.844Z" fill="#074ADF"/>
<path d="M170.301 296.452L163.674 295.262L161.596 307.076L168.223 308.267L170.301 296.452Z" fill="#00B2FF"/>
<path d="M845.095 811.499L850.003 806.529L834.915 791.246L830.007 796.215L845.095 811.499Z" fill="#074ADF"/>
<path d="M982.104 266.331L976.047 262.613L968.589 276.448L974.646 280.166L982.104 266.331Z" fill="#074ADF"/>
<path d="M1025.28 661.199L1028.88 660.357L1023.87 649.043L1020.28 649.885L1025.28 661.199Z" fill="#FC5C50"/>
<path d="M1090.64 150.03L1085.48 149.495L1086.67 159.678L1091.83 160.213L1090.64 150.03Z" fill="#00B2FF"/>
<path d="M192.162 452.89L192.744 449.023L185.95 445.701L185.368 449.568L192.162 452.89Z" fill="#074ADF"/>
<path d="M308.168 625.766L312.537 622.171L305.852 613.736L301.483 617.331L308.168 625.766Z" fill="#00B2FF"/>
<path d="M780.266 387.959L777.671 384.482L771.054 389.448L773.65 392.925L780.266 387.959Z" fill="#074ADF"/>
<path d="M897.321 555.325L891.104 550.735L885.059 561.736L891.276 566.326L897.321 555.325Z" fill="#00B2FF"/>
<path d="M989.703 641.113L990.613 637.798L986.491 635.562L985.58 638.877L989.703 641.113Z" fill="#00B2FF"/>
<path d="M350.651 329.128L357.146 328.411L350.853 311.935L344.358 312.651L350.651 329.128Z" fill="#00B2FF"/>
<path d="M871.7 599.774L875.133 598.288L870.097 589.359L866.664 590.844L871.7 599.774Z" fill="#FC5C50"/>
<path d="M667.23 741.387L662.742 738.943L659.559 749.207L664.047 751.65L667.23 741.387Z" fill="#00B2FF"/>
<path d="M281.368 114.89L276.758 112.366L271.724 124.001L276.334 126.524L281.368 114.89Z" fill="#074ADF"/>
<path d="M740.273 502.17L743.857 500.879L739.094 490.702L735.51 491.993L740.273 502.17Z" fill="#FC5C50"/>
<path d="M920.233 356.446L913.305 353.062L912.732 361.432L919.66 364.816L920.233 356.446Z" fill="#00B2FF"/>
<path d="M317.165 98.4515L314.118 91.3906L302.403 95.6922L305.45 102.753L317.165 98.4515Z" fill="#FC5C50"/>
<path d="M597.793 676.793L597.258 671.736L584.501 669.779L585.037 674.835L597.793 676.793Z" fill="#00B2FF"/>
<path d="M963.021 482.426L957.798 481.982L959.674 489.872L964.897 490.316L963.021 482.426Z" fill="#074ADF"/>
<path d="M951.62 94.4425L947.736 93.4697L946.928 99.0435L950.811 100.016L951.62 94.4425Z" fill="#FC5C50"/>
<path d="M865.197 112.281L864.381 107.788L853.3 106.478L854.116 110.971L865.197 112.281Z" fill="#FC5C50"/>
<path d="M91.2597 180.021L93.4692 175.061L81.9489 169.012L79.7394 173.972L91.2597 180.021Z" fill="#00B2FF"/>
<path d="M255.639 609.383L259.536 608.623L258.917 604.714L255.02 605.474L255.639 609.383Z" fill="#074ADF"/>
<path d="M606.268 401.55L601.694 401.077L602.054 411.204L606.627 411.677L606.268 401.55Z" fill="#FC5C50"/>
<path d="M90.6371 69.8352L90.0469 63.1055L80.1082 60.5509L80.6984 67.2806L90.6371 69.8352Z" fill="#074ADF"/>
<path d="M226.879 339.765L233.195 340.424L230.889 328.462L224.573 327.803L226.879 339.765Z" fill="#FC5C50"/>
<path d="M182.457 74.6133L185.776 69.2451L179.586 66.7051L176.267 72.0733L182.457 74.6133Z" fill="#00B2FF"/>
<path d="M552.716 194.16L548.359 191.451L541.684 202.528L546.041 205.236L552.716 194.16Z" fill="#FC5C50"/>
<path d="M630.903 593.985L625.959 592.289L627.435 600.573L632.379 602.269L630.903 593.985Z" fill="#FC5C50"/>
<path d="M826.842 349.206L827.886 345.207H822.837L821.793 349.206H826.842Z" fill="#00B2FF"/>
<path d="M206.598 414.091L213.371 412.907L212.284 400.604L205.512 401.787L206.598 414.091Z" fill="#074ADF"/>
<path d="M1116.67 132.157L1109.94 131.207L1108.03 149.796L1114.76 150.746L1116.67 132.157Z" fill="#074ADF"/>
<path d="M279.835 777.333L281.431 774.053L272.597 768.114L271 771.394L279.835 777.333Z" fill="#FC5C50"/>
<path d="M232.327 454.501L231.514 447.5L223.186 446.734L223.999 453.736L232.327 454.501Z" fill="#00B2FF"/>
<path d="M698.83 193.624L692.202 191.462L682.603 211.589L689.231 213.751L698.83 193.624Z" fill="#074ADF"/>
<path d="M275.913 665.928L270.771 664.521L269.272 678.695L274.414 680.101L275.913 665.928Z" fill="#FC5C50"/>
<path d="M809.945 321.417L808.758 315.799L799.932 317.223L801.12 322.841L809.945 321.417Z" fill="#074ADF"/>
<path d="M348.411 261.679L349.247 255.088L333.961 251.39L333.125 257.981L348.411 261.679Z" fill="#00B2FF"/>
<path d="M311.352 307.614L306.388 303.539L303.317 307.474L308.281 311.549L311.352 307.614Z" fill="#074ADF"/>
<path d="M858.687 402.993L852.796 401.624L853.268 413.702L859.159 415.071L858.687 402.993Z" fill="#00B2FF"/>
<path d="M1071.84 286.907L1069.08 280.145L1059.28 282.616L1062.04 289.379L1071.84 286.907Z" fill="#074ADF"/>
<path d="M102.273 95.6988L99.7397 91.9893L92.2289 97.1841L94.762 100.894L102.273 95.6988Z" fill="#00B2FF"/>
<path d="M72.1788 96.5244L64.709 93.8389L65.813 110.71L73.2828 113.396L72.1788 96.5244Z" fill="#074ADF"/>
<path d="M279.931 603.327L272.739 599.949L271.65 609.597L278.843 612.975L279.931 603.327Z" fill="#FC5C50"/>
<path d="M689.799 457.618L696.251 454.856L692.548 444.52L686.096 447.281L689.799 457.618Z" fill="#074ADF"/>
<path d="M137.994 421.244L142.866 416.083L138.391 412.141L133.519 417.302L137.994 421.244Z" fill="#00B2FF"/>
<path d="M91.1279 83.6248L95.9717 82.1221L88.8222 69.7843L83.9784 71.287L91.1279 83.6248Z" fill="#FC5C50"/>
<path d="M541.116 301.506L547.524 298.104L543.418 288.281L537.01 291.684L541.116 301.506Z" fill="#FC5C50"/>
<path d="M477.437 677.836L480.822 675.422L472.049 666.343L468.663 668.756L477.437 677.836Z" fill="#074ADF"/>
<path d="M672.992 649.171L678.937 646.634L673.843 631.61L667.899 634.147L672.992 649.171Z" fill="#00B2FF"/>
<path d="M254.296 709.309L250.604 707.445L249.121 710.95L252.813 712.814L254.296 709.309Z" fill="#00B2FF"/>
<path d="M135.629 754.913L130.505 753.621L126.076 763.136L131.2 764.428L135.629 754.913Z" fill="#074ADF"/>
<path d="M769.056 315.473L768.969 308.981L749.937 303.357L750.024 309.848L769.056 315.473Z" fill="#00B2FF"/>
<path d="M1066.56 659.577L1067.47 655.983L1057.33 651.674L1056.42 655.268L1066.56 659.577Z" fill="#00B2FF"/>
<path d="M436.358 347.337L438.467 342.898L434.041 339.905L431.931 344.343L436.358 347.337Z" fill="#074ADF"/>
<path d="M1066.58 715.047L1063.18 710.393L1052.28 717.541L1055.68 722.195L1066.58 715.047Z" fill="#FC5C50"/>
<path d="M111.838 74.0477L115.403 71.7959L112.392 67.2257L108.827 69.4775L111.838 74.0477Z" fill="#00B2FF"/>
<path d="M78.8202 643.769L77.4116 637.928L66.8795 641.801L68.2881 647.642L78.8202 643.769Z" fill="#FC5C50"/>
</g>
<defs>
<clipPath id="clip0_9717_23218">
<rect width="1133" height="792" fill="white" transform="translate(0.405762 0.759766)"/>
</clipPath>
</defs>
</svg>
