<svg width="4481" height="560" viewBox="0 0 4481 560" fill="none" xmlns="http://www.w3.org/2000/svg">
<g clip-path="url(#clip0_9796_8987)">
<g clip-path="url(#clip1_9796_8987)">
<mask id="mask0_9796_8987" style="mask-type:luminance" maskUnits="userSpaceOnUse" x="-162" y="0" width="1440" height="560">
<path d="M1278 0H-162V560H1278V0Z" fill="white"/>
</mask>
<g mask="url(#mask0_9796_8987)">
<path d="M6 79.0098V480.99" stroke="white" stroke-width="12" stroke-linecap="round"/>
<path d="M22 163.31V396.69" stroke="white" stroke-width="12" stroke-linecap="round"/>
<path d="M38 129.62V430.38" stroke="white" stroke-width="12" stroke-linecap="round"/>
<path d="M54 115.38V444.62" stroke="white" stroke-width="12" stroke-linecap="round"/>
<path d="M70 210.77V349.23" stroke="white" stroke-width="12" stroke-linecap="round"/>
<path d="M86 159.399V400.599" stroke="white" stroke-width="12" stroke-linecap="round"/>
<path d="M102 146.76V413.24" stroke="white" stroke-width="12" stroke-linecap="round"/>
<path d="M118 93.2393V466.759" stroke="white" stroke-width="12" stroke-linecap="round"/>
<path d="M134 200.76V359.24" stroke="white" stroke-width="12" stroke-linecap="round"/>
<path d="M150 141.37V418.63" stroke="white" stroke-width="12" stroke-linecap="round"/>
<path d="M166 238.58V321.42" stroke="white" stroke-width="12" stroke-linecap="round"/>
<path d="M182 257.609V302.389" stroke="white" stroke-width="12" stroke-linecap="round"/>
<path d="M198 144.72V415.27" stroke="white" stroke-width="12" stroke-linecap="round"/>
<path d="M214 90.75V469.25" stroke="white" stroke-width="12" stroke-linecap="round"/>
<path d="M230 175.5V384.5" stroke="white" stroke-width="12" stroke-linecap="round"/>
<path d="M246 235.31V324.69" stroke="white" stroke-width="12" stroke-linecap="round"/>
<path d="M262 158.88V401.12" stroke="white" stroke-width="12" stroke-linecap="round"/>
<path d="M278 168.26V391.74" stroke="white" stroke-width="12" stroke-linecap="round"/>
<path d="M294 170.42V389.58" stroke="white" stroke-width="12" stroke-linecap="round"/>
<path d="M310 83.7793V476.219" stroke="white" stroke-width="12" stroke-linecap="round"/>
<path d="M326 239.18V320.82" stroke="white" stroke-width="12" stroke-linecap="round"/>
<path d="M342 125.59V434.41" stroke="white" stroke-width="12" stroke-linecap="round"/>
<path d="M358 246.66V313.34" stroke="white" stroke-width="12" stroke-linecap="round"/>
<path d="M374 234.81V325.19" stroke="white" stroke-width="12" stroke-linecap="round"/>
<path d="M390 197.34V362.66" stroke="white" stroke-width="12" stroke-linecap="round"/>
<path d="M406 206.92V353.08" stroke="white" stroke-width="12" stroke-linecap="round"/>
<path d="M422 222.91V337.1" stroke="white" stroke-width="12" stroke-linecap="round"/>
<path d="M438 210.68V349.32" stroke="white" stroke-width="12" stroke-linecap="round"/>
<path d="M454 128.84V431.16" stroke="white" stroke-width="12" stroke-linecap="round"/>
<path d="M470 86.1494V473.849" stroke="white" stroke-width="12" stroke-linecap="round"/>
<path d="M486 233.05V326.95" stroke="white" stroke-width="12" stroke-linecap="round"/>
<path d="M502 185.06V374.94" stroke="white" stroke-width="12" stroke-linecap="round"/>
<path d="M518 82.0293V477.969" stroke="white" stroke-width="12" stroke-linecap="round"/>
<path d="M534 101.729V458.269" stroke="white" stroke-width="12" stroke-linecap="round"/>
<path d="M550 149.779V410.219" stroke="white" stroke-width="12" stroke-linecap="round"/>
<path d="M566 94.54V465.46" stroke="white" stroke-width="12" stroke-linecap="round"/>
<path d="M582 199.8V360.2" stroke="white" stroke-width="12" stroke-linecap="round"/>
<path d="M598 87.2998V472.7" stroke="white" stroke-width="12" stroke-linecap="round"/>
<path d="M614 109.25V450.75" stroke="white" stroke-width="12" stroke-linecap="round"/>
<path d="M630 182.26V377.74" stroke="white" stroke-width="12" stroke-linecap="round"/>
<path d="M646 189.64V370.36" stroke="white" stroke-width="12" stroke-linecap="round"/>
<path d="M662 127.84V432.16" stroke="white" stroke-width="12" stroke-linecap="round"/>
<path d="M678 160.08V399.92" stroke="white" stroke-width="12" stroke-linecap="round"/>
<path d="M694 158.47V401.52" stroke="white" stroke-width="12" stroke-linecap="round"/>
<path d="M710 133.739V426.259" stroke="white" stroke-width="12" stroke-linecap="round"/>
<path d="M726 141.25V418.75" stroke="white" stroke-width="12" stroke-linecap="round"/>
<path d="M742 201.8V358.2" stroke="white" stroke-width="12" stroke-linecap="round"/>
<path d="M758 193.16V366.84" stroke="white" stroke-width="12" stroke-linecap="round"/>
<path d="M774 198.8V361.2" stroke="white" stroke-width="12" stroke-linecap="round"/>
<path d="M790 228.2V331.8" stroke="white" stroke-width="12" stroke-linecap="round"/>
<path d="M806 112.319V447.679" stroke="white" stroke-width="12" stroke-linecap="round"/>
<path d="M822 147.25V412.75" stroke="white" stroke-width="12" stroke-linecap="round"/>
<path d="M838 209.13V350.88" stroke="white" stroke-width="12" stroke-linecap="round"/>
<path d="M854 152.64V407.36" stroke="white" stroke-width="12" stroke-linecap="round"/>
<path d="M870 112.27V447.73" stroke="white" stroke-width="12" stroke-linecap="round"/>
<path d="M886 151.439V408.559" stroke="white" stroke-width="12" stroke-linecap="round"/>
<path d="M902 69.9697V490.02" stroke="white" stroke-width="12" stroke-linecap="round"/>
<path d="M918 242.63V317.38" stroke="white" stroke-width="12" stroke-linecap="round"/>
<path d="M934 117.12V442.88" stroke="white" stroke-width="12" stroke-linecap="round"/>
<path d="M950 191.069V368.929" stroke="white" stroke-width="12" stroke-linecap="round"/>
<path d="M966 155.489V404.509" stroke="white" stroke-width="12" stroke-linecap="round"/>
<path d="M982 117.29V442.71" stroke="white" stroke-width="12" stroke-linecap="round"/>
<path d="M998 214.989V345.009" stroke="white" stroke-width="12" stroke-linecap="round"/>
<path d="M1014 167.06V392.94" stroke="white" stroke-width="12" stroke-linecap="round"/>
<path d="M1030 71.3701V488.63" stroke="white" stroke-width="12" stroke-linecap="round"/>
<path d="M1046 105.13V454.88" stroke="white" stroke-width="12" stroke-linecap="round"/>
<path d="M1062 138.84V421.16" stroke="white" stroke-width="12" stroke-linecap="round"/>
<path d="M1078 99.9199V460.08" stroke="white" stroke-width="12" stroke-linecap="round"/>
<path d="M1094 79.8398V480.16" stroke="white" stroke-width="12" stroke-linecap="round"/>
<path d="M1110 106.59V453.41" stroke="white" stroke-width="12" stroke-linecap="round"/>
</g>
</g>
<g clip-path="url(#clip2_9796_8987)">
<mask id="mask1_9796_8987" style="mask-type:luminance" maskUnits="userSpaceOnUse" x="959" y="0" width="1440" height="560">
<path d="M2399 0H959V560H2399V0Z" fill="white"/>
</mask>
<g mask="url(#mask1_9796_8987)">
<path d="M1127 146.81V413.19" stroke="white" stroke-width="12" stroke-linecap="round"/>
<path d="M1143 71.7695V488.23" stroke="white" stroke-width="12" stroke-linecap="round"/>
<path d="M1159 229.51V330.49" stroke="white" stroke-width="12" stroke-linecap="round"/>
<path d="M1175 157.59V402.41" stroke="white" stroke-width="12" stroke-linecap="round"/>
<path d="M1191 121.63V438.38" stroke="white" stroke-width="12" stroke-linecap="round"/>
<path d="M1207 256.63V303.37" stroke="white" stroke-width="12" stroke-linecap="round"/>
<path d="M1223 123.909V436.089" stroke="white" stroke-width="12" stroke-linecap="round"/>
<path d="M1239 217.199V342.799" stroke="white" stroke-width="12" stroke-linecap="round"/>
<path d="M1255 206.119V353.879" stroke="white" stroke-width="12" stroke-linecap="round"/>
<path d="M1271 243.97V316.03" stroke="white" stroke-width="12" stroke-linecap="round"/>
<path d="M1287 207.909V352.099" stroke="white" stroke-width="12" stroke-linecap="round"/>
<path d="M1303 143.13V416.87" stroke="white" stroke-width="12" stroke-linecap="round"/>
<path d="M1319 131.529V428.469" stroke="white" stroke-width="12" stroke-linecap="round"/>
<path d="M1335 129.22V430.78" stroke="white" stroke-width="12" stroke-linecap="round"/>
<path d="M1351 142.409V417.599" stroke="white" stroke-width="12" stroke-linecap="round"/>
<path d="M1367 206.8V353.2" stroke="white" stroke-width="12" stroke-linecap="round"/>
<path d="M1383 116.039V443.959" stroke="white" stroke-width="12" stroke-linecap="round"/>
<path d="M1399 101.569V458.429" stroke="white" stroke-width="12" stroke-linecap="round"/>
<path d="M1415 102.18V457.82" stroke="white" stroke-width="12" stroke-linecap="round"/>
<path d="M1431 139.89V420.11" stroke="white" stroke-width="12" stroke-linecap="round"/>
<path d="M1447 145.369V414.629" stroke="white" stroke-width="12" stroke-linecap="round"/>
<path d="M1463 107.93V452.07" stroke="white" stroke-width="12" stroke-linecap="round"/>
<path d="M1479 256.25V303.75" stroke="white" stroke-width="12" stroke-linecap="round"/>
<path d="M1495 143.35V416.65" stroke="white" stroke-width="12" stroke-linecap="round"/>
<path d="M1511 119.97V440.02" stroke="white" stroke-width="12" stroke-linecap="round"/>
<path d="M1527 89.7393V470.259" stroke="white" stroke-width="12" stroke-linecap="round"/>
<path d="M1543 180.909V379.089" stroke="white" stroke-width="12" stroke-linecap="round"/>
<path d="M1559 205.329V354.669" stroke="white" stroke-width="12" stroke-linecap="round"/>
<path d="M1575 76.3799V483.63" stroke="white" stroke-width="12" stroke-linecap="round"/>
<path d="M1591 220.819V339.179" stroke="white" stroke-width="12" stroke-linecap="round"/>
<path d="M1607 207.52V352.48" stroke="white" stroke-width="12" stroke-linecap="round"/>
<path d="M1623 134.819V425.179" stroke="white" stroke-width="12" stroke-linecap="round"/>
<path d="M1639 125.34V434.65" stroke="white" stroke-width="12" stroke-linecap="round"/>
<path d="M1655 204.1V355.9" stroke="white" stroke-width="12" stroke-linecap="round"/>
<path d="M1671 224.88V335.12" stroke="white" stroke-width="12" stroke-linecap="round"/>
<path d="M1687 141.05V418.95" stroke="white" stroke-width="12" stroke-linecap="round"/>
<path d="M1703 194.449V365.549" stroke="white" stroke-width="12" stroke-linecap="round"/>
<path d="M1719 92.0791V467.919" stroke="white" stroke-width="12" stroke-linecap="round"/>
<path d="M1735 126.6V433.4" stroke="white" stroke-width="12" stroke-linecap="round"/>
<path d="M1751 165.56V394.44" stroke="white" stroke-width="12" stroke-linecap="round"/>
<path d="M1767 76.7393V483.259" stroke="white" stroke-width="12" stroke-linecap="round"/>
<path d="M1783 108.859V451.139" stroke="white" stroke-width="12" stroke-linecap="round"/>
<path d="M1799 237.84V322.16" stroke="white" stroke-width="12" stroke-linecap="round"/>
<path d="M1815 75.1494V484.849" stroke="white" stroke-width="12" stroke-linecap="round"/>
<path d="M1831 166.199V393.799" stroke="white" stroke-width="12" stroke-linecap="round"/>
<path d="M1847 93.75V466.25" stroke="white" stroke-width="12" stroke-linecap="round"/>
<path d="M1863 142.42V417.58" stroke="white" stroke-width="12" stroke-linecap="round"/>
<path d="M1879 178.829V381.169" stroke="white" stroke-width="12" stroke-linecap="round"/>
<path d="M1895 173.3V386.7" stroke="white" stroke-width="12" stroke-linecap="round"/>
<path d="M1911 83.6299V476.37" stroke="white" stroke-width="12" stroke-linecap="round"/>
<path d="M1927 140.149V419.859" stroke="white" stroke-width="12" stroke-linecap="round"/>
<path d="M1943 223.529V336.479" stroke="white" stroke-width="12" stroke-linecap="round"/>
<path d="M1959 106.93V453.07" stroke="white" stroke-width="12" stroke-linecap="round"/>
<path d="M1975 210.189V349.809" stroke="white" stroke-width="12" stroke-linecap="round"/>
<path d="M1991 116.899V443.109" stroke="white" stroke-width="12" stroke-linecap="round"/>
<path d="M2007 211.119V348.879" stroke="white" stroke-width="12" stroke-linecap="round"/>
<path d="M2023 114.439V445.559" stroke="white" stroke-width="12" stroke-linecap="round"/>
<path d="M2039 130.68V429.32" stroke="white" stroke-width="12" stroke-linecap="round"/>
<path d="M2055 134.96V425.04" stroke="white" stroke-width="12" stroke-linecap="round"/>
<path d="M2071 153.439V406.559" stroke="white" stroke-width="12" stroke-linecap="round"/>
<path d="M2087 246.35V313.64" stroke="white" stroke-width="12" stroke-linecap="round"/>
<path d="M2103 85.1895V474.809" stroke="white" stroke-width="12" stroke-linecap="round"/>
<path d="M2119 76.6094V483.389" stroke="white" stroke-width="12" stroke-linecap="round"/>
<path d="M2135 157.97V402.02" stroke="white" stroke-width="12" stroke-linecap="round"/>
<path d="M2151 183.529V376.479" stroke="white" stroke-width="12" stroke-linecap="round"/>
<path d="M2167 130.42V429.58" stroke="white" stroke-width="12" stroke-linecap="round"/>
<path d="M2183 187.63V372.38" stroke="white" stroke-width="12" stroke-linecap="round"/>
<path d="M2199 258.079V301.919" stroke="white" stroke-width="12" stroke-linecap="round"/>
<path d="M2215 85.7793V474.219" stroke="white" stroke-width="12" stroke-linecap="round"/>
<path d="M2231 155.77V404.23" stroke="white" stroke-width="12" stroke-linecap="round"/>
</g>
</g>
<g clip-path="url(#clip3_9796_8987)">
<mask id="mask2_9796_8987" style="mask-type:luminance" maskUnits="userSpaceOnUse" x="2080" y="0" width="1440" height="560">
<path d="M3520 0H2080V560H3520V0Z" fill="white"/>
</mask>
<g mask="url(#mask2_9796_8987)">
<path d="M2248 201.63V358.38" stroke="white" stroke-width="12" stroke-linecap="round"/>
<path d="M2264 81.0098V478.99" stroke="white" stroke-width="12" stroke-linecap="round"/>
<path d="M2280 93.3701V466.63" stroke="white" stroke-width="12" stroke-linecap="round"/>
<path d="M2296 247.88V312.13" stroke="white" stroke-width="12" stroke-linecap="round"/>
<path d="M2312 129.53V430.47" stroke="white" stroke-width="12" stroke-linecap="round"/>
<path d="M2328 166.91V393.1" stroke="white" stroke-width="12" stroke-linecap="round"/>
<path d="M2344 228.43V331.57" stroke="white" stroke-width="12" stroke-linecap="round"/>
<path d="M2360 172.8V387.2" stroke="white" stroke-width="12" stroke-linecap="round"/>
<path d="M2376 171.95V388.05" stroke="white" stroke-width="12" stroke-linecap="round"/>
<path d="M2392 190.95V369.05" stroke="white" stroke-width="12" stroke-linecap="round"/>
<path d="M2408 132.04V427.96" stroke="white" stroke-width="12" stroke-linecap="round"/>
<path d="M2424 237.15V322.85" stroke="white" stroke-width="12" stroke-linecap="round"/>
<path d="M2440 204.8V355.2" stroke="white" stroke-width="12" stroke-linecap="round"/>
<path d="M2456 134.561V425.441" stroke="white" stroke-width="12" stroke-linecap="round"/>
<path d="M2472 207.311V352.691" stroke="white" stroke-width="12" stroke-linecap="round"/>
<path d="M2488 148.15V411.86" stroke="white" stroke-width="12" stroke-linecap="round"/>
<path d="M2504 232.25V327.75" stroke="white" stroke-width="12" stroke-linecap="round"/>
<path d="M2520 79.3701V480.63" stroke="white" stroke-width="12" stroke-linecap="round"/>
<path d="M2536 123.13V436.87" stroke="white" stroke-width="12" stroke-linecap="round"/>
<path d="M2552 84.8799V475.13" stroke="white" stroke-width="12" stroke-linecap="round"/>
<path d="M2568 205.66V354.35" stroke="white" stroke-width="12" stroke-linecap="round"/>
<path d="M2584 150.771V409.231" stroke="white" stroke-width="12" stroke-linecap="round"/>
<path d="M2600 116.59V443.41" stroke="white" stroke-width="12" stroke-linecap="round"/>
<path d="M2616 74.0703V485.93" stroke="white" stroke-width="12" stroke-linecap="round"/>
<path d="M2632 144.16V415.84" stroke="white" stroke-width="12" stroke-linecap="round"/>
<path d="M2648 146.69V413.31" stroke="white" stroke-width="12" stroke-linecap="round"/>
<path d="M2664 203.51V356.49" stroke="white" stroke-width="12" stroke-linecap="round"/>
<path d="M2680 176.47V383.52" stroke="white" stroke-width="12" stroke-linecap="round"/>
<path d="M2696 234.09V325.92" stroke="white" stroke-width="12" stroke-linecap="round"/>
<path d="M2712 79.0703V480.93" stroke="white" stroke-width="12" stroke-linecap="round"/>
<path d="M2728 167.36V392.64" stroke="white" stroke-width="12" stroke-linecap="round"/>
<path d="M2744 151.82V408.18" stroke="white" stroke-width="12" stroke-linecap="round"/>
<path d="M2760 121.01V438.99" stroke="white" stroke-width="12" stroke-linecap="round"/>
<path d="M2776 75.75V484.25" stroke="white" stroke-width="12" stroke-linecap="round"/>
<path d="M2792 210.67V349.33" stroke="white" stroke-width="12" stroke-linecap="round"/>
<path d="M2808 73.9297V486.07" stroke="white" stroke-width="12" stroke-linecap="round"/>
<path d="M2824 118.87V441.13" stroke="white" stroke-width="12" stroke-linecap="round"/>
<path d="M2840 77.0801V482.92" stroke="white" stroke-width="12" stroke-linecap="round"/>
<path d="M2856 116.64V443.36" stroke="white" stroke-width="12" stroke-linecap="round"/>
<path d="M2872 219.88V340.12" stroke="white" stroke-width="12" stroke-linecap="round"/>
<path d="M2888 168.42V391.58" stroke="white" stroke-width="12" stroke-linecap="round"/>
<path d="M2904 250.4V309.6" stroke="white" stroke-width="12" stroke-linecap="round"/>
<path d="M2920 209.28V350.72" stroke="white" stroke-width="12" stroke-linecap="round"/>
<path d="M2936 234.8V325.2" stroke="white" stroke-width="12" stroke-linecap="round"/>
<path d="M2952 162.561V397.441" stroke="white" stroke-width="12" stroke-linecap="round"/>
<path d="M2968 113.17V446.83" stroke="white" stroke-width="12" stroke-linecap="round"/>
<path d="M2984 153.92V406.08" stroke="white" stroke-width="12" stroke-linecap="round"/>
<path d="M3000 70.3701V489.63" stroke="white" stroke-width="12" stroke-linecap="round"/>
<path d="M3016 77.8506V482.151" stroke="white" stroke-width="12" stroke-linecap="round"/>
<path d="M3032 147.65V412.36" stroke="white" stroke-width="12" stroke-linecap="round"/>
<path d="M3048 78.0605V481.941" stroke="white" stroke-width="12" stroke-linecap="round"/>
<path d="M3064 127.17V432.83" stroke="white" stroke-width="12" stroke-linecap="round"/>
<path d="M3080 182.97V377.02" stroke="white" stroke-width="12" stroke-linecap="round"/>
<path d="M3096 76.6602V483.35" stroke="white" stroke-width="12" stroke-linecap="round"/>
<path d="M3112 78.1904V481.81" stroke="white" stroke-width="12" stroke-linecap="round"/>
<path d="M3128 197.41V362.59" stroke="white" stroke-width="12" stroke-linecap="round"/>
<path d="M3144 243.49V316.51" stroke="white" stroke-width="12" stroke-linecap="round"/>
<path d="M3160 115.37V444.63" stroke="white" stroke-width="12" stroke-linecap="round"/>
<path d="M3176 208.42V351.58" stroke="white" stroke-width="12" stroke-linecap="round"/>
<path d="M3192 193V367" stroke="white" stroke-width="12" stroke-linecap="round"/>
<path d="M3208 152.95V407.05" stroke="white" stroke-width="12" stroke-linecap="round"/>
<path d="M3224 87.75V472.25" stroke="white" stroke-width="12" stroke-linecap="round"/>
<path d="M3240 255.36V304.64" stroke="white" stroke-width="12" stroke-linecap="round"/>
<path d="M3256 108.46V451.54" stroke="white" stroke-width="12" stroke-linecap="round"/>
<path d="M3272 131.22V428.77" stroke="white" stroke-width="12" stroke-linecap="round"/>
<path d="M3288 176.75V383.25" stroke="white" stroke-width="12" stroke-linecap="round"/>
<path d="M3304 72.0605V487.941" stroke="white" stroke-width="12" stroke-linecap="round"/>
<path d="M3320 233.65V326.36" stroke="white" stroke-width="12" stroke-linecap="round"/>
<path d="M3336 226.68V333.32" stroke="white" stroke-width="12" stroke-linecap="round"/>
<path d="M3352 156.89V403.11" stroke="white" stroke-width="12" stroke-linecap="round"/>
</g>
</g>
<g clip-path="url(#clip4_9796_8987)">
<mask id="mask3_9796_8987" style="mask-type:luminance" maskUnits="userSpaceOnUse" x="3202" y="0" width="1440" height="560">
<path d="M3202 0H4642V560H3202V0Z" fill="white"/>
</mask>
<g mask="url(#mask3_9796_8987)">
<path d="M4474 239.22V320.77" stroke="white" stroke-width="12" stroke-linecap="round"/>
<path d="M4458 121.07V438.93" stroke="white" stroke-width="12" stroke-linecap="round"/>
<path d="M4442 116.25V443.75" stroke="white" stroke-width="12" stroke-linecap="round"/>
<path d="M4426 220.811V339.191" stroke="white" stroke-width="12" stroke-linecap="round"/>
<path d="M4410 222.681V337.321" stroke="white" stroke-width="12" stroke-linecap="round"/>
<path d="M4394 116.13V443.87" stroke="white" stroke-width="12" stroke-linecap="round"/>
<path d="M4378 176.521V383.481" stroke="white" stroke-width="12" stroke-linecap="round"/>
<path d="M4362 80.8301V479.17" stroke="white" stroke-width="12" stroke-linecap="round"/>
<path d="M4346 119.25V440.75" stroke="white" stroke-width="12" stroke-linecap="round"/>
<path d="M4330 159.12V400.88" stroke="white" stroke-width="12" stroke-linecap="round"/>
<path d="M4314 101.51V458.49" stroke="white" stroke-width="12" stroke-linecap="round"/>
<path d="M4298 231.47V328.53" stroke="white" stroke-width="12" stroke-linecap="round"/>
<path d="M4282 123.84V436.16" stroke="white" stroke-width="12" stroke-linecap="round"/>
<path d="M4266 237.13V322.88" stroke="white" stroke-width="12" stroke-linecap="round"/>
<path d="M4250 209.22V350.78" stroke="white" stroke-width="12" stroke-linecap="round"/>
<path d="M4234 122.69V437.31" stroke="white" stroke-width="12" stroke-linecap="round"/>
<path d="M4218 103.16V456.85" stroke="white" stroke-width="12" stroke-linecap="round"/>
<path d="M4202 123.431V436.571" stroke="white" stroke-width="12" stroke-linecap="round"/>
<path d="M4186 123.22V436.77" stroke="white" stroke-width="12" stroke-linecap="round"/>
<path d="M4170 221.98V338.02" stroke="white" stroke-width="12" stroke-linecap="round"/>
<path d="M4154 243.67V316.33" stroke="white" stroke-width="12" stroke-linecap="round"/>
<path d="M4138 104.51V455.49" stroke="white" stroke-width="12" stroke-linecap="round"/>
<path d="M4122 114.54V445.46" stroke="white" stroke-width="12" stroke-linecap="round"/>
<path d="M4106 70.79V489.21" stroke="white" stroke-width="12" stroke-linecap="round"/>
<path d="M4090 187.8V372.2" stroke="white" stroke-width="12" stroke-linecap="round"/>
<path d="M4074 228.94V331.06" stroke="white" stroke-width="12" stroke-linecap="round"/>
<path d="M4058 212.11V347.89" stroke="white" stroke-width="12" stroke-linecap="round"/>
<path d="M4042 167.17V392.83" stroke="white" stroke-width="12" stroke-linecap="round"/>
<path d="M4026 149.061V410.941" stroke="white" stroke-width="12" stroke-linecap="round"/>
<path d="M4010 210.63V349.37" stroke="white" stroke-width="12" stroke-linecap="round"/>
<path d="M3994 239.141V320.861" stroke="white" stroke-width="12" stroke-linecap="round"/>
<path d="M3978 204.311V355.691" stroke="white" stroke-width="12" stroke-linecap="round"/>
<path d="M3962 139.15V420.85" stroke="white" stroke-width="12" stroke-linecap="round"/>
<path d="M3946 120.96V439.04" stroke="white" stroke-width="12" stroke-linecap="round"/>
<path d="M3930 185.51V374.49" stroke="white" stroke-width="12" stroke-linecap="round"/>
<path d="M3914 141.71V418.29" stroke="white" stroke-width="12" stroke-linecap="round"/>
<path d="M3898 73.1299V486.87" stroke="white" stroke-width="12" stroke-linecap="round"/>
<path d="M3882 210.25V349.75" stroke="white" stroke-width="12" stroke-linecap="round"/>
<path d="M3866 216.681V343.321" stroke="white" stroke-width="12" stroke-linecap="round"/>
<path d="M3850 146.65V413.35" stroke="white" stroke-width="12" stroke-linecap="round"/>
<path d="M3834 121.11V438.89" stroke="white" stroke-width="12" stroke-linecap="round"/>
<path d="M3818 148.97V411.03" stroke="white" stroke-width="12" stroke-linecap="round"/>
<path d="M3802 170.83V389.17" stroke="white" stroke-width="12" stroke-linecap="round"/>
<path d="M3786 250.681V309.321" stroke="white" stroke-width="12" stroke-linecap="round"/>
<path d="M3770 129.96V430.04" stroke="white" stroke-width="12" stroke-linecap="round"/>
<path d="M3754 158.32V401.68" stroke="white" stroke-width="12" stroke-linecap="round"/>
<path d="M3738 230.84V329.16" stroke="white" stroke-width="12" stroke-linecap="round"/>
<path d="M3722 217.45V342.55" stroke="white" stroke-width="12" stroke-linecap="round"/>
<path d="M3706 222.66V337.33" stroke="white" stroke-width="12" stroke-linecap="round"/>
<path d="M3690 221.66V338.33" stroke="white" stroke-width="12" stroke-linecap="round"/>
<path d="M3674 196.22V363.78" stroke="white" stroke-width="12" stroke-linecap="round"/>
<path d="M3658 237.28V322.72" stroke="white" stroke-width="12" stroke-linecap="round"/>
<path d="M3642 180.16V379.84" stroke="white" stroke-width="12" stroke-linecap="round"/>
<path d="M3626 223.47V336.52" stroke="white" stroke-width="12" stroke-linecap="round"/>
<path d="M3610 124.66V435.34" stroke="white" stroke-width="12" stroke-linecap="round"/>
<path d="M3594 242.681V317.321" stroke="white" stroke-width="12" stroke-linecap="round"/>
<path d="M3578 197.931V362.071" stroke="white" stroke-width="12" stroke-linecap="round"/>
<path d="M3562 251.98V308.02" stroke="white" stroke-width="12" stroke-linecap="round"/>
<path d="M3546 155.98V404.02" stroke="white" stroke-width="12" stroke-linecap="round"/>
<path d="M3530 148.92V411.08" stroke="white" stroke-width="12" stroke-linecap="round"/>
<path d="M3514 165.25V394.75" stroke="white" stroke-width="12" stroke-linecap="round"/>
<path d="M3498 111.16V448.84" stroke="white" stroke-width="12" stroke-linecap="round"/>
<path d="M3482 70.7002V489.3" stroke="white" stroke-width="12" stroke-linecap="round"/>
<path d="M3466 160.62V399.38" stroke="white" stroke-width="12" stroke-linecap="round"/>
<path d="M3450 78.6406V481.361" stroke="white" stroke-width="12" stroke-linecap="round"/>
<path d="M3434 177.84V382.16" stroke="white" stroke-width="12" stroke-linecap="round"/>
<path d="M3418 166.311V393.691" stroke="white" stroke-width="12" stroke-linecap="round"/>
<path d="M3402 217.62V342.38" stroke="white" stroke-width="12" stroke-linecap="round"/>
<path d="M3386 128.24V431.76" stroke="white" stroke-width="12" stroke-linecap="round"/>
<path d="M3370 111.28V448.72" stroke="white" stroke-width="12" stroke-linecap="round"/>
</g>
</g>
</g>
<defs>
<clipPath id="clip0_9796_8987">
<rect width="4481" height="560" fill="white"/>
</clipPath>
<clipPath id="clip1_9796_8987">
<rect width="1440" height="560" fill="white" transform="translate(-162)"/>
</clipPath>
<clipPath id="clip2_9796_8987">
<rect width="1440" height="560" fill="white" transform="translate(959)"/>
</clipPath>
<clipPath id="clip3_9796_8987">
<rect width="1440" height="560" fill="white" transform="translate(2080)"/>
</clipPath>
<clipPath id="clip4_9796_8987">
<rect width="1440" height="560" fill="white" transform="matrix(-1 0 0 1 4630 0)"/>
</clipPath>
</defs>
</svg>
