<?xml version="1.0" encoding="UTF-8"?><svg xmlns="http://www.w3.org/2000/svg" viewBox="0 0 1067.65 190.06"><g id="a"/><g id="b"><g id="c"><g><path d="M853.81,120.51v9.16c0,14.11,.5,25.25,1.24,31.19,1.73,12.62,2.05,15.94,12.93,17.82,2.72,.49,3.96,2.72,3.96,4.95,0,1.98-.99,3.96-3.22,3.96h-54.32c-2.23,0-3.22-1.98-3.22-3.96,0-2.23,1.24-4.46,3.96-4.95,11.42-2.03,13.92-5.45,14.91-17.82,.5-5.94,1.24-17.08,1.24-31.19v-9.16c0-26.48,1.45-44.78-13.65-44.06h-3.73c-2.23,0-3.47-2.23-3.47-4.46,0-1.98,.99-4.21,3.47-4.95,8.66-2.47,26.79-5.94,32.73-5.94,4.7,0,8.17,2.97,8.17,10.4s-.99,22.53-.99,49.01ZM838.96,.02c9.16,0,16.83,7.67,16.83,16.83s-7.67,16.83-16.83,16.83-16.83-7.67-16.83-16.83S829.8,.02,838.96,.02Z"/><path d="M958.07,58.63c10.64,0,18.81,5.94,18.81,18.07,0,4.05-1.38,7.11-3.35,9.38-4.18,4.83-11.48,4.59-16.27,.36-1.86-1.64-4.39-2.82-7.86-2.82-10.89,0-26.98,16.83-26.98,40.1,0,25.5,.5,31.19,1.24,37.13,1.73,12.62,.69,15.49,14.96,17.82,2.72,.49,3.96,2.72,3.96,4.95,0,1.98-.99,3.96-4.21,3.96h-52.41c-2.97,0-3.96-1.98-3.96-3.96,0-2.23,1.24-4.46,3.96-4.95,12.01-2.03,12.44-5.45,13.44-17.82,.49-5.94,1.24-17.08,1.24-31.19v-14.6c0-26.48,2.52-38.88-12.93-38.61h-3.96c-3.46,0-4.7-2.23-4.7-4.46,0-1.98,.99-4.21,3.46-4.95,8.67-2.47,23.33-5.94,29.27-5.94,7.92,0,11.14,16.58,11.14,34.41,11.14-29.7,23.76-36.88,35.15-36.88Z"/><path d="M1062.46,78.68c0,5.01-1.83,8.56-5.28,10.84-5.99,3.98-13.97,.59-16.24-6.24-2.34-7.07-7.49-12.77-18.58-12.77s-18.81,5.69-18.81,14.6c0,9.9,6.68,14.6,25.25,25.49,23.52,13.86,38.86,23.51,38.86,45.54,0,25.49-26.98,33.91-49.75,33.91-26.73,0-42.33-6.68-42.33-21.29,0-.11,0-.22,0-.33,.24-13.07,18.97-15.65,22.82-3.16,2.04,6.63,7.33,12.4,20.99,12.4,14.85,0,25.99-3.71,25.99-15.84,0-10.89-7.42-16.58-31.44-30.45-16.83-9.65-32.18-19.8-32.18-40.35,0-24.01,23.76-32.43,43.07-32.43,14.11,0,37.62,3.47,37.62,20.05Z"/><path d="M800.86,172.18c-3.07,.13-4.73,.89-7.99,.54-6.73-.73-7.46-8.5-8.79-16.47-1.31-7.86-1.86-19.01-1.93-35.56-.04-8.94-.04-25.99-1.44-32.61-2.56-12.19-10.64-22.49-24.21-27.26-.44-.15-.86-.31-1.3-.44-12.63-4.22-31.16-4.77-43.95-1.04-13.92,4.05-24.71,12.16-25.42,23.05-.04,.36-.06,.77-.06,1.17,0,7.44,3.85,14.86,14.86,14.86h.08c4.31,0,7.86-3.32,8.21-7.61,.56-7.17,2.17-14.49,8.55-18.65,3.28-2.15,7.84-3.45,14.17-3.45,7.94,0,17.57,3.34,20.46,9.36,2.28,4.68,3.53,10.98,3.89,18.58,.16,3.34-.78,7.64-6.46,9.18-5.93,1.61-12.06,2.65-18.14,3.55-13.75,2.05-21.95,3.11-34.64,9.64-16.43,8.42-23.47,24.83-17.96,42.49,6.58,21.15,22.32,27.84,42.54,26.67,7.8-.46,15.01-2.24,21.63-5.39,6.61-3.16,12.62-7.67,17.98-13.59l.25,2.2c.48,4.45,2.22,8.74,5.33,11.96,3.05,3.16,7.27,5.52,12.77,5.96,.19,.02,.42,.04,.61,.04,.33,.02,.63,.02,.94,.02,9.16,0,23.27-7.31,23.27-13.98,0-2.38-1.36-3.16-3.24-3.2Zm-44.28-19.26c-7.49,14.6-21.11,23.12-37.77,19.17-10.1-2.42-16.72-9.15-17.75-18.14-1.3-11.02,3.15-18.13,13.32-23.62,6.03-3.26,7.91-3.8,14.79-5.27,9.62-2.05,19.44-3.32,29.03-5.48,0,0,.98,10.95,1.13,13.19,.3,4.53,.1,14.61-2.74,20.15Z"/><path d="M260.52,62.61c0,2.01-1.44,4.31-3.67,4.71-10.61,1.9-12.72,6.93-17.92,22.32l-32.23,92.19c-1.18,3.74-3.47,5.75-5.89,5.75-2.29,0-4.71-1.73-6.24-5.75l-32.23-78.05-31.26,78.05c-1.46,3.74-3.67,5.75-6.17,5.75-2.7,0-4.71-2.01-5.96-5.75l-19.82-62.17c-7.54-23.72-11.46-36.08-15.72-42.85-2.16-3.44-5.92-5.53-9.98-5.53h-30.03v79.09c0,13.38,7.49,18.58,18.65,18.58,10.4,0,16.57-3.67,20.03-3.67,1.52,0,2.5,.49,2.5,2.22,0,5.48-19.34,20.1-38.19,20.1-15.6,0-28-9.43-28-29.53,0-21.83,1.52-67.16,1.52-87.54H5.27c-3.54,0-5.27-1.18-5.27-3.67,0-4.23,7.97-6.93,20.38-20.86,13.59-15.11,15.32-20.03,19.82-20.03,1.94,0,3.19,1.46,3.19,4.92v27.31l49.42,.21h28.93c2.98,0,4.44,2.01,4.44,4.23s-1.46,4.44-3.95,4.71c-9.63,.97-11.37,5.58-10.21,12.13l19.62,71.18,28.97-83.04c.97-3.26,3.26-4.71,6.45-4.71,2.7,0,4.71,1.73,5.96,4.71l31.95,80.54,18.09-63.98c2.41-8.76-1.27-15.6-11.39-16.84-2.77-.28-4.23-2.5-4.23-4.71,0-2.01,1.25-4.23,4.23-4.23h44.21c3.19,0,4.64,2.01,4.64,4.23Z"/><path d="M248.99,126.82c0-48.84,31.24-70.9,65.95-70.9s58.76,23.3,58.76,61.98c0,48.84-29.75,69.67-64.46,69.67s-60.24-22.07-60.24-60.74Zm98.67-1.49c0-32.23-13.14-55.53-37.19-55.53s-35.45,19.83-35.45,49.33c0,32.23,14.38,54.79,38.43,54.79,22.06,0,34.21-19.09,34.21-48.59Z"/><path d="M670.69,178.38c-14.61-2.19-13.19-4.18-13.19-17.56V91.25c0-22.99-16.09-32.68-33.66-32.68-15.6,0-29.47,8.44-37.86,13.38l-12.13,6.68,.09-19.1-.02-11.64s.94-29.72,.98-36.97v-.49c0-7.44-3.47-10.4-8.17-10.4h-23.22c-.22-.02-.45-.02-.67-.02-.38,0-.73-.02-1.14,0-25.55,.22-39.04,19.46-39.04,38.98,0,1.76,.11,3.54,.33,5.32,.85,6.77,3.36,13.42,7.6,18.95,.41,.53,.6,.8,1.26,1.55,.65,.74,.02,1.57-.73,1.06-.5-.34-1.89-1.48-3.05-2.23-5.24-3.37-11.82-5.54-20.55-5.54-33.79,0-65.09,22.86-65.09,74.53,0,38.75,25.33,57.39,55.89,57.39,27.31,0,49.17-19.88,49.17-32.54,0-2.23-1.49-3.72-3.23-3.72-5.7,0-11.42,16.38-37.51,16.38-22.35,0-40.74-16.38-40.74-46.7,0-38.51,17.39-52.16,36.77-52.16,11.02,0,16.41,6.34,19.19,13.31,4.65,11.69,21.88,9.88,23.17-2.63,.07-.65,.11-1.31,.11-2,0-15.65-11.42-22.84-11.42-38.51s8.18-26.44,18.5-29.72c2.64-.84,8.39-1.45,12.63-.9,3.3,.43,5.72,2.46,6.05,5.66,.02,.36,.04,.76,.04,1.18v111.92c0,14.14-.53,25.26-.98,31.21-.84,11.07-.59,16.28-11.99,17.83-2.72,.49-3.94,2.72-3.94,4.94,0,1.98,.98,3.94,3.21,3.94h47.43c2.25,0,3.23-1.96,3.23-3.94,0-2.23-1.29-4.53-3.96-5.21-10.08-2.57-9.73-5.28-10.23-17.56V91.77c16.34-8.66,27.25-13.87,39.6-13.87,9.42,0,19.57,2.96,19.57,22.5v25.24c0,50.29-1.62,51.15-13.68,53-2.75,.42-3.98,2.72-3.98,4.94,0,1.98,1,3.94,3.23,3.94h52.83c2.23,0,3.25-1.96,3.25-3.94,0-2.23-1.23-4.8-3.96-5.21Z"/></g></g></g></svg>