<svg width="111" height="50" viewBox="0 0 111 50" fill="none" xmlns="http://www.w3.org/2000/svg">
<path d="M30.4185 50C30.4113 48.5844 30.4234 47.1663 30.421 45.7499C30.4129 41.3696 30.3538 36.9512 30.3336 32.5709C30.3296 31.749 30.2551 30.6804 30.332 29.8933C30.3482 29.7299 30.3296 29.5883 30.4978 29.4929L40.4935 27.8346L40.364 40.6609C40.4433 41.2701 41.0832 41.1447 41.5298 41.0897C45.1483 40.6448 49.0111 39.7007 52.6305 39.0851C53.0803 39.0083 53.9014 39.1167 54.2379 38.7511C54.5744 38.3854 54.3633 38.0667 54.3601 37.6671C54.3269 33.5262 54.3633 29.3804 54.3989 25.2412L64.1866 23.4728C64.854 24.9233 65.4834 26.3995 66.0958 27.8742C67.4735 31.1908 68.7209 34.6789 70.1803 37.9462C70.2499 38.1015 70.6519 38.9403 70.7215 38.9816C71.1915 39.2583 71.4836 38.6596 71.6195 38.3345C72.0652 37.2683 72.3265 36.0598 72.7027 34.9685C74.2875 30.3617 75.8811 25.7548 77.4999 21.1601L86.6421 19.5843L86.6388 32.9761C87.0029 33.5052 87.4324 33.1128 87.917 33.0327C91.8324 32.3864 95.7479 31.7118 99.6487 31.0121C100.052 30.9392 101.267 30.9481 101.411 30.5089L101.643 16.9084L110.344 15.3771L110.347 35.8041L30.4194 49.9992L30.4185 50Z" fill="black"/>
<path d="M88.2574 3.24483C88.2832 3.58862 87.7105 3.45029 87.4945 3.49317C85.7326 3.84262 83.9682 4.12009 82.2111 4.4388C81.7443 4.52374 80.6579 4.42263 80.8334 5.20486C80.9313 5.64168 81.5251 5.59961 81.6238 5.99356C80.5527 6.02754 79.2964 6.33169 78.3094 6.76528C76.2134 7.68584 75.8332 9.27295 77.9818 10.4847C81.0227 12.2005 85.9308 11.5889 89.2475 10.9887C89.4635 10.9499 89.7273 10.7767 89.923 10.7695C90.1989 10.759 90.4149 11.0583 90.7344 11.0874C91.1616 11.1262 91.7901 10.9313 92.2027 10.8698C94.8877 10.471 97.5808 10.0172 100.264 9.55527C103.285 11.1108 106.674 12.3606 109.616 14.0416C109.692 14.0853 110.139 14.2818 110.019 14.4064L101.167 15.8633L92.4244 11.326C89.0679 11.8486 85.7317 12.4569 82.385 13.0248C81.8479 13.1162 79.4169 13.3499 79.1564 13.5975C79.0246 13.7229 78.9776 14.0658 79.1111 14.2106L86.4784 18.3718C86.3951 18.5983 85.7374 18.6986 85.5416 18.6881C85.4397 18.6824 84.6226 17.9964 84.4333 17.8678C78.1404 13.6048 65.8885 12.774 58.5495 14.1047C56.1501 14.5391 51.5389 15.8204 50.4768 18.2472C49.2973 20.9425 52.3609 22.867 54.3453 23.9323C54.4456 23.9865 54.571 23.8765 54.5249 24.1135L53.957 24.1621L45.3244 19.679C42.108 20.1894 38.9166 20.805 35.7098 21.3567C35.2964 21.4279 33.1842 21.5832 33.024 21.8655C32.9399 22.0136 32.99 22.4334 33.1615 22.5418L40.3671 26.7005C37.8156 27.2101 35.2325 27.5935 32.6608 28.0142C31.7264 28.1671 30.1514 28.6654 29.2607 28.4639C29.0431 28.4146 28.5989 28.0983 28.4105 28.0037C26.0458 26.8089 23.61 25.4361 21.2988 24.1305C21.2098 24.0804 21.1588 24.1394 21.1952 23.9517L29.5899 22.5976C30.212 21.9812 29.6199 21.7523 29.2032 21.3624C30.6707 21.1027 32.7482 20.915 33.9956 20.064C35.1071 19.3053 35.0214 18.2706 33.8694 17.6251C30.6918 15.8471 25.9172 16.9133 22.5357 17.558C21.9354 17.2101 21.319 16.8858 20.7204 16.5363C20.4324 16.3681 19.93 15.9361 19.655 15.8228C19.32 15.6845 15.8358 16.2572 15.1773 16.3551C13.1953 16.6479 10.7911 17.2538 8.8479 17.3865C8.63191 17.4011 8.34068 17.4277 8.13439 17.393C7.8561 17.3452 5.31917 15.8075 4.83864 15.5284C4.77877 15.4936 4.76422 15.4192 4.70435 15.3852C3.3655 14.6062 1.97326 13.8442 0.64655 12.9884C1.07288 12.3469 2.03717 12.4075 2.69972 12.2919C6.10387 11.6997 9.51854 11.2427 12.9057 10.6101C14.5495 11.4757 16.0793 12.6413 17.8412 13.2674C21.4994 14.5666 27.9016 14.552 31.4845 13.0053C31.8381 12.8525 32.4416 12.6162 32.4464 12.177C32.3518 11.9076 32.046 11.8575 31.8518 11.7321C30.6966 10.9814 29.3788 10.2315 28.1678 9.55769C27.9146 9.41694 26.3549 8.68891 26.2909 8.57889C26.3055 8.45755 26.405 8.44946 26.4997 8.42601C26.6922 8.37909 27.3887 8.24076 27.5457 8.24966C27.7892 8.26422 28.2203 8.75848 28.4816 8.93725C28.7429 9.11602 29.0698 9.30531 29.3383 9.45577C35.6435 12.9706 47.4957 13.4786 54.461 12.0379C56.989 11.5153 63.5748 9.49298 61.2684 5.75897C60.5468 4.59088 59.3771 4.15568 58.3343 3.43492C58.2664 3.38801 58.1733 3.33219 58.1628 3.24321L59.5421 3.19872C63.6889 5.35774 68.3178 7.65591 73.1304 6.1966C73.8423 5.98062 75.9116 5.11992 74.737 4.26246C73.9984 3.72371 72.2324 2.95361 71.3644 2.52165C70.7617 2.22153 70.1032 1.94569 69.4884 1.7022V1.46195C69.6866 1.4482 69.8937 1.48379 70.0935 1.46033C73.0624 1.10845 76.283 0.191935 79.2373 0.00669097C81.5874 -0.141343 85.54 2.20616 87.8068 3.16474C87.9491 3.22541 88.1028 3.24402 88.2565 3.24159L88.2574 3.24483Z" fill="black"/>
<path d="M0 14.0026C0.152087 13.9921 0.288803 14.0439 0.42471 14.1038C0.800882 14.2696 1.18191 14.6142 1.52006 14.8051C3.49961 15.9255 5.50829 17.0377 7.44578 18.2463C7.809 19.4613 7.90204 20.7734 8.10994 22.0312C8.57753 24.8593 9.02974 27.7196 9.53778 30.5533C9.62676 31.0508 9.47872 31.5272 9.92123 31.9495C10.172 32.1881 11.2609 32.7787 11.6354 33.0043C13.4864 34.1215 15.4271 35.1067 17.2546 36.2676C17.4406 36.384 17.7715 36.3258 17.8613 36.1098L19.8603 24.5211L25.8329 27.769C26.5893 28.1807 27.4152 28.772 28.1789 29.1441C28.5357 29.3181 28.9304 29.4046 29.2856 29.5745V49.7572L0.000809762 32.4057L0 14.0026Z" fill="black"/>
<path d="M84.1383 18.936L77.3826 20.0766C77.1836 20.0103 76.9473 19.9108 76.7613 19.8186C75.5972 19.2434 74.4419 18.4458 73.2083 17.9346C70.4796 16.8037 66.6241 16.6524 63.7352 17.1807C62.4231 17.4209 59.0124 18.3407 59.7818 20.2772C60.1507 21.2075 62.2216 21.9922 62.9432 22.6563L56.4148 23.7621C54.7953 23.2824 51.2552 21.3855 51.2285 19.4627C51.1937 17.0011 56.1827 15.5426 58.0684 15.1535C64.9293 13.7403 76.6529 14.398 82.831 17.9362C82.9928 18.0292 84.2491 18.7888 84.1375 18.9344L84.1383 18.936Z" fill="black"/>
<path d="M18.9512 23.4107L17.872 29.4502L10.5945 30.7485L8.65946 18.503L18.9261 16.8342C19.1445 17.7774 19.0879 18.7473 19.1704 19.705C19.2594 20.7405 19.3824 21.6335 19.4123 22.6981C19.4172 22.8728 19.5773 23.05 19.4107 23.1818C19.3055 23.2651 19.062 23.2902 18.9512 23.4107Z" fill="black"/>
<path d="M59.495 5.29984C62.8085 8.15859 58.1286 10.0895 55.7413 10.7439C48.9694 12.6012 36.7613 12.2113 30.4311 9.00068C29.9376 8.75073 29.4012 8.38024 28.9482 8.05748L35.5397 6.96057C36.8098 7.55998 38.0119 8.30986 39.3848 8.70381C42.276 9.53215 46.7933 9.60819 49.6741 8.72241C51.0809 8.28964 53.405 7.20001 51.2993 5.76821L49.4953 4.70204L56.4144 3.57925C57.462 4.04115 58.6221 4.54835 59.495 5.30146V5.29984Z" fill="black"/>
<path d="M100.443 16.685L100.253 29.2112L92.7024 25.3955L92.7687 12.8305L93.1513 12.8531L100.443 16.685Z" fill="black"/>
<path d="M53.2331 37.1785C53.2355 37.2197 53.4491 37.4114 53.1943 37.3799C52.0107 36.7101 50.8466 35.9966 49.6631 35.3293C48.503 34.6756 47.2726 34.0309 46.1376 33.3385C45.8213 33.146 45.6773 33.3401 45.6247 32.8159C45.505 31.626 45.7008 30.356 45.7137 29.1741C45.7436 26.4909 45.6846 23.8045 45.7105 21.1221L53.2339 24.924V37.1793L53.2331 37.1785Z" fill="black"/>
<path d="M70.8762 36.8144L67.7973 29.1677L69.7064 18.1258C72.1422 18.3491 74.1841 19.5608 76.2874 20.6836L76.4549 20.9166L70.8762 36.8144Z" fill="black"/>
<path d="M91.6425 12.5559L91.6393 25.193C91.5398 25.4883 90.976 25.3799 90.7325 25.4187C90.3312 25.4826 87.7983 26.0036 87.6883 25.8943C87.7231 23.8324 87.6446 21.764 87.6851 19.702C87.7053 18.682 88.1389 18.3527 87.1471 17.6578C85.5227 16.5205 83.4242 15.5603 81.714 14.516C81.6178 14.4569 81.4091 14.3501 81.3791 14.2458L91.6425 12.5559Z" fill="black"/>
<path d="M41.565 26.4195C41.5149 26.1356 41.1775 25.8986 40.9453 25.7433C39.4423 24.7313 37.4498 23.8019 35.8302 22.8506C35.6433 22.7405 35.3683 22.5982 35.2542 22.4162L44.6375 20.8784L44.5534 33.0083L41.5642 33.4977L41.565 26.4195Z" fill="black"/>
<path d="M87.5989 27.1477C87.8238 26.8589 88.1563 26.9924 88.4403 26.9374C89.6586 26.6987 90.8866 26.4423 92.13 26.3315C93.7868 27.1177 95.4573 27.9008 97.0825 28.7469C97.6585 29.047 98.5128 29.4596 99.0337 29.7888C99.1171 29.8414 99.2247 29.9191 99.2481 30.0186L87.5989 31.9203V27.1477Z" fill="black"/>
<path d="M41.4922 34.6708L41.6265 34.5624L45.0533 34.0188L52.2515 38.0675L41.5326 39.9685C41.3409 39.852 41.4914 39.7954 41.4914 39.7662V34.67L41.4922 34.6708Z" fill="black"/>
<path d="M68.5925 18.0545L67.0603 26.9859L66.9009 27.1064L65.0063 22.5691L62.2275 20.9626C61.8691 20.7458 60.6104 20.1836 60.684 19.7233C60.7851 19.0891 62.4654 18.594 62.9985 18.3926C64.834 18.0666 66.7335 17.7617 68.5925 18.0545Z" fill="black"/>
<path d="M87.0006 9.10376C87.5524 9.43542 88.0353 9.83665 88.6525 10.0397C88.6428 10.1457 88.5401 10.174 88.4552 10.2055C88.172 10.3115 87.2595 10.4587 86.9044 10.5153C84.5066 10.8972 81.2124 10.9505 78.9457 9.99681C78.1748 9.67243 76.9273 8.86351 77.8738 8.01413C78.5784 7.38155 80.6365 6.92936 81.5846 6.81369C82.5327 6.69801 82.6969 6.60175 83.5293 7.03129C84.6595 7.61533 85.8915 8.43558 86.9998 9.10295L87.0006 9.10376Z" fill="black"/>
<path d="M90.0246 4.21496L90.2665 10.0384L82.7446 5.50844L90.0246 4.21496Z" fill="black"/>
<path d="M33.6278 18.6372C34.0687 19.1833 32.8779 19.6767 32.475 19.8223C31.0731 20.3303 29.3378 20.395 27.8744 20.7113C26.4077 20.0893 25.1474 19.0425 23.7025 18.3306C23.7826 18.2352 23.8837 18.177 24.0043 18.147C26.3462 17.5622 30.7293 17.1326 32.9159 18.1778C33.051 18.2425 33.5534 18.545 33.6278 18.6372Z" fill="black"/>
<path d="M21.8928 18.4012L22.0239 18.5557C23.6135 19.6332 25.801 20.5424 27.287 21.7024C27.3768 21.772 27.4553 21.7825 27.4221 21.9306L20.5459 22.9021L20.1422 17.4014L21.8928 18.4012Z" fill="black"/>
<path d="M30.5721 12.3036C30.0535 12.412 29.4832 12.6571 28.9744 12.7695C27.6258 13.0672 26.2538 13.0842 24.8794 13.1886L24.7629 13.0114L24.8664 9.06628L25.0428 9.05414C26.3824 9.90109 27.8159 10.5919 29.1863 11.3839C29.3101 11.455 30.649 12.2292 30.5721 12.3036Z" fill="black"/>
<path d="M17.6278 30.5053L17.0615 34.7934C16.9013 34.956 15.8586 34.1867 15.6474 34.0638C14.5003 33.4004 13.3459 32.7128 12.2247 32.0495C12.0839 31.9662 11.8048 31.8942 11.6422 31.7988L11.8032 31.679L17.6278 30.5053Z" fill="black"/>
<path d="M67.8029 1.94965L73.5442 4.90223C71.8219 5.78073 69.6805 5.63512 67.7973 5.47334L67.8029 1.94965Z" fill="black"/>
<path d="M47.9733 5.18563C48.0631 5.1735 48.1359 5.1913 48.2208 5.22123C48.6544 5.37492 49.7166 6.0164 50.147 6.2882C50.3622 6.4241 51.0118 6.76628 50.9713 7.00168C50.922 7.28399 48.3341 8.173 47.8932 8.01607C47.8624 7.92871 47.9741 7.83972 47.9741 7.81465L47.9733 5.18563Z" fill="black"/>
</svg>
